%TF.GenerationSoftware,KiCad,Pcbnew,9.0.9-9.0.9~ubuntu24.04.1*%
%TF.CreationDate,2026-06-13T03:40:00+00:00*%
%TF.ProjectId,video,76696465-6f2e-46b6-9963-61645f706362,1.A*%
%TF.SameCoordinates,Original*%
%TF.FileFunction,Paste,Top*%
%TF.FilePolarity,Positive*%
%FSLAX46Y46*%
G04 Gerber Fmt 4.6, Leading zero omitted, Abs format (unit mm)*
G04 Created by KiCad (PCBNEW 9.0.9-9.0.9~ubuntu24.04.1) date 2026-06-13 03:40:00*
%MOMM*%
%LPD*%
G01*
G04 APERTURE LIST*
G04 Aperture macros list*
%AMRoundRect*
0 Rectangle with rounded corners*
0 $1 Rounding radius*
0 $2 $3 $4 $5 $6 $7 $8 $9 X,Y pos of 4 corners*
0 Add a 4 corners polygon primitive as box body*
4,1,4,$2,$3,$4,$5,$6,$7,$8,$9,$2,$3,0*
0 Add four circle primitives for the rounded corners*
1,1,$1+$1,$2,$3*
1,1,$1+$1,$4,$5*
1,1,$1+$1,$6,$7*
1,1,$1+$1,$8,$9*
0 Add four rect primitives between the rounded corners*
20,1,$1+$1,$2,$3,$4,$5,0*
20,1,$1+$1,$4,$5,$6,$7,0*
20,1,$1+$1,$6,$7,$8,$9,0*
20,1,$1+$1,$8,$9,$2,$3,0*%
G04 Aperture macros list end*
%ADD10RoundRect,0.250000X-0.400000X-0.625000X0.400000X-0.625000X0.400000X0.625000X-0.400000X0.625000X0*%
%ADD11RoundRect,0.250000X-0.625000X0.400000X-0.625000X-0.400000X0.625000X-0.400000X0.625000X0.400000X0*%
%ADD12RoundRect,0.250000X-0.400000X-1.075000X0.400000X-1.075000X0.400000X1.075000X-0.400000X1.075000X0*%
%ADD13RoundRect,0.250000X0.400000X1.075000X-0.400000X1.075000X-0.400000X-1.075000X0.400000X-1.075000X0*%
%ADD14RoundRect,0.250000X0.400000X0.625000X-0.400000X0.625000X-0.400000X-0.625000X0.400000X-0.625000X0*%
%ADD15RoundRect,0.250000X-0.400000X-1.450000X0.400000X-1.450000X0.400000X1.450000X-0.400000X1.450000X0*%
%ADD16RoundRect,0.250000X0.400000X1.450000X-0.400000X1.450000X-0.400000X-1.450000X0.400000X-1.450000X0*%
%ADD17RoundRect,0.250000X0.400000X0.400000X-0.400000X0.400000X-0.400000X-0.400000X0.400000X-0.400000X0*%
%ADD18RoundRect,0.250000X0.750000X0.400000X-0.750000X0.400000X-0.750000X-0.400000X0.750000X-0.400000X0*%
%ADD19RoundRect,0.150000X0.150000X-0.875000X0.150000X0.875000X-0.150000X0.875000X-0.150000X-0.875000X0*%
%ADD20RoundRect,0.150000X-0.875000X-0.150000X0.875000X-0.150000X0.875000X0.150000X-0.875000X0.150000X0*%
%ADD21R,0.800000X1.450000*%
%ADD22RoundRect,0.100000X-0.100000X0.775000X-0.100000X-0.775000X0.100000X-0.775000X0.100000X0.775000X0*%
%ADD23RoundRect,0.100000X-0.775000X0.100000X-0.775000X-0.100000X0.775000X-0.100000X0.775000X0.100000X0*%
%ADD24RoundRect,0.100000X0.100000X-0.775000X0.100000X0.775000X-0.100000X0.775000X-0.100000X-0.775000X0*%
%ADD25RoundRect,0.100000X0.775000X-0.100000X0.775000X0.100000X-0.775000X0.100000X-0.775000X-0.100000X0*%
%ADD26RoundRect,0.075000X-0.075000X0.662500X-0.075000X-0.662500X0.075000X-0.662500X0.075000X0.662500X0*%
%ADD27RoundRect,0.075000X-0.662500X0.075000X-0.662500X-0.075000X0.662500X-0.075000X0.662500X0.075000X0*%
%ADD28RoundRect,0.250000X0.625000X-0.400000X0.625000X0.400000X-0.625000X0.400000X-0.625000X-0.400000X0*%
G04 APERTURE END LIST*
D10*
%TO.C,C1*%
X356971000Y-58293000D03*
X360071000Y-58293000D03*
%TD*%
D11*
%TO.C,C3*%
X358140000Y-72237000D03*
X358140000Y-75337000D03*
%TD*%
D12*
%TO.C,C39*%
X331698000Y-131699000D03*
X334798000Y-131699000D03*
%TD*%
%TO.C,C40*%
X305536000Y-131699000D03*
X308636000Y-131699000D03*
%TD*%
D13*
%TO.C,C41*%
X301905000Y-131572000D03*
X298805000Y-131572000D03*
%TD*%
D10*
%TO.C,C47*%
X356971000Y-60833000D03*
X360071000Y-60833000D03*
%TD*%
%TO.C,C58*%
X80619000Y-92710000D03*
X83719000Y-92710000D03*
%TD*%
%TO.C,C60*%
X79882003Y-100609389D03*
X82982003Y-100609389D03*
%TD*%
D14*
%TO.C,C61*%
X70257000Y-102235000D03*
X67157000Y-102235000D03*
%TD*%
D12*
%TO.C,C63*%
X122275000Y-60092628D03*
X125375000Y-60092628D03*
%TD*%
D15*
%TO.C,L1*%
X77912000Y-107061000D03*
X82362000Y-107061000D03*
%TD*%
D16*
%TO.C,L2*%
X86680000Y-61976000D03*
X82230000Y-61976000D03*
%TD*%
D15*
%TO.C,L3*%
X68641000Y-106934000D03*
X73091000Y-106934000D03*
%TD*%
%TO.C,L4*%
X343088000Y-97155000D03*
X347538000Y-97155000D03*
%TD*%
D16*
%TO.C,L5*%
X328234000Y-131572000D03*
X323784000Y-131572000D03*
%TD*%
D17*
%TO.C,POT1*%
X85689957Y-84792000D03*
D18*
X84539957Y-79292000D03*
D17*
X83389957Y-84792000D03*
%TD*%
D10*
%TO.C,R1*%
X122275000Y-63119000D03*
X125375000Y-63119000D03*
%TD*%
%TO.C,R4*%
X66395000Y-111887000D03*
X69495000Y-111887000D03*
%TD*%
D14*
%TO.C,R8*%
X349784000Y-131699000D03*
X346684000Y-131699000D03*
%TD*%
%TO.C,R10*%
X72289000Y-76835000D03*
X69189000Y-76835000D03*
%TD*%
D10*
%TO.C,R11*%
X75793000Y-76835000D03*
X78893000Y-76835000D03*
%TD*%
D14*
%TO.C,R14*%
X360071000Y-63627000D03*
X356971000Y-63627000D03*
%TD*%
D10*
%TO.C,R22*%
X293217000Y-131572000D03*
X296317000Y-131572000D03*
%TD*%
D14*
%TO.C,R23*%
X315240000Y-132080000D03*
X312140000Y-132080000D03*
%TD*%
%TO.C,R24*%
X341148000Y-131318000D03*
X338048000Y-131318000D03*
%TD*%
D10*
%TO.C,R28*%
X110210000Y-114935000D03*
X113310000Y-114935000D03*
%TD*%
%TO.C,R29*%
X112750000Y-111760000D03*
X115850000Y-111760000D03*
%TD*%
%TO.C,R45*%
X66395000Y-116205000D03*
X69495000Y-116205000D03*
%TD*%
D19*
%TO.C,U2*%
X140462000Y-67896000D03*
X141732000Y-67896000D03*
X143002000Y-67896000D03*
X144272000Y-67896000D03*
X145542000Y-67896000D03*
X146812000Y-67896000D03*
X148082000Y-67896000D03*
X149352000Y-67896000D03*
X150622000Y-67896000D03*
X151892000Y-67896000D03*
X153162000Y-67896000D03*
X154432000Y-67896000D03*
X155702000Y-67896000D03*
X156972000Y-67896000D03*
X156972000Y-58596000D03*
X155702000Y-58596000D03*
X154432000Y-58596000D03*
X153162000Y-58596000D03*
X151892000Y-58596000D03*
X150622000Y-58596000D03*
X149352000Y-58596000D03*
X148082000Y-58596000D03*
X146812000Y-58596000D03*
X145542000Y-58596000D03*
X144272000Y-58596000D03*
X143002000Y-58596000D03*
X141732000Y-58596000D03*
X140462000Y-58596000D03*
%TD*%
D20*
%TO.C,U6*%
X193089000Y-133096000D03*
X193089000Y-134366000D03*
X193089000Y-135636000D03*
X193089000Y-136906000D03*
X193089000Y-138176000D03*
X193089000Y-139446000D03*
X193089000Y-140716000D03*
X193089000Y-141986000D03*
X193089000Y-143256000D03*
X193089000Y-144526000D03*
X202389000Y-144526000D03*
X202389000Y-143256000D03*
X202389000Y-141986000D03*
X202389000Y-140716000D03*
X202389000Y-139446000D03*
X202389000Y-138176000D03*
X202389000Y-136906000D03*
X202389000Y-135636000D03*
X202389000Y-134366000D03*
X202389000Y-133096000D03*
%TD*%
D21*
%TO.C,U7*%
X128270000Y-64220000D03*
X129540000Y-64220000D03*
X130810000Y-64220000D03*
X132080000Y-64220000D03*
X132080000Y-58970000D03*
X130810000Y-58970000D03*
X129540000Y-58970000D03*
X128270000Y-58970000D03*
%TD*%
D22*
%TO.C,U10*%
X348082000Y-61202000D03*
X347432000Y-61202000D03*
X346782000Y-61202000D03*
X346132000Y-61202000D03*
X345482000Y-61202000D03*
X344832000Y-61202000D03*
X344182000Y-61202000D03*
X343532000Y-61202000D03*
X342882000Y-61202000D03*
X342232000Y-61202000D03*
X341582000Y-61202000D03*
X340932000Y-61202000D03*
X340282000Y-61202000D03*
X339632000Y-61202000D03*
X338982000Y-61202000D03*
X338332000Y-61202000D03*
X337682000Y-61202000D03*
X337032000Y-61202000D03*
X336382000Y-61202000D03*
X335732000Y-61202000D03*
X335082000Y-61202000D03*
X334432000Y-61202000D03*
X333782000Y-61202000D03*
X333132000Y-61202000D03*
X332482000Y-61202000D03*
X331832000Y-61202000D03*
X331182000Y-61202000D03*
X330532000Y-61202000D03*
X329882000Y-61202000D03*
X329232000Y-61202000D03*
X328582000Y-61202000D03*
X327932000Y-61202000D03*
X327282000Y-61202000D03*
X326632000Y-61202000D03*
X325982000Y-61202000D03*
X325332000Y-61202000D03*
X324682000Y-61202000D03*
X324032000Y-61202000D03*
X323382000Y-61202000D03*
X322732000Y-61202000D03*
D23*
X320282000Y-63652000D03*
X320282000Y-64302000D03*
X320282000Y-64952000D03*
X320282000Y-65602000D03*
X320282000Y-66252000D03*
X320282000Y-66902000D03*
X320282000Y-67552000D03*
X320282000Y-68202000D03*
X320282000Y-68852000D03*
X320282000Y-69502000D03*
X320282000Y-70152000D03*
X320282000Y-70802000D03*
X320282000Y-71452000D03*
X320282000Y-72102000D03*
X320282000Y-72752000D03*
X320282000Y-73402000D03*
X320282000Y-74052000D03*
X320282000Y-74702000D03*
X320282000Y-75352000D03*
X320282000Y-76002000D03*
X320282000Y-76652000D03*
X320282000Y-77302000D03*
X320282000Y-77952000D03*
X320282000Y-78602000D03*
X320282000Y-79252000D03*
X320282000Y-79902000D03*
X320282000Y-80552000D03*
X320282000Y-81202000D03*
X320282000Y-81852000D03*
X320282000Y-82502000D03*
X320282000Y-83152000D03*
X320282000Y-83802000D03*
X320282000Y-84452000D03*
X320282000Y-85102000D03*
X320282000Y-85752000D03*
X320282000Y-86402000D03*
X320282000Y-87052000D03*
X320282000Y-87702000D03*
X320282000Y-88352000D03*
X320282000Y-89002000D03*
D22*
X322732000Y-91452000D03*
X323382000Y-91452000D03*
X324032000Y-91452000D03*
X324682000Y-91452000D03*
X325332000Y-91452000D03*
X325982000Y-91452000D03*
X326632000Y-91452000D03*
X327282000Y-91452000D03*
X327932000Y-91452000D03*
X328582000Y-91452000D03*
X329232000Y-91452000D03*
X329882000Y-91452000D03*
X330532000Y-91452000D03*
X331182000Y-91452000D03*
X331832000Y-91452000D03*
X332482000Y-91452000D03*
X333132000Y-91452000D03*
X333782000Y-91452000D03*
X334432000Y-91452000D03*
X335082000Y-91452000D03*
X335732000Y-91452000D03*
X336382000Y-91452000D03*
X337032000Y-91452000D03*
X337682000Y-91452000D03*
X338332000Y-91452000D03*
X338982000Y-91452000D03*
X339632000Y-91452000D03*
X340282000Y-91452000D03*
X340932000Y-91452000D03*
X341582000Y-91452000D03*
X342232000Y-91452000D03*
X342882000Y-91452000D03*
X343532000Y-91452000D03*
X344182000Y-91452000D03*
X344832000Y-91452000D03*
X345482000Y-91452000D03*
X346132000Y-91452000D03*
X346782000Y-91452000D03*
X347432000Y-91452000D03*
X348082000Y-91452000D03*
D23*
X350532000Y-89002000D03*
X350532000Y-88352000D03*
X350532000Y-87702000D03*
X350532000Y-87052000D03*
X350532000Y-86402000D03*
X350532000Y-85752000D03*
X350532000Y-85102000D03*
X350532000Y-84452000D03*
X350532000Y-83802000D03*
X350532000Y-83152000D03*
X350532000Y-82502000D03*
X350532000Y-81852000D03*
X350532000Y-81202000D03*
X350532000Y-80552000D03*
X350532000Y-79902000D03*
X350532000Y-79252000D03*
X350532000Y-78602000D03*
X350532000Y-77952000D03*
X350532000Y-77302000D03*
X350532000Y-76652000D03*
X350532000Y-76002000D03*
X350532000Y-75352000D03*
X350532000Y-74702000D03*
X350532000Y-74052000D03*
X350532000Y-73402000D03*
X350532000Y-72752000D03*
X350532000Y-72102000D03*
X350532000Y-71452000D03*
X350532000Y-70802000D03*
X350532000Y-70152000D03*
X350532000Y-69502000D03*
X350532000Y-68852000D03*
X350532000Y-68202000D03*
X350532000Y-67552000D03*
X350532000Y-66902000D03*
X350532000Y-66252000D03*
X350532000Y-65602000D03*
X350532000Y-64952000D03*
X350532000Y-64302000D03*
X350532000Y-63652000D03*
%TD*%
D24*
%TO.C,U11*%
X128930000Y-144565000D03*
X129580000Y-144565000D03*
X130230000Y-144565000D03*
X130880000Y-144565000D03*
X131530000Y-144565000D03*
X132180000Y-144565000D03*
X132830000Y-144565000D03*
X133480000Y-144565000D03*
X134130000Y-144565000D03*
X134780000Y-144565000D03*
X135430000Y-144565000D03*
X136080000Y-144565000D03*
X136730000Y-144565000D03*
X137380000Y-144565000D03*
X138030000Y-144565000D03*
X138680000Y-144565000D03*
X139330000Y-144565000D03*
X139980000Y-144565000D03*
X140630000Y-144565000D03*
X141280000Y-144565000D03*
X141930000Y-144565000D03*
X142580000Y-144565000D03*
X143230000Y-144565000D03*
X143880000Y-144565000D03*
X144530000Y-144565000D03*
X145180000Y-144565000D03*
X145830000Y-144565000D03*
X146480000Y-144565000D03*
X147130000Y-144565000D03*
X147780000Y-144565000D03*
X148430000Y-144565000D03*
X149080000Y-144565000D03*
X149730000Y-144565000D03*
X150380000Y-144565000D03*
X151030000Y-144565000D03*
X151680000Y-144565000D03*
X152330000Y-144565000D03*
X152980000Y-144565000D03*
X153630000Y-144565000D03*
X154280000Y-144565000D03*
D25*
X156730000Y-142115000D03*
X156730000Y-141465000D03*
X156730000Y-140815000D03*
X156730000Y-140165000D03*
X156730000Y-139515000D03*
X156730000Y-138865000D03*
X156730000Y-138215000D03*
X156730000Y-137565000D03*
X156730000Y-136915000D03*
X156730000Y-136265000D03*
X156730000Y-135615000D03*
X156730000Y-134965000D03*
X156730000Y-134315000D03*
X156730000Y-133665000D03*
X156730000Y-133015000D03*
X156730000Y-132365000D03*
X156730000Y-131715000D03*
X156730000Y-131065000D03*
X156730000Y-130415000D03*
X156730000Y-129765000D03*
X156730000Y-129115000D03*
X156730000Y-128465000D03*
X156730000Y-127815000D03*
X156730000Y-127165000D03*
X156730000Y-126515000D03*
X156730000Y-125865000D03*
X156730000Y-125215000D03*
X156730000Y-124565000D03*
X156730000Y-123915000D03*
X156730000Y-123265000D03*
X156730000Y-122615000D03*
X156730000Y-121965000D03*
X156730000Y-121315000D03*
X156730000Y-120665000D03*
X156730000Y-120015000D03*
X156730000Y-119365000D03*
X156730000Y-118715000D03*
X156730000Y-118065000D03*
X156730000Y-117415000D03*
X156730000Y-116765000D03*
D24*
X154280000Y-114315000D03*
X153630000Y-114315000D03*
X152980000Y-114315000D03*
X152330000Y-114315000D03*
X151680000Y-114315000D03*
X151030000Y-114315000D03*
X150380000Y-114315000D03*
X149730000Y-114315000D03*
X149080000Y-114315000D03*
X148430000Y-114315000D03*
X147780000Y-114315000D03*
X147130000Y-114315000D03*
X146480000Y-114315000D03*
X145830000Y-114315000D03*
X145180000Y-114315000D03*
X144530000Y-114315000D03*
X143880000Y-114315000D03*
X143230000Y-114315000D03*
X142580000Y-114315000D03*
X141930000Y-114315000D03*
X141280000Y-114315000D03*
X140630000Y-114315000D03*
X139980000Y-114315000D03*
X139330000Y-114315000D03*
X138680000Y-114315000D03*
X138030000Y-114315000D03*
X137380000Y-114315000D03*
X136730000Y-114315000D03*
X136080000Y-114315000D03*
X135430000Y-114315000D03*
X134780000Y-114315000D03*
X134130000Y-114315000D03*
X133480000Y-114315000D03*
X132830000Y-114315000D03*
X132180000Y-114315000D03*
X131530000Y-114315000D03*
X130880000Y-114315000D03*
X130230000Y-114315000D03*
X129580000Y-114315000D03*
X128930000Y-114315000D03*
D25*
X126480000Y-116765000D03*
X126480000Y-117415000D03*
X126480000Y-118065000D03*
X126480000Y-118715000D03*
X126480000Y-119365000D03*
X126480000Y-120015000D03*
X126480000Y-120665000D03*
X126480000Y-121315000D03*
X126480000Y-121965000D03*
X126480000Y-122615000D03*
X126480000Y-123265000D03*
X126480000Y-123915000D03*
X126480000Y-124565000D03*
X126480000Y-125215000D03*
X126480000Y-125865000D03*
X126480000Y-126515000D03*
X126480000Y-127165000D03*
X126480000Y-127815000D03*
X126480000Y-128465000D03*
X126480000Y-129115000D03*
X126480000Y-129765000D03*
X126480000Y-130415000D03*
X126480000Y-131065000D03*
X126480000Y-131715000D03*
X126480000Y-132365000D03*
X126480000Y-133015000D03*
X126480000Y-133665000D03*
X126480000Y-134315000D03*
X126480000Y-134965000D03*
X126480000Y-135615000D03*
X126480000Y-136265000D03*
X126480000Y-136915000D03*
X126480000Y-137565000D03*
X126480000Y-138215000D03*
X126480000Y-138865000D03*
X126480000Y-139515000D03*
X126480000Y-140165000D03*
X126480000Y-140815000D03*
X126480000Y-141465000D03*
X126480000Y-142115000D03*
%TD*%
D19*
%TO.C,U20*%
X66929000Y-89740000D03*
X68199000Y-89740000D03*
X69469000Y-89740000D03*
X70739000Y-89740000D03*
X72009000Y-89740000D03*
X73279000Y-89740000D03*
X74549000Y-89740000D03*
X75819000Y-89740000D03*
X77089000Y-89740000D03*
X78359000Y-89740000D03*
X79629000Y-89740000D03*
X80899000Y-89740000D03*
X80899000Y-80440000D03*
X79629000Y-80440000D03*
X78359000Y-80440000D03*
X77089000Y-80440000D03*
X75819000Y-80440000D03*
X74549000Y-80440000D03*
X73279000Y-80440000D03*
X72009000Y-80440000D03*
X70739000Y-80440000D03*
X69469000Y-80440000D03*
X68199000Y-80440000D03*
X66929000Y-80440000D03*
%TD*%
D26*
%TO.C,U22*%
X310927000Y-66759500D03*
X310427000Y-66759500D03*
X309927000Y-66759500D03*
X309427000Y-66759500D03*
X308927000Y-66759500D03*
X308427000Y-66759500D03*
X307927000Y-66759500D03*
X307427000Y-66759500D03*
X306927000Y-66759500D03*
X306427000Y-66759500D03*
X305927000Y-66759500D03*
X305427000Y-66759500D03*
X304927000Y-66759500D03*
X304427000Y-66759500D03*
X303927000Y-66759500D03*
X303427000Y-66759500D03*
X302927000Y-66759500D03*
X302427000Y-66759500D03*
X301927000Y-66759500D03*
X301427000Y-66759500D03*
X300927000Y-66759500D03*
X300427000Y-66759500D03*
X299927000Y-66759500D03*
X299427000Y-66759500D03*
X298927000Y-66759500D03*
D27*
X297264500Y-68422000D03*
X297264500Y-68922000D03*
X297264500Y-69422000D03*
X297264500Y-69922000D03*
X297264500Y-70422000D03*
X297264500Y-70922000D03*
X297264500Y-71422000D03*
X297264500Y-71922000D03*
X297264500Y-72422000D03*
X297264500Y-72922000D03*
X297264500Y-73422000D03*
X297264500Y-73922000D03*
X297264500Y-74422000D03*
X297264500Y-74922000D03*
X297264500Y-75422000D03*
X297264500Y-75922000D03*
X297264500Y-76422000D03*
X297264500Y-76922000D03*
X297264500Y-77422000D03*
X297264500Y-77922000D03*
X297264500Y-78422000D03*
X297264500Y-78922000D03*
X297264500Y-79422000D03*
X297264500Y-79922000D03*
X297264500Y-80422000D03*
D26*
X298927000Y-82084500D03*
X299427000Y-82084500D03*
X299927000Y-82084500D03*
X300427000Y-82084500D03*
X300927000Y-82084500D03*
X301427000Y-82084500D03*
X301927000Y-82084500D03*
X302427000Y-82084500D03*
X302927000Y-82084500D03*
X303427000Y-82084500D03*
X303927000Y-82084500D03*
X304427000Y-82084500D03*
X304927000Y-82084500D03*
X305427000Y-82084500D03*
X305927000Y-82084500D03*
X306427000Y-82084500D03*
X306927000Y-82084500D03*
X307427000Y-82084500D03*
X307927000Y-82084500D03*
X308427000Y-82084500D03*
X308927000Y-82084500D03*
X309427000Y-82084500D03*
X309927000Y-82084500D03*
X310427000Y-82084500D03*
X310927000Y-82084500D03*
D27*
X312589500Y-80422000D03*
X312589500Y-79922000D03*
X312589500Y-79422000D03*
X312589500Y-78922000D03*
X312589500Y-78422000D03*
X312589500Y-77922000D03*
X312589500Y-77422000D03*
X312589500Y-76922000D03*
X312589500Y-76422000D03*
X312589500Y-75922000D03*
X312589500Y-75422000D03*
X312589500Y-74922000D03*
X312589500Y-74422000D03*
X312589500Y-73922000D03*
X312589500Y-73422000D03*
X312589500Y-72922000D03*
X312589500Y-72422000D03*
X312589500Y-71922000D03*
X312589500Y-71422000D03*
X312589500Y-70922000D03*
X312589500Y-70422000D03*
X312589500Y-69922000D03*
X312589500Y-69422000D03*
X312589500Y-68922000D03*
X312589500Y-68422000D03*
%TD*%
D24*
%TO.C,U23*%
X94080000Y-94993000D03*
X94730000Y-94993000D03*
X95380000Y-94993000D03*
X96030000Y-94993000D03*
X96680000Y-94993000D03*
X97330000Y-94993000D03*
X97980000Y-94993000D03*
X98630000Y-94993000D03*
X99280000Y-94993000D03*
X99930000Y-94993000D03*
X100580000Y-94993000D03*
X101230000Y-94993000D03*
X101880000Y-94993000D03*
X102530000Y-94993000D03*
X103180000Y-94993000D03*
X103830000Y-94993000D03*
X104480000Y-94993000D03*
X105130000Y-94993000D03*
X105780000Y-94993000D03*
X106430000Y-94993000D03*
X107080000Y-94993000D03*
X107730000Y-94993000D03*
X108380000Y-94993000D03*
X109030000Y-94993000D03*
X109680000Y-94993000D03*
X110330000Y-94993000D03*
X110980000Y-94993000D03*
X111630000Y-94993000D03*
X112280000Y-94993000D03*
X112930000Y-94993000D03*
D25*
X114630000Y-93043000D03*
X114630000Y-92393000D03*
X114630000Y-91743000D03*
X114630000Y-91093000D03*
X114630000Y-90443000D03*
X114630000Y-89793000D03*
X114630000Y-89143000D03*
X114630000Y-88493000D03*
X114630000Y-87843000D03*
X114630000Y-87193000D03*
X114630000Y-86543000D03*
X114630000Y-85893000D03*
X114630000Y-85243000D03*
X114630000Y-84593000D03*
X114630000Y-83943000D03*
X114630000Y-83293000D03*
X114630000Y-82643000D03*
X114630000Y-81993000D03*
X114630000Y-81343000D03*
X114630000Y-80693000D03*
D24*
X112930000Y-78743000D03*
X112280000Y-78743000D03*
X111630000Y-78743000D03*
X110980000Y-78743000D03*
X110330000Y-78743000D03*
X109680000Y-78743000D03*
X109030000Y-78743000D03*
X108380000Y-78743000D03*
X107730000Y-78743000D03*
X107080000Y-78743000D03*
X106430000Y-78743000D03*
X105780000Y-78743000D03*
X105130000Y-78743000D03*
X104480000Y-78743000D03*
X103830000Y-78743000D03*
X103180000Y-78743000D03*
X102530000Y-78743000D03*
X101880000Y-78743000D03*
X101230000Y-78743000D03*
X100580000Y-78743000D03*
X99930000Y-78743000D03*
X99280000Y-78743000D03*
X98630000Y-78743000D03*
X97980000Y-78743000D03*
X97330000Y-78743000D03*
X96680000Y-78743000D03*
X96030000Y-78743000D03*
X95380000Y-78743000D03*
X94730000Y-78743000D03*
X94080000Y-78743000D03*
D25*
X92380000Y-80693000D03*
X92380000Y-81343000D03*
X92380000Y-81993000D03*
X92380000Y-82643000D03*
X92380000Y-83293000D03*
X92380000Y-83943000D03*
X92380000Y-84593000D03*
X92380000Y-85243000D03*
X92380000Y-85893000D03*
X92380000Y-86543000D03*
X92380000Y-87193000D03*
X92380000Y-87843000D03*
X92380000Y-88493000D03*
X92380000Y-89143000D03*
X92380000Y-89793000D03*
X92380000Y-90443000D03*
X92380000Y-91093000D03*
X92380000Y-91743000D03*
X92380000Y-92393000D03*
X92380000Y-93043000D03*
%TD*%
D24*
%TO.C,U24*%
X128930000Y-103290000D03*
X129580000Y-103290000D03*
X130230000Y-103290000D03*
X130880000Y-103290000D03*
X131530000Y-103290000D03*
X132180000Y-103290000D03*
X132830000Y-103290000D03*
X133480000Y-103290000D03*
X134130000Y-103290000D03*
X134780000Y-103290000D03*
X135430000Y-103290000D03*
X136080000Y-103290000D03*
X136730000Y-103290000D03*
X137380000Y-103290000D03*
X138030000Y-103290000D03*
X138680000Y-103290000D03*
X139330000Y-103290000D03*
X139980000Y-103290000D03*
X140630000Y-103290000D03*
X141280000Y-103290000D03*
X141930000Y-103290000D03*
X142580000Y-103290000D03*
X143230000Y-103290000D03*
X143880000Y-103290000D03*
X144530000Y-103290000D03*
X145180000Y-103290000D03*
X145830000Y-103290000D03*
X146480000Y-103290000D03*
X147130000Y-103290000D03*
X147780000Y-103290000D03*
X148430000Y-103290000D03*
X149080000Y-103290000D03*
X149730000Y-103290000D03*
X150380000Y-103290000D03*
X151030000Y-103290000D03*
X151680000Y-103290000D03*
X152330000Y-103290000D03*
X152980000Y-103290000D03*
X153630000Y-103290000D03*
X154280000Y-103290000D03*
D25*
X156730000Y-100840000D03*
X156730000Y-100190000D03*
X156730000Y-99540000D03*
X156730000Y-98890000D03*
X156730000Y-98240000D03*
X156730000Y-97590000D03*
X156730000Y-96940000D03*
X156730000Y-96290000D03*
X156730000Y-95640000D03*
X156730000Y-94990000D03*
X156730000Y-94340000D03*
X156730000Y-93690000D03*
X156730000Y-93040000D03*
X156730000Y-92390000D03*
X156730000Y-91740000D03*
X156730000Y-91090000D03*
X156730000Y-90440000D03*
X156730000Y-89790000D03*
X156730000Y-89140000D03*
X156730000Y-88490000D03*
X156730000Y-87840000D03*
X156730000Y-87190000D03*
X156730000Y-86540000D03*
X156730000Y-85890000D03*
X156730000Y-85240000D03*
X156730000Y-84590000D03*
X156730000Y-83940000D03*
X156730000Y-83290000D03*
X156730000Y-82640000D03*
X156730000Y-81990000D03*
X156730000Y-81340000D03*
X156730000Y-80690000D03*
X156730000Y-80040000D03*
X156730000Y-79390000D03*
X156730000Y-78740000D03*
X156730000Y-78090000D03*
X156730000Y-77440000D03*
X156730000Y-76790000D03*
X156730000Y-76140000D03*
X156730000Y-75490000D03*
D24*
X154280000Y-73040000D03*
X153630000Y-73040000D03*
X152980000Y-73040000D03*
X152330000Y-73040000D03*
X151680000Y-73040000D03*
X151030000Y-73040000D03*
X150380000Y-73040000D03*
X149730000Y-73040000D03*
X149080000Y-73040000D03*
X148430000Y-73040000D03*
X147780000Y-73040000D03*
X147130000Y-73040000D03*
X146480000Y-73040000D03*
X145830000Y-73040000D03*
X145180000Y-73040000D03*
X144530000Y-73040000D03*
X143880000Y-73040000D03*
X143230000Y-73040000D03*
X142580000Y-73040000D03*
X141930000Y-73040000D03*
X141280000Y-73040000D03*
X140630000Y-73040000D03*
X139980000Y-73040000D03*
X139330000Y-73040000D03*
X138680000Y-73040000D03*
X138030000Y-73040000D03*
X137380000Y-73040000D03*
X136730000Y-73040000D03*
X136080000Y-73040000D03*
X135430000Y-73040000D03*
X134780000Y-73040000D03*
X134130000Y-73040000D03*
X133480000Y-73040000D03*
X132830000Y-73040000D03*
X132180000Y-73040000D03*
X131530000Y-73040000D03*
X130880000Y-73040000D03*
X130230000Y-73040000D03*
X129580000Y-73040000D03*
X128930000Y-73040000D03*
D25*
X126480000Y-75490000D03*
X126480000Y-76140000D03*
X126480000Y-76790000D03*
X126480000Y-77440000D03*
X126480000Y-78090000D03*
X126480000Y-78740000D03*
X126480000Y-79390000D03*
X126480000Y-80040000D03*
X126480000Y-80690000D03*
X126480000Y-81340000D03*
X126480000Y-81990000D03*
X126480000Y-82640000D03*
X126480000Y-83290000D03*
X126480000Y-83940000D03*
X126480000Y-84590000D03*
X126480000Y-85240000D03*
X126480000Y-85890000D03*
X126480000Y-86540000D03*
X126480000Y-87190000D03*
X126480000Y-87840000D03*
X126480000Y-88490000D03*
X126480000Y-89140000D03*
X126480000Y-89790000D03*
X126480000Y-90440000D03*
X126480000Y-91090000D03*
X126480000Y-91740000D03*
X126480000Y-92390000D03*
X126480000Y-93040000D03*
X126480000Y-93690000D03*
X126480000Y-94340000D03*
X126480000Y-94990000D03*
X126480000Y-95640000D03*
X126480000Y-96290000D03*
X126480000Y-96940000D03*
X126480000Y-97590000D03*
X126480000Y-98240000D03*
X126480000Y-98890000D03*
X126480000Y-99540000D03*
X126480000Y-100190000D03*
X126480000Y-100840000D03*
%TD*%
D28*
%TO.C,R35*%
X353500000Y-60842500D03*
X353500000Y-57742500D03*
%TD*%
M02*
