%TF.GenerationSoftware,KiCad,Pcbnew,9.0.9-9.0.9~ubuntu24.04.1*%
%TF.CreationDate,2026-06-13T03:40:00+00:00*%
%TF.ProjectId,video,76696465-6f2e-46b6-9963-61645f706362,1.A*%
%TF.SameCoordinates,Original*%
%TF.FileFunction,Legend,Bot*%
%TF.FilePolarity,Positive*%
%FSLAX46Y46*%
G04 Gerber Fmt 4.6, Leading zero omitted, Abs format (unit mm)*
G04 Created by KiCad (PCBNEW 9.0.9-9.0.9~ubuntu24.04.1) date 2026-06-13 03:40:00*
%MOMM*%
%LPD*%
G01*
G04 APERTURE LIST*
%ADD10C,0.150000*%
%ADD11C,0.200000*%
%ADD12C,0.120000*%
%ADD13C,0.127000*%
G04 APERTURE END LIST*
D10*
X347746580Y-67270333D02*
X347794200Y-67222714D01*
X347794200Y-67222714D02*
X347841819Y-67079857D01*
X347841819Y-67079857D02*
X347841819Y-66984619D01*
X347841819Y-66984619D02*
X347794200Y-66841762D01*
X347794200Y-66841762D02*
X347698961Y-66746524D01*
X347698961Y-66746524D02*
X347603723Y-66698905D01*
X347603723Y-66698905D02*
X347413247Y-66651286D01*
X347413247Y-66651286D02*
X347270390Y-66651286D01*
X347270390Y-66651286D02*
X347079914Y-66698905D01*
X347079914Y-66698905D02*
X346984676Y-66746524D01*
X346984676Y-66746524D02*
X346889438Y-66841762D01*
X346889438Y-66841762D02*
X346841819Y-66984619D01*
X346841819Y-66984619D02*
X346841819Y-67079857D01*
X346841819Y-67079857D02*
X346889438Y-67222714D01*
X346889438Y-67222714D02*
X346937057Y-67270333D01*
X346937057Y-67651286D02*
X346889438Y-67698905D01*
X346889438Y-67698905D02*
X346841819Y-67794143D01*
X346841819Y-67794143D02*
X346841819Y-68032238D01*
X346841819Y-68032238D02*
X346889438Y-68127476D01*
X346889438Y-68127476D02*
X346937057Y-68175095D01*
X346937057Y-68175095D02*
X347032295Y-68222714D01*
X347032295Y-68222714D02*
X347127533Y-68222714D01*
X347127533Y-68222714D02*
X347270390Y-68175095D01*
X347270390Y-68175095D02*
X347841819Y-67603667D01*
X347841819Y-67603667D02*
X347841819Y-68222714D01*
X352666666Y-78459580D02*
X352714285Y-78507200D01*
X352714285Y-78507200D02*
X352857142Y-78554819D01*
X352857142Y-78554819D02*
X352952380Y-78554819D01*
X352952380Y-78554819D02*
X353095237Y-78507200D01*
X353095237Y-78507200D02*
X353190475Y-78411961D01*
X353190475Y-78411961D02*
X353238094Y-78316723D01*
X353238094Y-78316723D02*
X353285713Y-78126247D01*
X353285713Y-78126247D02*
X353285713Y-77983390D01*
X353285713Y-77983390D02*
X353238094Y-77792914D01*
X353238094Y-77792914D02*
X353190475Y-77697676D01*
X353190475Y-77697676D02*
X353095237Y-77602438D01*
X353095237Y-77602438D02*
X352952380Y-77554819D01*
X352952380Y-77554819D02*
X352857142Y-77554819D01*
X352857142Y-77554819D02*
X352714285Y-77602438D01*
X352714285Y-77602438D02*
X352666666Y-77650057D01*
X351809523Y-77888152D02*
X351809523Y-78554819D01*
X352047618Y-77507200D02*
X352285713Y-78221485D01*
X352285713Y-78221485D02*
X351666666Y-78221485D01*
X348559580Y-96533333D02*
X348607200Y-96485714D01*
X348607200Y-96485714D02*
X348654819Y-96342857D01*
X348654819Y-96342857D02*
X348654819Y-96247619D01*
X348654819Y-96247619D02*
X348607200Y-96104762D01*
X348607200Y-96104762D02*
X348511961Y-96009524D01*
X348511961Y-96009524D02*
X348416723Y-95961905D01*
X348416723Y-95961905D02*
X348226247Y-95914286D01*
X348226247Y-95914286D02*
X348083390Y-95914286D01*
X348083390Y-95914286D02*
X347892914Y-95961905D01*
X347892914Y-95961905D02*
X347797676Y-96009524D01*
X347797676Y-96009524D02*
X347702438Y-96104762D01*
X347702438Y-96104762D02*
X347654819Y-96247619D01*
X347654819Y-96247619D02*
X347654819Y-96342857D01*
X347654819Y-96342857D02*
X347702438Y-96485714D01*
X347702438Y-96485714D02*
X347750057Y-96533333D01*
X347654819Y-97438095D02*
X347654819Y-96961905D01*
X347654819Y-96961905D02*
X348131009Y-96914286D01*
X348131009Y-96914286D02*
X348083390Y-96961905D01*
X348083390Y-96961905D02*
X348035771Y-97057143D01*
X348035771Y-97057143D02*
X348035771Y-97295238D01*
X348035771Y-97295238D02*
X348083390Y-97390476D01*
X348083390Y-97390476D02*
X348131009Y-97438095D01*
X348131009Y-97438095D02*
X348226247Y-97485714D01*
X348226247Y-97485714D02*
X348464342Y-97485714D01*
X348464342Y-97485714D02*
X348559580Y-97438095D01*
X348559580Y-97438095D02*
X348607200Y-97390476D01*
X348607200Y-97390476D02*
X348654819Y-97295238D01*
X348654819Y-97295238D02*
X348654819Y-97057143D01*
X348654819Y-97057143D02*
X348607200Y-96961905D01*
X348607200Y-96961905D02*
X348559580Y-96914286D01*
X347746580Y-73112333D02*
X347794200Y-73064714D01*
X347794200Y-73064714D02*
X347841819Y-72921857D01*
X347841819Y-72921857D02*
X347841819Y-72826619D01*
X347841819Y-72826619D02*
X347794200Y-72683762D01*
X347794200Y-72683762D02*
X347698961Y-72588524D01*
X347698961Y-72588524D02*
X347603723Y-72540905D01*
X347603723Y-72540905D02*
X347413247Y-72493286D01*
X347413247Y-72493286D02*
X347270390Y-72493286D01*
X347270390Y-72493286D02*
X347079914Y-72540905D01*
X347079914Y-72540905D02*
X346984676Y-72588524D01*
X346984676Y-72588524D02*
X346889438Y-72683762D01*
X346889438Y-72683762D02*
X346841819Y-72826619D01*
X346841819Y-72826619D02*
X346841819Y-72921857D01*
X346841819Y-72921857D02*
X346889438Y-73064714D01*
X346889438Y-73064714D02*
X346937057Y-73112333D01*
X346841819Y-73969476D02*
X346841819Y-73779000D01*
X346841819Y-73779000D02*
X346889438Y-73683762D01*
X346889438Y-73683762D02*
X346937057Y-73636143D01*
X346937057Y-73636143D02*
X347079914Y-73540905D01*
X347079914Y-73540905D02*
X347270390Y-73493286D01*
X347270390Y-73493286D02*
X347651342Y-73493286D01*
X347651342Y-73493286D02*
X347746580Y-73540905D01*
X347746580Y-73540905D02*
X347794200Y-73588524D01*
X347794200Y-73588524D02*
X347841819Y-73683762D01*
X347841819Y-73683762D02*
X347841819Y-73874238D01*
X347841819Y-73874238D02*
X347794200Y-73969476D01*
X347794200Y-73969476D02*
X347746580Y-74017095D01*
X347746580Y-74017095D02*
X347651342Y-74064714D01*
X347651342Y-74064714D02*
X347413247Y-74064714D01*
X347413247Y-74064714D02*
X347318009Y-74017095D01*
X347318009Y-74017095D02*
X347270390Y-73969476D01*
X347270390Y-73969476D02*
X347222771Y-73874238D01*
X347222771Y-73874238D02*
X347222771Y-73683762D01*
X347222771Y-73683762D02*
X347270390Y-73588524D01*
X347270390Y-73588524D02*
X347318009Y-73540905D01*
X347318009Y-73540905D02*
X347413247Y-73493286D01*
X334966666Y-88259580D02*
X335014285Y-88307200D01*
X335014285Y-88307200D02*
X335157142Y-88354819D01*
X335157142Y-88354819D02*
X335252380Y-88354819D01*
X335252380Y-88354819D02*
X335395237Y-88307200D01*
X335395237Y-88307200D02*
X335490475Y-88211961D01*
X335490475Y-88211961D02*
X335538094Y-88116723D01*
X335538094Y-88116723D02*
X335585713Y-87926247D01*
X335585713Y-87926247D02*
X335585713Y-87783390D01*
X335585713Y-87783390D02*
X335538094Y-87592914D01*
X335538094Y-87592914D02*
X335490475Y-87497676D01*
X335490475Y-87497676D02*
X335395237Y-87402438D01*
X335395237Y-87402438D02*
X335252380Y-87354819D01*
X335252380Y-87354819D02*
X335157142Y-87354819D01*
X335157142Y-87354819D02*
X335014285Y-87402438D01*
X335014285Y-87402438D02*
X334966666Y-87450057D01*
X334633332Y-87354819D02*
X333966666Y-87354819D01*
X333966666Y-87354819D02*
X334395237Y-88354819D01*
X349289666Y-56578580D02*
X349337285Y-56626200D01*
X349337285Y-56626200D02*
X349480142Y-56673819D01*
X349480142Y-56673819D02*
X349575380Y-56673819D01*
X349575380Y-56673819D02*
X349718237Y-56626200D01*
X349718237Y-56626200D02*
X349813475Y-56530961D01*
X349813475Y-56530961D02*
X349861094Y-56435723D01*
X349861094Y-56435723D02*
X349908713Y-56245247D01*
X349908713Y-56245247D02*
X349908713Y-56102390D01*
X349908713Y-56102390D02*
X349861094Y-55911914D01*
X349861094Y-55911914D02*
X349813475Y-55816676D01*
X349813475Y-55816676D02*
X349718237Y-55721438D01*
X349718237Y-55721438D02*
X349575380Y-55673819D01*
X349575380Y-55673819D02*
X349480142Y-55673819D01*
X349480142Y-55673819D02*
X349337285Y-55721438D01*
X349337285Y-55721438D02*
X349289666Y-55769057D01*
X348718237Y-56102390D02*
X348813475Y-56054771D01*
X348813475Y-56054771D02*
X348861094Y-56007152D01*
X348861094Y-56007152D02*
X348908713Y-55911914D01*
X348908713Y-55911914D02*
X348908713Y-55864295D01*
X348908713Y-55864295D02*
X348861094Y-55769057D01*
X348861094Y-55769057D02*
X348813475Y-55721438D01*
X348813475Y-55721438D02*
X348718237Y-55673819D01*
X348718237Y-55673819D02*
X348527761Y-55673819D01*
X348527761Y-55673819D02*
X348432523Y-55721438D01*
X348432523Y-55721438D02*
X348384904Y-55769057D01*
X348384904Y-55769057D02*
X348337285Y-55864295D01*
X348337285Y-55864295D02*
X348337285Y-55911914D01*
X348337285Y-55911914D02*
X348384904Y-56007152D01*
X348384904Y-56007152D02*
X348432523Y-56054771D01*
X348432523Y-56054771D02*
X348527761Y-56102390D01*
X348527761Y-56102390D02*
X348718237Y-56102390D01*
X348718237Y-56102390D02*
X348813475Y-56150009D01*
X348813475Y-56150009D02*
X348861094Y-56197628D01*
X348861094Y-56197628D02*
X348908713Y-56292866D01*
X348908713Y-56292866D02*
X348908713Y-56483342D01*
X348908713Y-56483342D02*
X348861094Y-56578580D01*
X348861094Y-56578580D02*
X348813475Y-56626200D01*
X348813475Y-56626200D02*
X348718237Y-56673819D01*
X348718237Y-56673819D02*
X348527761Y-56673819D01*
X348527761Y-56673819D02*
X348432523Y-56626200D01*
X348432523Y-56626200D02*
X348384904Y-56578580D01*
X348384904Y-56578580D02*
X348337285Y-56483342D01*
X348337285Y-56483342D02*
X348337285Y-56292866D01*
X348337285Y-56292866D02*
X348384904Y-56197628D01*
X348384904Y-56197628D02*
X348432523Y-56150009D01*
X348432523Y-56150009D02*
X348527761Y-56102390D01*
X334049666Y-67076580D02*
X334097285Y-67124200D01*
X334097285Y-67124200D02*
X334240142Y-67171819D01*
X334240142Y-67171819D02*
X334335380Y-67171819D01*
X334335380Y-67171819D02*
X334478237Y-67124200D01*
X334478237Y-67124200D02*
X334573475Y-67028961D01*
X334573475Y-67028961D02*
X334621094Y-66933723D01*
X334621094Y-66933723D02*
X334668713Y-66743247D01*
X334668713Y-66743247D02*
X334668713Y-66600390D01*
X334668713Y-66600390D02*
X334621094Y-66409914D01*
X334621094Y-66409914D02*
X334573475Y-66314676D01*
X334573475Y-66314676D02*
X334478237Y-66219438D01*
X334478237Y-66219438D02*
X334335380Y-66171819D01*
X334335380Y-66171819D02*
X334240142Y-66171819D01*
X334240142Y-66171819D02*
X334097285Y-66219438D01*
X334097285Y-66219438D02*
X334049666Y-66267057D01*
X333573475Y-67171819D02*
X333382999Y-67171819D01*
X333382999Y-67171819D02*
X333287761Y-67124200D01*
X333287761Y-67124200D02*
X333240142Y-67076580D01*
X333240142Y-67076580D02*
X333144904Y-66933723D01*
X333144904Y-66933723D02*
X333097285Y-66743247D01*
X333097285Y-66743247D02*
X333097285Y-66362295D01*
X333097285Y-66362295D02*
X333144904Y-66267057D01*
X333144904Y-66267057D02*
X333192523Y-66219438D01*
X333192523Y-66219438D02*
X333287761Y-66171819D01*
X333287761Y-66171819D02*
X333478237Y-66171819D01*
X333478237Y-66171819D02*
X333573475Y-66219438D01*
X333573475Y-66219438D02*
X333621094Y-66267057D01*
X333621094Y-66267057D02*
X333668713Y-66362295D01*
X333668713Y-66362295D02*
X333668713Y-66600390D01*
X333668713Y-66600390D02*
X333621094Y-66695628D01*
X333621094Y-66695628D02*
X333573475Y-66743247D01*
X333573475Y-66743247D02*
X333478237Y-66790866D01*
X333478237Y-66790866D02*
X333287761Y-66790866D01*
X333287761Y-66790866D02*
X333192523Y-66743247D01*
X333192523Y-66743247D02*
X333144904Y-66695628D01*
X333144904Y-66695628D02*
X333097285Y-66600390D01*
X344939857Y-89936580D02*
X344987476Y-89984200D01*
X344987476Y-89984200D02*
X345130333Y-90031819D01*
X345130333Y-90031819D02*
X345225571Y-90031819D01*
X345225571Y-90031819D02*
X345368428Y-89984200D01*
X345368428Y-89984200D02*
X345463666Y-89888961D01*
X345463666Y-89888961D02*
X345511285Y-89793723D01*
X345511285Y-89793723D02*
X345558904Y-89603247D01*
X345558904Y-89603247D02*
X345558904Y-89460390D01*
X345558904Y-89460390D02*
X345511285Y-89269914D01*
X345511285Y-89269914D02*
X345463666Y-89174676D01*
X345463666Y-89174676D02*
X345368428Y-89079438D01*
X345368428Y-89079438D02*
X345225571Y-89031819D01*
X345225571Y-89031819D02*
X345130333Y-89031819D01*
X345130333Y-89031819D02*
X344987476Y-89079438D01*
X344987476Y-89079438D02*
X344939857Y-89127057D01*
X343987476Y-90031819D02*
X344558904Y-90031819D01*
X344273190Y-90031819D02*
X344273190Y-89031819D01*
X344273190Y-89031819D02*
X344368428Y-89174676D01*
X344368428Y-89174676D02*
X344463666Y-89269914D01*
X344463666Y-89269914D02*
X344558904Y-89317533D01*
X343368428Y-89031819D02*
X343273190Y-89031819D01*
X343273190Y-89031819D02*
X343177952Y-89079438D01*
X343177952Y-89079438D02*
X343130333Y-89127057D01*
X343130333Y-89127057D02*
X343082714Y-89222295D01*
X343082714Y-89222295D02*
X343035095Y-89412771D01*
X343035095Y-89412771D02*
X343035095Y-89650866D01*
X343035095Y-89650866D02*
X343082714Y-89841342D01*
X343082714Y-89841342D02*
X343130333Y-89936580D01*
X343130333Y-89936580D02*
X343177952Y-89984200D01*
X343177952Y-89984200D02*
X343273190Y-90031819D01*
X343273190Y-90031819D02*
X343368428Y-90031819D01*
X343368428Y-90031819D02*
X343463666Y-89984200D01*
X343463666Y-89984200D02*
X343511285Y-89936580D01*
X343511285Y-89936580D02*
X343558904Y-89841342D01*
X343558904Y-89841342D02*
X343606523Y-89650866D01*
X343606523Y-89650866D02*
X343606523Y-89412771D01*
X343606523Y-89412771D02*
X343558904Y-89222295D01*
X343558904Y-89222295D02*
X343511285Y-89127057D01*
X343511285Y-89127057D02*
X343463666Y-89079438D01*
X343463666Y-89079438D02*
X343368428Y-89031819D01*
X321457580Y-69334142D02*
X321505200Y-69286523D01*
X321505200Y-69286523D02*
X321552819Y-69143666D01*
X321552819Y-69143666D02*
X321552819Y-69048428D01*
X321552819Y-69048428D02*
X321505200Y-68905571D01*
X321505200Y-68905571D02*
X321409961Y-68810333D01*
X321409961Y-68810333D02*
X321314723Y-68762714D01*
X321314723Y-68762714D02*
X321124247Y-68715095D01*
X321124247Y-68715095D02*
X320981390Y-68715095D01*
X320981390Y-68715095D02*
X320790914Y-68762714D01*
X320790914Y-68762714D02*
X320695676Y-68810333D01*
X320695676Y-68810333D02*
X320600438Y-68905571D01*
X320600438Y-68905571D02*
X320552819Y-69048428D01*
X320552819Y-69048428D02*
X320552819Y-69143666D01*
X320552819Y-69143666D02*
X320600438Y-69286523D01*
X320600438Y-69286523D02*
X320648057Y-69334142D01*
X321552819Y-70286523D02*
X321552819Y-69715095D01*
X321552819Y-70000809D02*
X320552819Y-70000809D01*
X320552819Y-70000809D02*
X320695676Y-69905571D01*
X320695676Y-69905571D02*
X320790914Y-69810333D01*
X320790914Y-69810333D02*
X320838533Y-69715095D01*
X321552819Y-71238904D02*
X321552819Y-70667476D01*
X321552819Y-70953190D02*
X320552819Y-70953190D01*
X320552819Y-70953190D02*
X320695676Y-70857952D01*
X320695676Y-70857952D02*
X320790914Y-70762714D01*
X320790914Y-70762714D02*
X320838533Y-70667476D01*
X347746580Y-79748142D02*
X347794200Y-79700523D01*
X347794200Y-79700523D02*
X347841819Y-79557666D01*
X347841819Y-79557666D02*
X347841819Y-79462428D01*
X347841819Y-79462428D02*
X347794200Y-79319571D01*
X347794200Y-79319571D02*
X347698961Y-79224333D01*
X347698961Y-79224333D02*
X347603723Y-79176714D01*
X347603723Y-79176714D02*
X347413247Y-79129095D01*
X347413247Y-79129095D02*
X347270390Y-79129095D01*
X347270390Y-79129095D02*
X347079914Y-79176714D01*
X347079914Y-79176714D02*
X346984676Y-79224333D01*
X346984676Y-79224333D02*
X346889438Y-79319571D01*
X346889438Y-79319571D02*
X346841819Y-79462428D01*
X346841819Y-79462428D02*
X346841819Y-79557666D01*
X346841819Y-79557666D02*
X346889438Y-79700523D01*
X346889438Y-79700523D02*
X346937057Y-79748142D01*
X347841819Y-80700523D02*
X347841819Y-80129095D01*
X347841819Y-80414809D02*
X346841819Y-80414809D01*
X346841819Y-80414809D02*
X346984676Y-80319571D01*
X346984676Y-80319571D02*
X347079914Y-80224333D01*
X347079914Y-80224333D02*
X347127533Y-80129095D01*
X346937057Y-81081476D02*
X346889438Y-81129095D01*
X346889438Y-81129095D02*
X346841819Y-81224333D01*
X346841819Y-81224333D02*
X346841819Y-81462428D01*
X346841819Y-81462428D02*
X346889438Y-81557666D01*
X346889438Y-81557666D02*
X346937057Y-81605285D01*
X346937057Y-81605285D02*
X347032295Y-81652904D01*
X347032295Y-81652904D02*
X347127533Y-81652904D01*
X347127533Y-81652904D02*
X347270390Y-81605285D01*
X347270390Y-81605285D02*
X347841819Y-81033857D01*
X347841819Y-81033857D02*
X347841819Y-81652904D01*
X326651857Y-66822580D02*
X326699476Y-66870200D01*
X326699476Y-66870200D02*
X326842333Y-66917819D01*
X326842333Y-66917819D02*
X326937571Y-66917819D01*
X326937571Y-66917819D02*
X327080428Y-66870200D01*
X327080428Y-66870200D02*
X327175666Y-66774961D01*
X327175666Y-66774961D02*
X327223285Y-66679723D01*
X327223285Y-66679723D02*
X327270904Y-66489247D01*
X327270904Y-66489247D02*
X327270904Y-66346390D01*
X327270904Y-66346390D02*
X327223285Y-66155914D01*
X327223285Y-66155914D02*
X327175666Y-66060676D01*
X327175666Y-66060676D02*
X327080428Y-65965438D01*
X327080428Y-65965438D02*
X326937571Y-65917819D01*
X326937571Y-65917819D02*
X326842333Y-65917819D01*
X326842333Y-65917819D02*
X326699476Y-65965438D01*
X326699476Y-65965438D02*
X326651857Y-66013057D01*
X325699476Y-66917819D02*
X326270904Y-66917819D01*
X325985190Y-66917819D02*
X325985190Y-65917819D01*
X325985190Y-65917819D02*
X326080428Y-66060676D01*
X326080428Y-66060676D02*
X326175666Y-66155914D01*
X326175666Y-66155914D02*
X326270904Y-66203533D01*
X325366142Y-65917819D02*
X324747095Y-65917819D01*
X324747095Y-65917819D02*
X325080428Y-66298771D01*
X325080428Y-66298771D02*
X324937571Y-66298771D01*
X324937571Y-66298771D02*
X324842333Y-66346390D01*
X324842333Y-66346390D02*
X324794714Y-66394009D01*
X324794714Y-66394009D02*
X324747095Y-66489247D01*
X324747095Y-66489247D02*
X324747095Y-66727342D01*
X324747095Y-66727342D02*
X324794714Y-66822580D01*
X324794714Y-66822580D02*
X324842333Y-66870200D01*
X324842333Y-66870200D02*
X324937571Y-66917819D01*
X324937571Y-66917819D02*
X325223285Y-66917819D01*
X325223285Y-66917819D02*
X325318523Y-66870200D01*
X325318523Y-66870200D02*
X325366142Y-66822580D01*
X326410580Y-81272142D02*
X326458200Y-81224523D01*
X326458200Y-81224523D02*
X326505819Y-81081666D01*
X326505819Y-81081666D02*
X326505819Y-80986428D01*
X326505819Y-80986428D02*
X326458200Y-80843571D01*
X326458200Y-80843571D02*
X326362961Y-80748333D01*
X326362961Y-80748333D02*
X326267723Y-80700714D01*
X326267723Y-80700714D02*
X326077247Y-80653095D01*
X326077247Y-80653095D02*
X325934390Y-80653095D01*
X325934390Y-80653095D02*
X325743914Y-80700714D01*
X325743914Y-80700714D02*
X325648676Y-80748333D01*
X325648676Y-80748333D02*
X325553438Y-80843571D01*
X325553438Y-80843571D02*
X325505819Y-80986428D01*
X325505819Y-80986428D02*
X325505819Y-81081666D01*
X325505819Y-81081666D02*
X325553438Y-81224523D01*
X325553438Y-81224523D02*
X325601057Y-81272142D01*
X326505819Y-82224523D02*
X326505819Y-81653095D01*
X326505819Y-81938809D02*
X325505819Y-81938809D01*
X325505819Y-81938809D02*
X325648676Y-81843571D01*
X325648676Y-81843571D02*
X325743914Y-81748333D01*
X325743914Y-81748333D02*
X325791533Y-81653095D01*
X325839152Y-83081666D02*
X326505819Y-83081666D01*
X325458200Y-82843571D02*
X326172485Y-82605476D01*
X326172485Y-82605476D02*
X326172485Y-83224523D01*
X326397857Y-89428580D02*
X326445476Y-89476200D01*
X326445476Y-89476200D02*
X326588333Y-89523819D01*
X326588333Y-89523819D02*
X326683571Y-89523819D01*
X326683571Y-89523819D02*
X326826428Y-89476200D01*
X326826428Y-89476200D02*
X326921666Y-89380961D01*
X326921666Y-89380961D02*
X326969285Y-89285723D01*
X326969285Y-89285723D02*
X327016904Y-89095247D01*
X327016904Y-89095247D02*
X327016904Y-88952390D01*
X327016904Y-88952390D02*
X326969285Y-88761914D01*
X326969285Y-88761914D02*
X326921666Y-88666676D01*
X326921666Y-88666676D02*
X326826428Y-88571438D01*
X326826428Y-88571438D02*
X326683571Y-88523819D01*
X326683571Y-88523819D02*
X326588333Y-88523819D01*
X326588333Y-88523819D02*
X326445476Y-88571438D01*
X326445476Y-88571438D02*
X326397857Y-88619057D01*
X325445476Y-89523819D02*
X326016904Y-89523819D01*
X325731190Y-89523819D02*
X325731190Y-88523819D01*
X325731190Y-88523819D02*
X325826428Y-88666676D01*
X325826428Y-88666676D02*
X325921666Y-88761914D01*
X325921666Y-88761914D02*
X326016904Y-88809533D01*
X324540714Y-88523819D02*
X325016904Y-88523819D01*
X325016904Y-88523819D02*
X325064523Y-89000009D01*
X325064523Y-89000009D02*
X325016904Y-88952390D01*
X325016904Y-88952390D02*
X324921666Y-88904771D01*
X324921666Y-88904771D02*
X324683571Y-88904771D01*
X324683571Y-88904771D02*
X324588333Y-88952390D01*
X324588333Y-88952390D02*
X324540714Y-89000009D01*
X324540714Y-89000009D02*
X324493095Y-89095247D01*
X324493095Y-89095247D02*
X324493095Y-89333342D01*
X324493095Y-89333342D02*
X324540714Y-89428580D01*
X324540714Y-89428580D02*
X324588333Y-89476200D01*
X324588333Y-89476200D02*
X324683571Y-89523819D01*
X324683571Y-89523819D02*
X324921666Y-89523819D01*
X324921666Y-89523819D02*
X325016904Y-89476200D01*
X325016904Y-89476200D02*
X325064523Y-89428580D01*
X338843857Y-83248580D02*
X338891476Y-83296200D01*
X338891476Y-83296200D02*
X339034333Y-83343819D01*
X339034333Y-83343819D02*
X339129571Y-83343819D01*
X339129571Y-83343819D02*
X339272428Y-83296200D01*
X339272428Y-83296200D02*
X339367666Y-83200961D01*
X339367666Y-83200961D02*
X339415285Y-83105723D01*
X339415285Y-83105723D02*
X339462904Y-82915247D01*
X339462904Y-82915247D02*
X339462904Y-82772390D01*
X339462904Y-82772390D02*
X339415285Y-82581914D01*
X339415285Y-82581914D02*
X339367666Y-82486676D01*
X339367666Y-82486676D02*
X339272428Y-82391438D01*
X339272428Y-82391438D02*
X339129571Y-82343819D01*
X339129571Y-82343819D02*
X339034333Y-82343819D01*
X339034333Y-82343819D02*
X338891476Y-82391438D01*
X338891476Y-82391438D02*
X338843857Y-82439057D01*
X337891476Y-83343819D02*
X338462904Y-83343819D01*
X338177190Y-83343819D02*
X338177190Y-82343819D01*
X338177190Y-82343819D02*
X338272428Y-82486676D01*
X338272428Y-82486676D02*
X338367666Y-82581914D01*
X338367666Y-82581914D02*
X338462904Y-82629533D01*
X337034333Y-82343819D02*
X337224809Y-82343819D01*
X337224809Y-82343819D02*
X337320047Y-82391438D01*
X337320047Y-82391438D02*
X337367666Y-82439057D01*
X337367666Y-82439057D02*
X337462904Y-82581914D01*
X337462904Y-82581914D02*
X337510523Y-82772390D01*
X337510523Y-82772390D02*
X337510523Y-83153342D01*
X337510523Y-83153342D02*
X337462904Y-83248580D01*
X337462904Y-83248580D02*
X337415285Y-83296200D01*
X337415285Y-83296200D02*
X337320047Y-83343819D01*
X337320047Y-83343819D02*
X337129571Y-83343819D01*
X337129571Y-83343819D02*
X337034333Y-83296200D01*
X337034333Y-83296200D02*
X336986714Y-83248580D01*
X336986714Y-83248580D02*
X336939095Y-83153342D01*
X336939095Y-83153342D02*
X336939095Y-82915247D01*
X336939095Y-82915247D02*
X336986714Y-82820009D01*
X336986714Y-82820009D02*
X337034333Y-82772390D01*
X337034333Y-82772390D02*
X337129571Y-82724771D01*
X337129571Y-82724771D02*
X337320047Y-82724771D01*
X337320047Y-82724771D02*
X337415285Y-82772390D01*
X337415285Y-82772390D02*
X337462904Y-82820009D01*
X337462904Y-82820009D02*
X337510523Y-82915247D01*
X157373580Y-84701142D02*
X157421200Y-84653523D01*
X157421200Y-84653523D02*
X157468819Y-84510666D01*
X157468819Y-84510666D02*
X157468819Y-84415428D01*
X157468819Y-84415428D02*
X157421200Y-84272571D01*
X157421200Y-84272571D02*
X157325961Y-84177333D01*
X157325961Y-84177333D02*
X157230723Y-84129714D01*
X157230723Y-84129714D02*
X157040247Y-84082095D01*
X157040247Y-84082095D02*
X156897390Y-84082095D01*
X156897390Y-84082095D02*
X156706914Y-84129714D01*
X156706914Y-84129714D02*
X156611676Y-84177333D01*
X156611676Y-84177333D02*
X156516438Y-84272571D01*
X156516438Y-84272571D02*
X156468819Y-84415428D01*
X156468819Y-84415428D02*
X156468819Y-84510666D01*
X156468819Y-84510666D02*
X156516438Y-84653523D01*
X156516438Y-84653523D02*
X156564057Y-84701142D01*
X157468819Y-85653523D02*
X157468819Y-85082095D01*
X157468819Y-85367809D02*
X156468819Y-85367809D01*
X156468819Y-85367809D02*
X156611676Y-85272571D01*
X156611676Y-85272571D02*
X156706914Y-85177333D01*
X156706914Y-85177333D02*
X156754533Y-85082095D01*
X156468819Y-85986857D02*
X156468819Y-86653523D01*
X156468819Y-86653523D02*
X157468819Y-86224952D01*
X156019580Y-73652142D02*
X156067200Y-73604523D01*
X156067200Y-73604523D02*
X156114819Y-73461666D01*
X156114819Y-73461666D02*
X156114819Y-73366428D01*
X156114819Y-73366428D02*
X156067200Y-73223571D01*
X156067200Y-73223571D02*
X155971961Y-73128333D01*
X155971961Y-73128333D02*
X155876723Y-73080714D01*
X155876723Y-73080714D02*
X155686247Y-73033095D01*
X155686247Y-73033095D02*
X155543390Y-73033095D01*
X155543390Y-73033095D02*
X155352914Y-73080714D01*
X155352914Y-73080714D02*
X155257676Y-73128333D01*
X155257676Y-73128333D02*
X155162438Y-73223571D01*
X155162438Y-73223571D02*
X155114819Y-73366428D01*
X155114819Y-73366428D02*
X155114819Y-73461666D01*
X155114819Y-73461666D02*
X155162438Y-73604523D01*
X155162438Y-73604523D02*
X155210057Y-73652142D01*
X156114819Y-74604523D02*
X156114819Y-74033095D01*
X156114819Y-74318809D02*
X155114819Y-74318809D01*
X155114819Y-74318809D02*
X155257676Y-74223571D01*
X155257676Y-74223571D02*
X155352914Y-74128333D01*
X155352914Y-74128333D02*
X155400533Y-74033095D01*
X155543390Y-75175952D02*
X155495771Y-75080714D01*
X155495771Y-75080714D02*
X155448152Y-75033095D01*
X155448152Y-75033095D02*
X155352914Y-74985476D01*
X155352914Y-74985476D02*
X155305295Y-74985476D01*
X155305295Y-74985476D02*
X155210057Y-75033095D01*
X155210057Y-75033095D02*
X155162438Y-75080714D01*
X155162438Y-75080714D02*
X155114819Y-75175952D01*
X155114819Y-75175952D02*
X155114819Y-75366428D01*
X155114819Y-75366428D02*
X155162438Y-75461666D01*
X155162438Y-75461666D02*
X155210057Y-75509285D01*
X155210057Y-75509285D02*
X155305295Y-75556904D01*
X155305295Y-75556904D02*
X155352914Y-75556904D01*
X155352914Y-75556904D02*
X155448152Y-75509285D01*
X155448152Y-75509285D02*
X155495771Y-75461666D01*
X155495771Y-75461666D02*
X155543390Y-75366428D01*
X155543390Y-75366428D02*
X155543390Y-75175952D01*
X155543390Y-75175952D02*
X155591009Y-75080714D01*
X155591009Y-75080714D02*
X155638628Y-75033095D01*
X155638628Y-75033095D02*
X155733866Y-74985476D01*
X155733866Y-74985476D02*
X155924342Y-74985476D01*
X155924342Y-74985476D02*
X156019580Y-75033095D01*
X156019580Y-75033095D02*
X156067200Y-75080714D01*
X156067200Y-75080714D02*
X156114819Y-75175952D01*
X156114819Y-75175952D02*
X156114819Y-75366428D01*
X156114819Y-75366428D02*
X156067200Y-75461666D01*
X156067200Y-75461666D02*
X156019580Y-75509285D01*
X156019580Y-75509285D02*
X155924342Y-75556904D01*
X155924342Y-75556904D02*
X155733866Y-75556904D01*
X155733866Y-75556904D02*
X155638628Y-75509285D01*
X155638628Y-75509285D02*
X155591009Y-75461666D01*
X155591009Y-75461666D02*
X155543390Y-75366428D01*
X141612857Y-72199580D02*
X141660476Y-72247200D01*
X141660476Y-72247200D02*
X141803333Y-72294819D01*
X141803333Y-72294819D02*
X141898571Y-72294819D01*
X141898571Y-72294819D02*
X142041428Y-72247200D01*
X142041428Y-72247200D02*
X142136666Y-72151961D01*
X142136666Y-72151961D02*
X142184285Y-72056723D01*
X142184285Y-72056723D02*
X142231904Y-71866247D01*
X142231904Y-71866247D02*
X142231904Y-71723390D01*
X142231904Y-71723390D02*
X142184285Y-71532914D01*
X142184285Y-71532914D02*
X142136666Y-71437676D01*
X142136666Y-71437676D02*
X142041428Y-71342438D01*
X142041428Y-71342438D02*
X141898571Y-71294819D01*
X141898571Y-71294819D02*
X141803333Y-71294819D01*
X141803333Y-71294819D02*
X141660476Y-71342438D01*
X141660476Y-71342438D02*
X141612857Y-71390057D01*
X140660476Y-72294819D02*
X141231904Y-72294819D01*
X140946190Y-72294819D02*
X140946190Y-71294819D01*
X140946190Y-71294819D02*
X141041428Y-71437676D01*
X141041428Y-71437676D02*
X141136666Y-71532914D01*
X141136666Y-71532914D02*
X141231904Y-71580533D01*
X140184285Y-72294819D02*
X139993809Y-72294819D01*
X139993809Y-72294819D02*
X139898571Y-72247200D01*
X139898571Y-72247200D02*
X139850952Y-72199580D01*
X139850952Y-72199580D02*
X139755714Y-72056723D01*
X139755714Y-72056723D02*
X139708095Y-71866247D01*
X139708095Y-71866247D02*
X139708095Y-71485295D01*
X139708095Y-71485295D02*
X139755714Y-71390057D01*
X139755714Y-71390057D02*
X139803333Y-71342438D01*
X139803333Y-71342438D02*
X139898571Y-71294819D01*
X139898571Y-71294819D02*
X140089047Y-71294819D01*
X140089047Y-71294819D02*
X140184285Y-71342438D01*
X140184285Y-71342438D02*
X140231904Y-71390057D01*
X140231904Y-71390057D02*
X140279523Y-71485295D01*
X140279523Y-71485295D02*
X140279523Y-71723390D01*
X140279523Y-71723390D02*
X140231904Y-71818628D01*
X140231904Y-71818628D02*
X140184285Y-71866247D01*
X140184285Y-71866247D02*
X140089047Y-71913866D01*
X140089047Y-71913866D02*
X139898571Y-71913866D01*
X139898571Y-71913866D02*
X139803333Y-71866247D01*
X139803333Y-71866247D02*
X139755714Y-71818628D01*
X139755714Y-71818628D02*
X139708095Y-71723390D01*
X131452857Y-75204580D02*
X131500476Y-75252200D01*
X131500476Y-75252200D02*
X131643333Y-75299819D01*
X131643333Y-75299819D02*
X131738571Y-75299819D01*
X131738571Y-75299819D02*
X131881428Y-75252200D01*
X131881428Y-75252200D02*
X131976666Y-75156961D01*
X131976666Y-75156961D02*
X132024285Y-75061723D01*
X132024285Y-75061723D02*
X132071904Y-74871247D01*
X132071904Y-74871247D02*
X132071904Y-74728390D01*
X132071904Y-74728390D02*
X132024285Y-74537914D01*
X132024285Y-74537914D02*
X131976666Y-74442676D01*
X131976666Y-74442676D02*
X131881428Y-74347438D01*
X131881428Y-74347438D02*
X131738571Y-74299819D01*
X131738571Y-74299819D02*
X131643333Y-74299819D01*
X131643333Y-74299819D02*
X131500476Y-74347438D01*
X131500476Y-74347438D02*
X131452857Y-74395057D01*
X131071904Y-74395057D02*
X131024285Y-74347438D01*
X131024285Y-74347438D02*
X130929047Y-74299819D01*
X130929047Y-74299819D02*
X130690952Y-74299819D01*
X130690952Y-74299819D02*
X130595714Y-74347438D01*
X130595714Y-74347438D02*
X130548095Y-74395057D01*
X130548095Y-74395057D02*
X130500476Y-74490295D01*
X130500476Y-74490295D02*
X130500476Y-74585533D01*
X130500476Y-74585533D02*
X130548095Y-74728390D01*
X130548095Y-74728390D02*
X131119523Y-75299819D01*
X131119523Y-75299819D02*
X130500476Y-75299819D01*
X129881428Y-74299819D02*
X129786190Y-74299819D01*
X129786190Y-74299819D02*
X129690952Y-74347438D01*
X129690952Y-74347438D02*
X129643333Y-74395057D01*
X129643333Y-74395057D02*
X129595714Y-74490295D01*
X129595714Y-74490295D02*
X129548095Y-74680771D01*
X129548095Y-74680771D02*
X129548095Y-74918866D01*
X129548095Y-74918866D02*
X129595714Y-75109342D01*
X129595714Y-75109342D02*
X129643333Y-75204580D01*
X129643333Y-75204580D02*
X129690952Y-75252200D01*
X129690952Y-75252200D02*
X129786190Y-75299819D01*
X129786190Y-75299819D02*
X129881428Y-75299819D01*
X129881428Y-75299819D02*
X129976666Y-75252200D01*
X129976666Y-75252200D02*
X130024285Y-75204580D01*
X130024285Y-75204580D02*
X130071904Y-75109342D01*
X130071904Y-75109342D02*
X130119523Y-74918866D01*
X130119523Y-74918866D02*
X130119523Y-74680771D01*
X130119523Y-74680771D02*
X130071904Y-74490295D01*
X130071904Y-74490295D02*
X130024285Y-74395057D01*
X130024285Y-74395057D02*
X129976666Y-74347438D01*
X129976666Y-74347438D02*
X129881428Y-74299819D01*
X125356857Y-92984580D02*
X125404476Y-93032200D01*
X125404476Y-93032200D02*
X125547333Y-93079819D01*
X125547333Y-93079819D02*
X125642571Y-93079819D01*
X125642571Y-93079819D02*
X125785428Y-93032200D01*
X125785428Y-93032200D02*
X125880666Y-92936961D01*
X125880666Y-92936961D02*
X125928285Y-92841723D01*
X125928285Y-92841723D02*
X125975904Y-92651247D01*
X125975904Y-92651247D02*
X125975904Y-92508390D01*
X125975904Y-92508390D02*
X125928285Y-92317914D01*
X125928285Y-92317914D02*
X125880666Y-92222676D01*
X125880666Y-92222676D02*
X125785428Y-92127438D01*
X125785428Y-92127438D02*
X125642571Y-92079819D01*
X125642571Y-92079819D02*
X125547333Y-92079819D01*
X125547333Y-92079819D02*
X125404476Y-92127438D01*
X125404476Y-92127438D02*
X125356857Y-92175057D01*
X124975904Y-92175057D02*
X124928285Y-92127438D01*
X124928285Y-92127438D02*
X124833047Y-92079819D01*
X124833047Y-92079819D02*
X124594952Y-92079819D01*
X124594952Y-92079819D02*
X124499714Y-92127438D01*
X124499714Y-92127438D02*
X124452095Y-92175057D01*
X124452095Y-92175057D02*
X124404476Y-92270295D01*
X124404476Y-92270295D02*
X124404476Y-92365533D01*
X124404476Y-92365533D02*
X124452095Y-92508390D01*
X124452095Y-92508390D02*
X125023523Y-93079819D01*
X125023523Y-93079819D02*
X124404476Y-93079819D01*
X123452095Y-93079819D02*
X124023523Y-93079819D01*
X123737809Y-93079819D02*
X123737809Y-92079819D01*
X123737809Y-92079819D02*
X123833047Y-92222676D01*
X123833047Y-92222676D02*
X123928285Y-92317914D01*
X123928285Y-92317914D02*
X124023523Y-92365533D01*
X127642857Y-106319580D02*
X127690476Y-106367200D01*
X127690476Y-106367200D02*
X127833333Y-106414819D01*
X127833333Y-106414819D02*
X127928571Y-106414819D01*
X127928571Y-106414819D02*
X128071428Y-106367200D01*
X128071428Y-106367200D02*
X128166666Y-106271961D01*
X128166666Y-106271961D02*
X128214285Y-106176723D01*
X128214285Y-106176723D02*
X128261904Y-105986247D01*
X128261904Y-105986247D02*
X128261904Y-105843390D01*
X128261904Y-105843390D02*
X128214285Y-105652914D01*
X128214285Y-105652914D02*
X128166666Y-105557676D01*
X128166666Y-105557676D02*
X128071428Y-105462438D01*
X128071428Y-105462438D02*
X127928571Y-105414819D01*
X127928571Y-105414819D02*
X127833333Y-105414819D01*
X127833333Y-105414819D02*
X127690476Y-105462438D01*
X127690476Y-105462438D02*
X127642857Y-105510057D01*
X127261904Y-105510057D02*
X127214285Y-105462438D01*
X127214285Y-105462438D02*
X127119047Y-105414819D01*
X127119047Y-105414819D02*
X126880952Y-105414819D01*
X126880952Y-105414819D02*
X126785714Y-105462438D01*
X126785714Y-105462438D02*
X126738095Y-105510057D01*
X126738095Y-105510057D02*
X126690476Y-105605295D01*
X126690476Y-105605295D02*
X126690476Y-105700533D01*
X126690476Y-105700533D02*
X126738095Y-105843390D01*
X126738095Y-105843390D02*
X127309523Y-106414819D01*
X127309523Y-106414819D02*
X126690476Y-106414819D01*
X126309523Y-105510057D02*
X126261904Y-105462438D01*
X126261904Y-105462438D02*
X126166666Y-105414819D01*
X126166666Y-105414819D02*
X125928571Y-105414819D01*
X125928571Y-105414819D02*
X125833333Y-105462438D01*
X125833333Y-105462438D02*
X125785714Y-105510057D01*
X125785714Y-105510057D02*
X125738095Y-105605295D01*
X125738095Y-105605295D02*
X125738095Y-105700533D01*
X125738095Y-105700533D02*
X125785714Y-105843390D01*
X125785714Y-105843390D02*
X126357142Y-106414819D01*
X126357142Y-106414819D02*
X125738095Y-106414819D01*
X130817857Y-63774580D02*
X130865476Y-63822200D01*
X130865476Y-63822200D02*
X131008333Y-63869819D01*
X131008333Y-63869819D02*
X131103571Y-63869819D01*
X131103571Y-63869819D02*
X131246428Y-63822200D01*
X131246428Y-63822200D02*
X131341666Y-63726961D01*
X131341666Y-63726961D02*
X131389285Y-63631723D01*
X131389285Y-63631723D02*
X131436904Y-63441247D01*
X131436904Y-63441247D02*
X131436904Y-63298390D01*
X131436904Y-63298390D02*
X131389285Y-63107914D01*
X131389285Y-63107914D02*
X131341666Y-63012676D01*
X131341666Y-63012676D02*
X131246428Y-62917438D01*
X131246428Y-62917438D02*
X131103571Y-62869819D01*
X131103571Y-62869819D02*
X131008333Y-62869819D01*
X131008333Y-62869819D02*
X130865476Y-62917438D01*
X130865476Y-62917438D02*
X130817857Y-62965057D01*
X130436904Y-62965057D02*
X130389285Y-62917438D01*
X130389285Y-62917438D02*
X130294047Y-62869819D01*
X130294047Y-62869819D02*
X130055952Y-62869819D01*
X130055952Y-62869819D02*
X129960714Y-62917438D01*
X129960714Y-62917438D02*
X129913095Y-62965057D01*
X129913095Y-62965057D02*
X129865476Y-63060295D01*
X129865476Y-63060295D02*
X129865476Y-63155533D01*
X129865476Y-63155533D02*
X129913095Y-63298390D01*
X129913095Y-63298390D02*
X130484523Y-63869819D01*
X130484523Y-63869819D02*
X129865476Y-63869819D01*
X129532142Y-62869819D02*
X128913095Y-62869819D01*
X128913095Y-62869819D02*
X129246428Y-63250771D01*
X129246428Y-63250771D02*
X129103571Y-63250771D01*
X129103571Y-63250771D02*
X129008333Y-63298390D01*
X129008333Y-63298390D02*
X128960714Y-63346009D01*
X128960714Y-63346009D02*
X128913095Y-63441247D01*
X128913095Y-63441247D02*
X128913095Y-63679342D01*
X128913095Y-63679342D02*
X128960714Y-63774580D01*
X128960714Y-63774580D02*
X129008333Y-63822200D01*
X129008333Y-63822200D02*
X129103571Y-63869819D01*
X129103571Y-63869819D02*
X129389285Y-63869819D01*
X129389285Y-63869819D02*
X129484523Y-63822200D01*
X129484523Y-63822200D02*
X129532142Y-63774580D01*
X138691857Y-119019580D02*
X138739476Y-119067200D01*
X138739476Y-119067200D02*
X138882333Y-119114819D01*
X138882333Y-119114819D02*
X138977571Y-119114819D01*
X138977571Y-119114819D02*
X139120428Y-119067200D01*
X139120428Y-119067200D02*
X139215666Y-118971961D01*
X139215666Y-118971961D02*
X139263285Y-118876723D01*
X139263285Y-118876723D02*
X139310904Y-118686247D01*
X139310904Y-118686247D02*
X139310904Y-118543390D01*
X139310904Y-118543390D02*
X139263285Y-118352914D01*
X139263285Y-118352914D02*
X139215666Y-118257676D01*
X139215666Y-118257676D02*
X139120428Y-118162438D01*
X139120428Y-118162438D02*
X138977571Y-118114819D01*
X138977571Y-118114819D02*
X138882333Y-118114819D01*
X138882333Y-118114819D02*
X138739476Y-118162438D01*
X138739476Y-118162438D02*
X138691857Y-118210057D01*
X138310904Y-118210057D02*
X138263285Y-118162438D01*
X138263285Y-118162438D02*
X138168047Y-118114819D01*
X138168047Y-118114819D02*
X137929952Y-118114819D01*
X137929952Y-118114819D02*
X137834714Y-118162438D01*
X137834714Y-118162438D02*
X137787095Y-118210057D01*
X137787095Y-118210057D02*
X137739476Y-118305295D01*
X137739476Y-118305295D02*
X137739476Y-118400533D01*
X137739476Y-118400533D02*
X137787095Y-118543390D01*
X137787095Y-118543390D02*
X138358523Y-119114819D01*
X138358523Y-119114819D02*
X137739476Y-119114819D01*
X136882333Y-118448152D02*
X136882333Y-119114819D01*
X137120428Y-118067200D02*
X137358523Y-118781485D01*
X137358523Y-118781485D02*
X136739476Y-118781485D01*
X147073857Y-113474580D02*
X147121476Y-113522200D01*
X147121476Y-113522200D02*
X147264333Y-113569819D01*
X147264333Y-113569819D02*
X147359571Y-113569819D01*
X147359571Y-113569819D02*
X147502428Y-113522200D01*
X147502428Y-113522200D02*
X147597666Y-113426961D01*
X147597666Y-113426961D02*
X147645285Y-113331723D01*
X147645285Y-113331723D02*
X147692904Y-113141247D01*
X147692904Y-113141247D02*
X147692904Y-112998390D01*
X147692904Y-112998390D02*
X147645285Y-112807914D01*
X147645285Y-112807914D02*
X147597666Y-112712676D01*
X147597666Y-112712676D02*
X147502428Y-112617438D01*
X147502428Y-112617438D02*
X147359571Y-112569819D01*
X147359571Y-112569819D02*
X147264333Y-112569819D01*
X147264333Y-112569819D02*
X147121476Y-112617438D01*
X147121476Y-112617438D02*
X147073857Y-112665057D01*
X146692904Y-112665057D02*
X146645285Y-112617438D01*
X146645285Y-112617438D02*
X146550047Y-112569819D01*
X146550047Y-112569819D02*
X146311952Y-112569819D01*
X146311952Y-112569819D02*
X146216714Y-112617438D01*
X146216714Y-112617438D02*
X146169095Y-112665057D01*
X146169095Y-112665057D02*
X146121476Y-112760295D01*
X146121476Y-112760295D02*
X146121476Y-112855533D01*
X146121476Y-112855533D02*
X146169095Y-112998390D01*
X146169095Y-112998390D02*
X146740523Y-113569819D01*
X146740523Y-113569819D02*
X146121476Y-113569819D01*
X145216714Y-112569819D02*
X145692904Y-112569819D01*
X145692904Y-112569819D02*
X145740523Y-113046009D01*
X145740523Y-113046009D02*
X145692904Y-112998390D01*
X145692904Y-112998390D02*
X145597666Y-112950771D01*
X145597666Y-112950771D02*
X145359571Y-112950771D01*
X145359571Y-112950771D02*
X145264333Y-112998390D01*
X145264333Y-112998390D02*
X145216714Y-113046009D01*
X145216714Y-113046009D02*
X145169095Y-113141247D01*
X145169095Y-113141247D02*
X145169095Y-113379342D01*
X145169095Y-113379342D02*
X145216714Y-113474580D01*
X145216714Y-113474580D02*
X145264333Y-113522200D01*
X145264333Y-113522200D02*
X145359571Y-113569819D01*
X145359571Y-113569819D02*
X145597666Y-113569819D01*
X145597666Y-113569819D02*
X145692904Y-113522200D01*
X145692904Y-113522200D02*
X145740523Y-113474580D01*
X151264857Y-121475580D02*
X151312476Y-121523200D01*
X151312476Y-121523200D02*
X151455333Y-121570819D01*
X151455333Y-121570819D02*
X151550571Y-121570819D01*
X151550571Y-121570819D02*
X151693428Y-121523200D01*
X151693428Y-121523200D02*
X151788666Y-121427961D01*
X151788666Y-121427961D02*
X151836285Y-121332723D01*
X151836285Y-121332723D02*
X151883904Y-121142247D01*
X151883904Y-121142247D02*
X151883904Y-120999390D01*
X151883904Y-120999390D02*
X151836285Y-120808914D01*
X151836285Y-120808914D02*
X151788666Y-120713676D01*
X151788666Y-120713676D02*
X151693428Y-120618438D01*
X151693428Y-120618438D02*
X151550571Y-120570819D01*
X151550571Y-120570819D02*
X151455333Y-120570819D01*
X151455333Y-120570819D02*
X151312476Y-120618438D01*
X151312476Y-120618438D02*
X151264857Y-120666057D01*
X150883904Y-120666057D02*
X150836285Y-120618438D01*
X150836285Y-120618438D02*
X150741047Y-120570819D01*
X150741047Y-120570819D02*
X150502952Y-120570819D01*
X150502952Y-120570819D02*
X150407714Y-120618438D01*
X150407714Y-120618438D02*
X150360095Y-120666057D01*
X150360095Y-120666057D02*
X150312476Y-120761295D01*
X150312476Y-120761295D02*
X150312476Y-120856533D01*
X150312476Y-120856533D02*
X150360095Y-120999390D01*
X150360095Y-120999390D02*
X150931523Y-121570819D01*
X150931523Y-121570819D02*
X150312476Y-121570819D01*
X149455333Y-120570819D02*
X149645809Y-120570819D01*
X149645809Y-120570819D02*
X149741047Y-120618438D01*
X149741047Y-120618438D02*
X149788666Y-120666057D01*
X149788666Y-120666057D02*
X149883904Y-120808914D01*
X149883904Y-120808914D02*
X149931523Y-120999390D01*
X149931523Y-120999390D02*
X149931523Y-121380342D01*
X149931523Y-121380342D02*
X149883904Y-121475580D01*
X149883904Y-121475580D02*
X149836285Y-121523200D01*
X149836285Y-121523200D02*
X149741047Y-121570819D01*
X149741047Y-121570819D02*
X149550571Y-121570819D01*
X149550571Y-121570819D02*
X149455333Y-121523200D01*
X149455333Y-121523200D02*
X149407714Y-121475580D01*
X149407714Y-121475580D02*
X149360095Y-121380342D01*
X149360095Y-121380342D02*
X149360095Y-121142247D01*
X149360095Y-121142247D02*
X149407714Y-121047009D01*
X149407714Y-121047009D02*
X149455333Y-120999390D01*
X149455333Y-120999390D02*
X149550571Y-120951771D01*
X149550571Y-120951771D02*
X149741047Y-120951771D01*
X149741047Y-120951771D02*
X149836285Y-120999390D01*
X149836285Y-120999390D02*
X149883904Y-121047009D01*
X149883904Y-121047009D02*
X149931523Y-121142247D01*
X132976857Y-125369580D02*
X133024476Y-125417200D01*
X133024476Y-125417200D02*
X133167333Y-125464819D01*
X133167333Y-125464819D02*
X133262571Y-125464819D01*
X133262571Y-125464819D02*
X133405428Y-125417200D01*
X133405428Y-125417200D02*
X133500666Y-125321961D01*
X133500666Y-125321961D02*
X133548285Y-125226723D01*
X133548285Y-125226723D02*
X133595904Y-125036247D01*
X133595904Y-125036247D02*
X133595904Y-124893390D01*
X133595904Y-124893390D02*
X133548285Y-124702914D01*
X133548285Y-124702914D02*
X133500666Y-124607676D01*
X133500666Y-124607676D02*
X133405428Y-124512438D01*
X133405428Y-124512438D02*
X133262571Y-124464819D01*
X133262571Y-124464819D02*
X133167333Y-124464819D01*
X133167333Y-124464819D02*
X133024476Y-124512438D01*
X133024476Y-124512438D02*
X132976857Y-124560057D01*
X132595904Y-124560057D02*
X132548285Y-124512438D01*
X132548285Y-124512438D02*
X132453047Y-124464819D01*
X132453047Y-124464819D02*
X132214952Y-124464819D01*
X132214952Y-124464819D02*
X132119714Y-124512438D01*
X132119714Y-124512438D02*
X132072095Y-124560057D01*
X132072095Y-124560057D02*
X132024476Y-124655295D01*
X132024476Y-124655295D02*
X132024476Y-124750533D01*
X132024476Y-124750533D02*
X132072095Y-124893390D01*
X132072095Y-124893390D02*
X132643523Y-125464819D01*
X132643523Y-125464819D02*
X132024476Y-125464819D01*
X131691142Y-124464819D02*
X131024476Y-124464819D01*
X131024476Y-124464819D02*
X131453047Y-125464819D01*
X150883857Y-134429580D02*
X150931476Y-134477200D01*
X150931476Y-134477200D02*
X151074333Y-134524819D01*
X151074333Y-134524819D02*
X151169571Y-134524819D01*
X151169571Y-134524819D02*
X151312428Y-134477200D01*
X151312428Y-134477200D02*
X151407666Y-134381961D01*
X151407666Y-134381961D02*
X151455285Y-134286723D01*
X151455285Y-134286723D02*
X151502904Y-134096247D01*
X151502904Y-134096247D02*
X151502904Y-133953390D01*
X151502904Y-133953390D02*
X151455285Y-133762914D01*
X151455285Y-133762914D02*
X151407666Y-133667676D01*
X151407666Y-133667676D02*
X151312428Y-133572438D01*
X151312428Y-133572438D02*
X151169571Y-133524819D01*
X151169571Y-133524819D02*
X151074333Y-133524819D01*
X151074333Y-133524819D02*
X150931476Y-133572438D01*
X150931476Y-133572438D02*
X150883857Y-133620057D01*
X150502904Y-133620057D02*
X150455285Y-133572438D01*
X150455285Y-133572438D02*
X150360047Y-133524819D01*
X150360047Y-133524819D02*
X150121952Y-133524819D01*
X150121952Y-133524819D02*
X150026714Y-133572438D01*
X150026714Y-133572438D02*
X149979095Y-133620057D01*
X149979095Y-133620057D02*
X149931476Y-133715295D01*
X149931476Y-133715295D02*
X149931476Y-133810533D01*
X149931476Y-133810533D02*
X149979095Y-133953390D01*
X149979095Y-133953390D02*
X150550523Y-134524819D01*
X150550523Y-134524819D02*
X149931476Y-134524819D01*
X149360047Y-133953390D02*
X149455285Y-133905771D01*
X149455285Y-133905771D02*
X149502904Y-133858152D01*
X149502904Y-133858152D02*
X149550523Y-133762914D01*
X149550523Y-133762914D02*
X149550523Y-133715295D01*
X149550523Y-133715295D02*
X149502904Y-133620057D01*
X149502904Y-133620057D02*
X149455285Y-133572438D01*
X149455285Y-133572438D02*
X149360047Y-133524819D01*
X149360047Y-133524819D02*
X149169571Y-133524819D01*
X149169571Y-133524819D02*
X149074333Y-133572438D01*
X149074333Y-133572438D02*
X149026714Y-133620057D01*
X149026714Y-133620057D02*
X148979095Y-133715295D01*
X148979095Y-133715295D02*
X148979095Y-133762914D01*
X148979095Y-133762914D02*
X149026714Y-133858152D01*
X149026714Y-133858152D02*
X149074333Y-133905771D01*
X149074333Y-133905771D02*
X149169571Y-133953390D01*
X149169571Y-133953390D02*
X149360047Y-133953390D01*
X149360047Y-133953390D02*
X149455285Y-134001009D01*
X149455285Y-134001009D02*
X149502904Y-134048628D01*
X149502904Y-134048628D02*
X149550523Y-134143866D01*
X149550523Y-134143866D02*
X149550523Y-134334342D01*
X149550523Y-134334342D02*
X149502904Y-134429580D01*
X149502904Y-134429580D02*
X149455285Y-134477200D01*
X149455285Y-134477200D02*
X149360047Y-134524819D01*
X149360047Y-134524819D02*
X149169571Y-134524819D01*
X149169571Y-134524819D02*
X149074333Y-134477200D01*
X149074333Y-134477200D02*
X149026714Y-134429580D01*
X149026714Y-134429580D02*
X148979095Y-134334342D01*
X148979095Y-134334342D02*
X148979095Y-134143866D01*
X148979095Y-134143866D02*
X149026714Y-134048628D01*
X149026714Y-134048628D02*
X149074333Y-134001009D01*
X149074333Y-134001009D02*
X149169571Y-133953390D01*
X147708857Y-138239580D02*
X147756476Y-138287200D01*
X147756476Y-138287200D02*
X147899333Y-138334819D01*
X147899333Y-138334819D02*
X147994571Y-138334819D01*
X147994571Y-138334819D02*
X148137428Y-138287200D01*
X148137428Y-138287200D02*
X148232666Y-138191961D01*
X148232666Y-138191961D02*
X148280285Y-138096723D01*
X148280285Y-138096723D02*
X148327904Y-137906247D01*
X148327904Y-137906247D02*
X148327904Y-137763390D01*
X148327904Y-137763390D02*
X148280285Y-137572914D01*
X148280285Y-137572914D02*
X148232666Y-137477676D01*
X148232666Y-137477676D02*
X148137428Y-137382438D01*
X148137428Y-137382438D02*
X147994571Y-137334819D01*
X147994571Y-137334819D02*
X147899333Y-137334819D01*
X147899333Y-137334819D02*
X147756476Y-137382438D01*
X147756476Y-137382438D02*
X147708857Y-137430057D01*
X147327904Y-137430057D02*
X147280285Y-137382438D01*
X147280285Y-137382438D02*
X147185047Y-137334819D01*
X147185047Y-137334819D02*
X146946952Y-137334819D01*
X146946952Y-137334819D02*
X146851714Y-137382438D01*
X146851714Y-137382438D02*
X146804095Y-137430057D01*
X146804095Y-137430057D02*
X146756476Y-137525295D01*
X146756476Y-137525295D02*
X146756476Y-137620533D01*
X146756476Y-137620533D02*
X146804095Y-137763390D01*
X146804095Y-137763390D02*
X147375523Y-138334819D01*
X147375523Y-138334819D02*
X146756476Y-138334819D01*
X146280285Y-138334819D02*
X146089809Y-138334819D01*
X146089809Y-138334819D02*
X145994571Y-138287200D01*
X145994571Y-138287200D02*
X145946952Y-138239580D01*
X145946952Y-138239580D02*
X145851714Y-138096723D01*
X145851714Y-138096723D02*
X145804095Y-137906247D01*
X145804095Y-137906247D02*
X145804095Y-137525295D01*
X145804095Y-137525295D02*
X145851714Y-137430057D01*
X145851714Y-137430057D02*
X145899333Y-137382438D01*
X145899333Y-137382438D02*
X145994571Y-137334819D01*
X145994571Y-137334819D02*
X146185047Y-137334819D01*
X146185047Y-137334819D02*
X146280285Y-137382438D01*
X146280285Y-137382438D02*
X146327904Y-137430057D01*
X146327904Y-137430057D02*
X146375523Y-137525295D01*
X146375523Y-137525295D02*
X146375523Y-137763390D01*
X146375523Y-137763390D02*
X146327904Y-137858628D01*
X146327904Y-137858628D02*
X146280285Y-137906247D01*
X146280285Y-137906247D02*
X146185047Y-137953866D01*
X146185047Y-137953866D02*
X145994571Y-137953866D01*
X145994571Y-137953866D02*
X145899333Y-137906247D01*
X145899333Y-137906247D02*
X145851714Y-137858628D01*
X145851714Y-137858628D02*
X145804095Y-137763390D01*
X137421857Y-141879580D02*
X137469476Y-141927200D01*
X137469476Y-141927200D02*
X137612333Y-141974819D01*
X137612333Y-141974819D02*
X137707571Y-141974819D01*
X137707571Y-141974819D02*
X137850428Y-141927200D01*
X137850428Y-141927200D02*
X137945666Y-141831961D01*
X137945666Y-141831961D02*
X137993285Y-141736723D01*
X137993285Y-141736723D02*
X138040904Y-141546247D01*
X138040904Y-141546247D02*
X138040904Y-141403390D01*
X138040904Y-141403390D02*
X137993285Y-141212914D01*
X137993285Y-141212914D02*
X137945666Y-141117676D01*
X137945666Y-141117676D02*
X137850428Y-141022438D01*
X137850428Y-141022438D02*
X137707571Y-140974819D01*
X137707571Y-140974819D02*
X137612333Y-140974819D01*
X137612333Y-140974819D02*
X137469476Y-141022438D01*
X137469476Y-141022438D02*
X137421857Y-141070057D01*
X137088523Y-140974819D02*
X136469476Y-140974819D01*
X136469476Y-140974819D02*
X136802809Y-141355771D01*
X136802809Y-141355771D02*
X136659952Y-141355771D01*
X136659952Y-141355771D02*
X136564714Y-141403390D01*
X136564714Y-141403390D02*
X136517095Y-141451009D01*
X136517095Y-141451009D02*
X136469476Y-141546247D01*
X136469476Y-141546247D02*
X136469476Y-141784342D01*
X136469476Y-141784342D02*
X136517095Y-141879580D01*
X136517095Y-141879580D02*
X136564714Y-141927200D01*
X136564714Y-141927200D02*
X136659952Y-141974819D01*
X136659952Y-141974819D02*
X136945666Y-141974819D01*
X136945666Y-141974819D02*
X137040904Y-141927200D01*
X137040904Y-141927200D02*
X137088523Y-141879580D01*
X135850428Y-140974819D02*
X135755190Y-140974819D01*
X135755190Y-140974819D02*
X135659952Y-141022438D01*
X135659952Y-141022438D02*
X135612333Y-141070057D01*
X135612333Y-141070057D02*
X135564714Y-141165295D01*
X135564714Y-141165295D02*
X135517095Y-141355771D01*
X135517095Y-141355771D02*
X135517095Y-141593866D01*
X135517095Y-141593866D02*
X135564714Y-141784342D01*
X135564714Y-141784342D02*
X135612333Y-141879580D01*
X135612333Y-141879580D02*
X135659952Y-141927200D01*
X135659952Y-141927200D02*
X135755190Y-141974819D01*
X135755190Y-141974819D02*
X135850428Y-141974819D01*
X135850428Y-141974819D02*
X135945666Y-141927200D01*
X135945666Y-141927200D02*
X135993285Y-141879580D01*
X135993285Y-141879580D02*
X136040904Y-141784342D01*
X136040904Y-141784342D02*
X136088523Y-141593866D01*
X136088523Y-141593866D02*
X136088523Y-141355771D01*
X136088523Y-141355771D02*
X136040904Y-141165295D01*
X136040904Y-141165295D02*
X135993285Y-141070057D01*
X135993285Y-141070057D02*
X135945666Y-141022438D01*
X135945666Y-141022438D02*
X135850428Y-140974819D01*
X358401857Y-126174580D02*
X358449476Y-126222200D01*
X358449476Y-126222200D02*
X358592333Y-126269819D01*
X358592333Y-126269819D02*
X358687571Y-126269819D01*
X358687571Y-126269819D02*
X358830428Y-126222200D01*
X358830428Y-126222200D02*
X358925666Y-126126961D01*
X358925666Y-126126961D02*
X358973285Y-126031723D01*
X358973285Y-126031723D02*
X359020904Y-125841247D01*
X359020904Y-125841247D02*
X359020904Y-125698390D01*
X359020904Y-125698390D02*
X358973285Y-125507914D01*
X358973285Y-125507914D02*
X358925666Y-125412676D01*
X358925666Y-125412676D02*
X358830428Y-125317438D01*
X358830428Y-125317438D02*
X358687571Y-125269819D01*
X358687571Y-125269819D02*
X358592333Y-125269819D01*
X358592333Y-125269819D02*
X358449476Y-125317438D01*
X358449476Y-125317438D02*
X358401857Y-125365057D01*
X358068523Y-125269819D02*
X357449476Y-125269819D01*
X357449476Y-125269819D02*
X357782809Y-125650771D01*
X357782809Y-125650771D02*
X357639952Y-125650771D01*
X357639952Y-125650771D02*
X357544714Y-125698390D01*
X357544714Y-125698390D02*
X357497095Y-125746009D01*
X357497095Y-125746009D02*
X357449476Y-125841247D01*
X357449476Y-125841247D02*
X357449476Y-126079342D01*
X357449476Y-126079342D02*
X357497095Y-126174580D01*
X357497095Y-126174580D02*
X357544714Y-126222200D01*
X357544714Y-126222200D02*
X357639952Y-126269819D01*
X357639952Y-126269819D02*
X357925666Y-126269819D01*
X357925666Y-126269819D02*
X358020904Y-126222200D01*
X358020904Y-126222200D02*
X358068523Y-126174580D01*
X357068523Y-125365057D02*
X357020904Y-125317438D01*
X357020904Y-125317438D02*
X356925666Y-125269819D01*
X356925666Y-125269819D02*
X356687571Y-125269819D01*
X356687571Y-125269819D02*
X356592333Y-125317438D01*
X356592333Y-125317438D02*
X356544714Y-125365057D01*
X356544714Y-125365057D02*
X356497095Y-125460295D01*
X356497095Y-125460295D02*
X356497095Y-125555533D01*
X356497095Y-125555533D02*
X356544714Y-125698390D01*
X356544714Y-125698390D02*
X357116142Y-126269819D01*
X357116142Y-126269819D02*
X356497095Y-126269819D01*
X345955857Y-113939580D02*
X346003476Y-113987200D01*
X346003476Y-113987200D02*
X346146333Y-114034819D01*
X346146333Y-114034819D02*
X346241571Y-114034819D01*
X346241571Y-114034819D02*
X346384428Y-113987200D01*
X346384428Y-113987200D02*
X346479666Y-113891961D01*
X346479666Y-113891961D02*
X346527285Y-113796723D01*
X346527285Y-113796723D02*
X346574904Y-113606247D01*
X346574904Y-113606247D02*
X346574904Y-113463390D01*
X346574904Y-113463390D02*
X346527285Y-113272914D01*
X346527285Y-113272914D02*
X346479666Y-113177676D01*
X346479666Y-113177676D02*
X346384428Y-113082438D01*
X346384428Y-113082438D02*
X346241571Y-113034819D01*
X346241571Y-113034819D02*
X346146333Y-113034819D01*
X346146333Y-113034819D02*
X346003476Y-113082438D01*
X346003476Y-113082438D02*
X345955857Y-113130057D01*
X345622523Y-113034819D02*
X345003476Y-113034819D01*
X345003476Y-113034819D02*
X345336809Y-113415771D01*
X345336809Y-113415771D02*
X345193952Y-113415771D01*
X345193952Y-113415771D02*
X345098714Y-113463390D01*
X345098714Y-113463390D02*
X345051095Y-113511009D01*
X345051095Y-113511009D02*
X345003476Y-113606247D01*
X345003476Y-113606247D02*
X345003476Y-113844342D01*
X345003476Y-113844342D02*
X345051095Y-113939580D01*
X345051095Y-113939580D02*
X345098714Y-113987200D01*
X345098714Y-113987200D02*
X345193952Y-114034819D01*
X345193952Y-114034819D02*
X345479666Y-114034819D01*
X345479666Y-114034819D02*
X345574904Y-113987200D01*
X345574904Y-113987200D02*
X345622523Y-113939580D01*
X344670142Y-113034819D02*
X344051095Y-113034819D01*
X344051095Y-113034819D02*
X344384428Y-113415771D01*
X344384428Y-113415771D02*
X344241571Y-113415771D01*
X344241571Y-113415771D02*
X344146333Y-113463390D01*
X344146333Y-113463390D02*
X344098714Y-113511009D01*
X344098714Y-113511009D02*
X344051095Y-113606247D01*
X344051095Y-113606247D02*
X344051095Y-113844342D01*
X344051095Y-113844342D02*
X344098714Y-113939580D01*
X344098714Y-113939580D02*
X344146333Y-113987200D01*
X344146333Y-113987200D02*
X344241571Y-114034819D01*
X344241571Y-114034819D02*
X344527285Y-114034819D01*
X344527285Y-114034819D02*
X344622523Y-113987200D01*
X344622523Y-113987200D02*
X344670142Y-113939580D01*
X348642857Y-118159580D02*
X348690476Y-118207200D01*
X348690476Y-118207200D02*
X348833333Y-118254819D01*
X348833333Y-118254819D02*
X348928571Y-118254819D01*
X348928571Y-118254819D02*
X349071428Y-118207200D01*
X349071428Y-118207200D02*
X349166666Y-118111961D01*
X349166666Y-118111961D02*
X349214285Y-118016723D01*
X349214285Y-118016723D02*
X349261904Y-117826247D01*
X349261904Y-117826247D02*
X349261904Y-117683390D01*
X349261904Y-117683390D02*
X349214285Y-117492914D01*
X349214285Y-117492914D02*
X349166666Y-117397676D01*
X349166666Y-117397676D02*
X349071428Y-117302438D01*
X349071428Y-117302438D02*
X348928571Y-117254819D01*
X348928571Y-117254819D02*
X348833333Y-117254819D01*
X348833333Y-117254819D02*
X348690476Y-117302438D01*
X348690476Y-117302438D02*
X348642857Y-117350057D01*
X348309523Y-117254819D02*
X347690476Y-117254819D01*
X347690476Y-117254819D02*
X348023809Y-117635771D01*
X348023809Y-117635771D02*
X347880952Y-117635771D01*
X347880952Y-117635771D02*
X347785714Y-117683390D01*
X347785714Y-117683390D02*
X347738095Y-117731009D01*
X347738095Y-117731009D02*
X347690476Y-117826247D01*
X347690476Y-117826247D02*
X347690476Y-118064342D01*
X347690476Y-118064342D02*
X347738095Y-118159580D01*
X347738095Y-118159580D02*
X347785714Y-118207200D01*
X347785714Y-118207200D02*
X347880952Y-118254819D01*
X347880952Y-118254819D02*
X348166666Y-118254819D01*
X348166666Y-118254819D02*
X348261904Y-118207200D01*
X348261904Y-118207200D02*
X348309523Y-118159580D01*
X346833333Y-117588152D02*
X346833333Y-118254819D01*
X347071428Y-117207200D02*
X347309523Y-117921485D01*
X347309523Y-117921485D02*
X346690476Y-117921485D01*
X354591857Y-133878580D02*
X354639476Y-133926200D01*
X354639476Y-133926200D02*
X354782333Y-133973819D01*
X354782333Y-133973819D02*
X354877571Y-133973819D01*
X354877571Y-133973819D02*
X355020428Y-133926200D01*
X355020428Y-133926200D02*
X355115666Y-133830961D01*
X355115666Y-133830961D02*
X355163285Y-133735723D01*
X355163285Y-133735723D02*
X355210904Y-133545247D01*
X355210904Y-133545247D02*
X355210904Y-133402390D01*
X355210904Y-133402390D02*
X355163285Y-133211914D01*
X355163285Y-133211914D02*
X355115666Y-133116676D01*
X355115666Y-133116676D02*
X355020428Y-133021438D01*
X355020428Y-133021438D02*
X354877571Y-132973819D01*
X354877571Y-132973819D02*
X354782333Y-132973819D01*
X354782333Y-132973819D02*
X354639476Y-133021438D01*
X354639476Y-133021438D02*
X354591857Y-133069057D01*
X354258523Y-132973819D02*
X353639476Y-132973819D01*
X353639476Y-132973819D02*
X353972809Y-133354771D01*
X353972809Y-133354771D02*
X353829952Y-133354771D01*
X353829952Y-133354771D02*
X353734714Y-133402390D01*
X353734714Y-133402390D02*
X353687095Y-133450009D01*
X353687095Y-133450009D02*
X353639476Y-133545247D01*
X353639476Y-133545247D02*
X353639476Y-133783342D01*
X353639476Y-133783342D02*
X353687095Y-133878580D01*
X353687095Y-133878580D02*
X353734714Y-133926200D01*
X353734714Y-133926200D02*
X353829952Y-133973819D01*
X353829952Y-133973819D02*
X354115666Y-133973819D01*
X354115666Y-133973819D02*
X354210904Y-133926200D01*
X354210904Y-133926200D02*
X354258523Y-133878580D01*
X352734714Y-132973819D02*
X353210904Y-132973819D01*
X353210904Y-132973819D02*
X353258523Y-133450009D01*
X353258523Y-133450009D02*
X353210904Y-133402390D01*
X353210904Y-133402390D02*
X353115666Y-133354771D01*
X353115666Y-133354771D02*
X352877571Y-133354771D01*
X352877571Y-133354771D02*
X352782333Y-133402390D01*
X352782333Y-133402390D02*
X352734714Y-133450009D01*
X352734714Y-133450009D02*
X352687095Y-133545247D01*
X352687095Y-133545247D02*
X352687095Y-133783342D01*
X352687095Y-133783342D02*
X352734714Y-133878580D01*
X352734714Y-133878580D02*
X352782333Y-133926200D01*
X352782333Y-133926200D02*
X352877571Y-133973819D01*
X352877571Y-133973819D02*
X353115666Y-133973819D01*
X353115666Y-133973819D02*
X353210904Y-133926200D01*
X353210904Y-133926200D02*
X353258523Y-133878580D01*
X314459580Y-115457142D02*
X314507200Y-115409523D01*
X314507200Y-115409523D02*
X314554819Y-115266666D01*
X314554819Y-115266666D02*
X314554819Y-115171428D01*
X314554819Y-115171428D02*
X314507200Y-115028571D01*
X314507200Y-115028571D02*
X314411961Y-114933333D01*
X314411961Y-114933333D02*
X314316723Y-114885714D01*
X314316723Y-114885714D02*
X314126247Y-114838095D01*
X314126247Y-114838095D02*
X313983390Y-114838095D01*
X313983390Y-114838095D02*
X313792914Y-114885714D01*
X313792914Y-114885714D02*
X313697676Y-114933333D01*
X313697676Y-114933333D02*
X313602438Y-115028571D01*
X313602438Y-115028571D02*
X313554819Y-115171428D01*
X313554819Y-115171428D02*
X313554819Y-115266666D01*
X313554819Y-115266666D02*
X313602438Y-115409523D01*
X313602438Y-115409523D02*
X313650057Y-115457142D01*
X313554819Y-115790476D02*
X313554819Y-116409523D01*
X313554819Y-116409523D02*
X313935771Y-116076190D01*
X313935771Y-116076190D02*
X313935771Y-116219047D01*
X313935771Y-116219047D02*
X313983390Y-116314285D01*
X313983390Y-116314285D02*
X314031009Y-116361904D01*
X314031009Y-116361904D02*
X314126247Y-116409523D01*
X314126247Y-116409523D02*
X314364342Y-116409523D01*
X314364342Y-116409523D02*
X314459580Y-116361904D01*
X314459580Y-116361904D02*
X314507200Y-116314285D01*
X314507200Y-116314285D02*
X314554819Y-116219047D01*
X314554819Y-116219047D02*
X314554819Y-115933333D01*
X314554819Y-115933333D02*
X314507200Y-115838095D01*
X314507200Y-115838095D02*
X314459580Y-115790476D01*
X313554819Y-117266666D02*
X313554819Y-117076190D01*
X313554819Y-117076190D02*
X313602438Y-116980952D01*
X313602438Y-116980952D02*
X313650057Y-116933333D01*
X313650057Y-116933333D02*
X313792914Y-116838095D01*
X313792914Y-116838095D02*
X313983390Y-116790476D01*
X313983390Y-116790476D02*
X314364342Y-116790476D01*
X314364342Y-116790476D02*
X314459580Y-116838095D01*
X314459580Y-116838095D02*
X314507200Y-116885714D01*
X314507200Y-116885714D02*
X314554819Y-116980952D01*
X314554819Y-116980952D02*
X314554819Y-117171428D01*
X314554819Y-117171428D02*
X314507200Y-117266666D01*
X314507200Y-117266666D02*
X314459580Y-117314285D01*
X314459580Y-117314285D02*
X314364342Y-117361904D01*
X314364342Y-117361904D02*
X314126247Y-117361904D01*
X314126247Y-117361904D02*
X314031009Y-117314285D01*
X314031009Y-117314285D02*
X313983390Y-117266666D01*
X313983390Y-117266666D02*
X313935771Y-117171428D01*
X313935771Y-117171428D02*
X313935771Y-116980952D01*
X313935771Y-116980952D02*
X313983390Y-116885714D01*
X313983390Y-116885714D02*
X314031009Y-116838095D01*
X314031009Y-116838095D02*
X314126247Y-116790476D01*
X319359580Y-115257142D02*
X319407200Y-115209523D01*
X319407200Y-115209523D02*
X319454819Y-115066666D01*
X319454819Y-115066666D02*
X319454819Y-114971428D01*
X319454819Y-114971428D02*
X319407200Y-114828571D01*
X319407200Y-114828571D02*
X319311961Y-114733333D01*
X319311961Y-114733333D02*
X319216723Y-114685714D01*
X319216723Y-114685714D02*
X319026247Y-114638095D01*
X319026247Y-114638095D02*
X318883390Y-114638095D01*
X318883390Y-114638095D02*
X318692914Y-114685714D01*
X318692914Y-114685714D02*
X318597676Y-114733333D01*
X318597676Y-114733333D02*
X318502438Y-114828571D01*
X318502438Y-114828571D02*
X318454819Y-114971428D01*
X318454819Y-114971428D02*
X318454819Y-115066666D01*
X318454819Y-115066666D02*
X318502438Y-115209523D01*
X318502438Y-115209523D02*
X318550057Y-115257142D01*
X318454819Y-115590476D02*
X318454819Y-116209523D01*
X318454819Y-116209523D02*
X318835771Y-115876190D01*
X318835771Y-115876190D02*
X318835771Y-116019047D01*
X318835771Y-116019047D02*
X318883390Y-116114285D01*
X318883390Y-116114285D02*
X318931009Y-116161904D01*
X318931009Y-116161904D02*
X319026247Y-116209523D01*
X319026247Y-116209523D02*
X319264342Y-116209523D01*
X319264342Y-116209523D02*
X319359580Y-116161904D01*
X319359580Y-116161904D02*
X319407200Y-116114285D01*
X319407200Y-116114285D02*
X319454819Y-116019047D01*
X319454819Y-116019047D02*
X319454819Y-115733333D01*
X319454819Y-115733333D02*
X319407200Y-115638095D01*
X319407200Y-115638095D02*
X319359580Y-115590476D01*
X318454819Y-116542857D02*
X318454819Y-117209523D01*
X318454819Y-117209523D02*
X319454819Y-116780952D01*
X150883857Y-130619580D02*
X150931476Y-130667200D01*
X150931476Y-130667200D02*
X151074333Y-130714819D01*
X151074333Y-130714819D02*
X151169571Y-130714819D01*
X151169571Y-130714819D02*
X151312428Y-130667200D01*
X151312428Y-130667200D02*
X151407666Y-130571961D01*
X151407666Y-130571961D02*
X151455285Y-130476723D01*
X151455285Y-130476723D02*
X151502904Y-130286247D01*
X151502904Y-130286247D02*
X151502904Y-130143390D01*
X151502904Y-130143390D02*
X151455285Y-129952914D01*
X151455285Y-129952914D02*
X151407666Y-129857676D01*
X151407666Y-129857676D02*
X151312428Y-129762438D01*
X151312428Y-129762438D02*
X151169571Y-129714819D01*
X151169571Y-129714819D02*
X151074333Y-129714819D01*
X151074333Y-129714819D02*
X150931476Y-129762438D01*
X150931476Y-129762438D02*
X150883857Y-129810057D01*
X150550523Y-129714819D02*
X149931476Y-129714819D01*
X149931476Y-129714819D02*
X150264809Y-130095771D01*
X150264809Y-130095771D02*
X150121952Y-130095771D01*
X150121952Y-130095771D02*
X150026714Y-130143390D01*
X150026714Y-130143390D02*
X149979095Y-130191009D01*
X149979095Y-130191009D02*
X149931476Y-130286247D01*
X149931476Y-130286247D02*
X149931476Y-130524342D01*
X149931476Y-130524342D02*
X149979095Y-130619580D01*
X149979095Y-130619580D02*
X150026714Y-130667200D01*
X150026714Y-130667200D02*
X150121952Y-130714819D01*
X150121952Y-130714819D02*
X150407666Y-130714819D01*
X150407666Y-130714819D02*
X150502904Y-130667200D01*
X150502904Y-130667200D02*
X150550523Y-130619580D01*
X149360047Y-130143390D02*
X149455285Y-130095771D01*
X149455285Y-130095771D02*
X149502904Y-130048152D01*
X149502904Y-130048152D02*
X149550523Y-129952914D01*
X149550523Y-129952914D02*
X149550523Y-129905295D01*
X149550523Y-129905295D02*
X149502904Y-129810057D01*
X149502904Y-129810057D02*
X149455285Y-129762438D01*
X149455285Y-129762438D02*
X149360047Y-129714819D01*
X149360047Y-129714819D02*
X149169571Y-129714819D01*
X149169571Y-129714819D02*
X149074333Y-129762438D01*
X149074333Y-129762438D02*
X149026714Y-129810057D01*
X149026714Y-129810057D02*
X148979095Y-129905295D01*
X148979095Y-129905295D02*
X148979095Y-129952914D01*
X148979095Y-129952914D02*
X149026714Y-130048152D01*
X149026714Y-130048152D02*
X149074333Y-130095771D01*
X149074333Y-130095771D02*
X149169571Y-130143390D01*
X149169571Y-130143390D02*
X149360047Y-130143390D01*
X149360047Y-130143390D02*
X149455285Y-130191009D01*
X149455285Y-130191009D02*
X149502904Y-130238628D01*
X149502904Y-130238628D02*
X149550523Y-130333866D01*
X149550523Y-130333866D02*
X149550523Y-130524342D01*
X149550523Y-130524342D02*
X149502904Y-130619580D01*
X149502904Y-130619580D02*
X149455285Y-130667200D01*
X149455285Y-130667200D02*
X149360047Y-130714819D01*
X149360047Y-130714819D02*
X149169571Y-130714819D01*
X149169571Y-130714819D02*
X149074333Y-130667200D01*
X149074333Y-130667200D02*
X149026714Y-130619580D01*
X149026714Y-130619580D02*
X148979095Y-130524342D01*
X148979095Y-130524342D02*
X148979095Y-130333866D01*
X148979095Y-130333866D02*
X149026714Y-130238628D01*
X149026714Y-130238628D02*
X149074333Y-130191009D01*
X149074333Y-130191009D02*
X149169571Y-130143390D01*
X344558857Y-123035580D02*
X344606476Y-123083200D01*
X344606476Y-123083200D02*
X344749333Y-123130819D01*
X344749333Y-123130819D02*
X344844571Y-123130819D01*
X344844571Y-123130819D02*
X344987428Y-123083200D01*
X344987428Y-123083200D02*
X345082666Y-122987961D01*
X345082666Y-122987961D02*
X345130285Y-122892723D01*
X345130285Y-122892723D02*
X345177904Y-122702247D01*
X345177904Y-122702247D02*
X345177904Y-122559390D01*
X345177904Y-122559390D02*
X345130285Y-122368914D01*
X345130285Y-122368914D02*
X345082666Y-122273676D01*
X345082666Y-122273676D02*
X344987428Y-122178438D01*
X344987428Y-122178438D02*
X344844571Y-122130819D01*
X344844571Y-122130819D02*
X344749333Y-122130819D01*
X344749333Y-122130819D02*
X344606476Y-122178438D01*
X344606476Y-122178438D02*
X344558857Y-122226057D01*
X343701714Y-122464152D02*
X343701714Y-123130819D01*
X343939809Y-122083200D02*
X344177904Y-122797485D01*
X344177904Y-122797485D02*
X343558857Y-122797485D01*
X343225523Y-122226057D02*
X343177904Y-122178438D01*
X343177904Y-122178438D02*
X343082666Y-122130819D01*
X343082666Y-122130819D02*
X342844571Y-122130819D01*
X342844571Y-122130819D02*
X342749333Y-122178438D01*
X342749333Y-122178438D02*
X342701714Y-122226057D01*
X342701714Y-122226057D02*
X342654095Y-122321295D01*
X342654095Y-122321295D02*
X342654095Y-122416533D01*
X342654095Y-122416533D02*
X342701714Y-122559390D01*
X342701714Y-122559390D02*
X343273142Y-123130819D01*
X343273142Y-123130819D02*
X342654095Y-123130819D01*
X79763857Y-90190580D02*
X79811476Y-90238200D01*
X79811476Y-90238200D02*
X79954333Y-90285819D01*
X79954333Y-90285819D02*
X80049571Y-90285819D01*
X80049571Y-90285819D02*
X80192428Y-90238200D01*
X80192428Y-90238200D02*
X80287666Y-90142961D01*
X80287666Y-90142961D02*
X80335285Y-90047723D01*
X80335285Y-90047723D02*
X80382904Y-89857247D01*
X80382904Y-89857247D02*
X80382904Y-89714390D01*
X80382904Y-89714390D02*
X80335285Y-89523914D01*
X80335285Y-89523914D02*
X80287666Y-89428676D01*
X80287666Y-89428676D02*
X80192428Y-89333438D01*
X80192428Y-89333438D02*
X80049571Y-89285819D01*
X80049571Y-89285819D02*
X79954333Y-89285819D01*
X79954333Y-89285819D02*
X79811476Y-89333438D01*
X79811476Y-89333438D02*
X79763857Y-89381057D01*
X78906714Y-89619152D02*
X78906714Y-90285819D01*
X79144809Y-89238200D02*
X79382904Y-89952485D01*
X79382904Y-89952485D02*
X78763857Y-89952485D01*
X78478142Y-89285819D02*
X77859095Y-89285819D01*
X77859095Y-89285819D02*
X78192428Y-89666771D01*
X78192428Y-89666771D02*
X78049571Y-89666771D01*
X78049571Y-89666771D02*
X77954333Y-89714390D01*
X77954333Y-89714390D02*
X77906714Y-89762009D01*
X77906714Y-89762009D02*
X77859095Y-89857247D01*
X77859095Y-89857247D02*
X77859095Y-90095342D01*
X77859095Y-90095342D02*
X77906714Y-90190580D01*
X77906714Y-90190580D02*
X77954333Y-90238200D01*
X77954333Y-90238200D02*
X78049571Y-90285819D01*
X78049571Y-90285819D02*
X78335285Y-90285819D01*
X78335285Y-90285819D02*
X78430523Y-90238200D01*
X78430523Y-90238200D02*
X78478142Y-90190580D01*
X76220580Y-84701142D02*
X76268200Y-84653523D01*
X76268200Y-84653523D02*
X76315819Y-84510666D01*
X76315819Y-84510666D02*
X76315819Y-84415428D01*
X76315819Y-84415428D02*
X76268200Y-84272571D01*
X76268200Y-84272571D02*
X76172961Y-84177333D01*
X76172961Y-84177333D02*
X76077723Y-84129714D01*
X76077723Y-84129714D02*
X75887247Y-84082095D01*
X75887247Y-84082095D02*
X75744390Y-84082095D01*
X75744390Y-84082095D02*
X75553914Y-84129714D01*
X75553914Y-84129714D02*
X75458676Y-84177333D01*
X75458676Y-84177333D02*
X75363438Y-84272571D01*
X75363438Y-84272571D02*
X75315819Y-84415428D01*
X75315819Y-84415428D02*
X75315819Y-84510666D01*
X75315819Y-84510666D02*
X75363438Y-84653523D01*
X75363438Y-84653523D02*
X75411057Y-84701142D01*
X75649152Y-85558285D02*
X76315819Y-85558285D01*
X75268200Y-85320190D02*
X75982485Y-85082095D01*
X75982485Y-85082095D02*
X75982485Y-85701142D01*
X75649152Y-86510666D02*
X76315819Y-86510666D01*
X75268200Y-86272571D02*
X75982485Y-86034476D01*
X75982485Y-86034476D02*
X75982485Y-86653523D01*
X83642857Y-85159580D02*
X83690476Y-85207200D01*
X83690476Y-85207200D02*
X83833333Y-85254819D01*
X83833333Y-85254819D02*
X83928571Y-85254819D01*
X83928571Y-85254819D02*
X84071428Y-85207200D01*
X84071428Y-85207200D02*
X84166666Y-85111961D01*
X84166666Y-85111961D02*
X84214285Y-85016723D01*
X84214285Y-85016723D02*
X84261904Y-84826247D01*
X84261904Y-84826247D02*
X84261904Y-84683390D01*
X84261904Y-84683390D02*
X84214285Y-84492914D01*
X84214285Y-84492914D02*
X84166666Y-84397676D01*
X84166666Y-84397676D02*
X84071428Y-84302438D01*
X84071428Y-84302438D02*
X83928571Y-84254819D01*
X83928571Y-84254819D02*
X83833333Y-84254819D01*
X83833333Y-84254819D02*
X83690476Y-84302438D01*
X83690476Y-84302438D02*
X83642857Y-84350057D01*
X82785714Y-84588152D02*
X82785714Y-85254819D01*
X83023809Y-84207200D02*
X83261904Y-84921485D01*
X83261904Y-84921485D02*
X82642857Y-84921485D01*
X81785714Y-84254819D02*
X82261904Y-84254819D01*
X82261904Y-84254819D02*
X82309523Y-84731009D01*
X82309523Y-84731009D02*
X82261904Y-84683390D01*
X82261904Y-84683390D02*
X82166666Y-84635771D01*
X82166666Y-84635771D02*
X81928571Y-84635771D01*
X81928571Y-84635771D02*
X81833333Y-84683390D01*
X81833333Y-84683390D02*
X81785714Y-84731009D01*
X81785714Y-84731009D02*
X81738095Y-84826247D01*
X81738095Y-84826247D02*
X81738095Y-85064342D01*
X81738095Y-85064342D02*
X81785714Y-85159580D01*
X81785714Y-85159580D02*
X81833333Y-85207200D01*
X81833333Y-85207200D02*
X81928571Y-85254819D01*
X81928571Y-85254819D02*
X82166666Y-85254819D01*
X82166666Y-85254819D02*
X82261904Y-85207200D01*
X82261904Y-85207200D02*
X82309523Y-85159580D01*
X77042857Y-115559580D02*
X77090476Y-115607200D01*
X77090476Y-115607200D02*
X77233333Y-115654819D01*
X77233333Y-115654819D02*
X77328571Y-115654819D01*
X77328571Y-115654819D02*
X77471428Y-115607200D01*
X77471428Y-115607200D02*
X77566666Y-115511961D01*
X77566666Y-115511961D02*
X77614285Y-115416723D01*
X77614285Y-115416723D02*
X77661904Y-115226247D01*
X77661904Y-115226247D02*
X77661904Y-115083390D01*
X77661904Y-115083390D02*
X77614285Y-114892914D01*
X77614285Y-114892914D02*
X77566666Y-114797676D01*
X77566666Y-114797676D02*
X77471428Y-114702438D01*
X77471428Y-114702438D02*
X77328571Y-114654819D01*
X77328571Y-114654819D02*
X77233333Y-114654819D01*
X77233333Y-114654819D02*
X77090476Y-114702438D01*
X77090476Y-114702438D02*
X77042857Y-114750057D01*
X76185714Y-114988152D02*
X76185714Y-115654819D01*
X76423809Y-114607200D02*
X76661904Y-115321485D01*
X76661904Y-115321485D02*
X76042857Y-115321485D01*
X75233333Y-114654819D02*
X75423809Y-114654819D01*
X75423809Y-114654819D02*
X75519047Y-114702438D01*
X75519047Y-114702438D02*
X75566666Y-114750057D01*
X75566666Y-114750057D02*
X75661904Y-114892914D01*
X75661904Y-114892914D02*
X75709523Y-115083390D01*
X75709523Y-115083390D02*
X75709523Y-115464342D01*
X75709523Y-115464342D02*
X75661904Y-115559580D01*
X75661904Y-115559580D02*
X75614285Y-115607200D01*
X75614285Y-115607200D02*
X75519047Y-115654819D01*
X75519047Y-115654819D02*
X75328571Y-115654819D01*
X75328571Y-115654819D02*
X75233333Y-115607200D01*
X75233333Y-115607200D02*
X75185714Y-115559580D01*
X75185714Y-115559580D02*
X75138095Y-115464342D01*
X75138095Y-115464342D02*
X75138095Y-115226247D01*
X75138095Y-115226247D02*
X75185714Y-115131009D01*
X75185714Y-115131009D02*
X75233333Y-115083390D01*
X75233333Y-115083390D02*
X75328571Y-115035771D01*
X75328571Y-115035771D02*
X75519047Y-115035771D01*
X75519047Y-115035771D02*
X75614285Y-115083390D01*
X75614285Y-115083390D02*
X75661904Y-115131009D01*
X75661904Y-115131009D02*
X75709523Y-115226247D01*
X75942857Y-82459580D02*
X75990476Y-82507200D01*
X75990476Y-82507200D02*
X76133333Y-82554819D01*
X76133333Y-82554819D02*
X76228571Y-82554819D01*
X76228571Y-82554819D02*
X76371428Y-82507200D01*
X76371428Y-82507200D02*
X76466666Y-82411961D01*
X76466666Y-82411961D02*
X76514285Y-82316723D01*
X76514285Y-82316723D02*
X76561904Y-82126247D01*
X76561904Y-82126247D02*
X76561904Y-81983390D01*
X76561904Y-81983390D02*
X76514285Y-81792914D01*
X76514285Y-81792914D02*
X76466666Y-81697676D01*
X76466666Y-81697676D02*
X76371428Y-81602438D01*
X76371428Y-81602438D02*
X76228571Y-81554819D01*
X76228571Y-81554819D02*
X76133333Y-81554819D01*
X76133333Y-81554819D02*
X75990476Y-81602438D01*
X75990476Y-81602438D02*
X75942857Y-81650057D01*
X75085714Y-81888152D02*
X75085714Y-82554819D01*
X75323809Y-81507200D02*
X75561904Y-82221485D01*
X75561904Y-82221485D02*
X74942857Y-82221485D01*
X74419047Y-81983390D02*
X74514285Y-81935771D01*
X74514285Y-81935771D02*
X74561904Y-81888152D01*
X74561904Y-81888152D02*
X74609523Y-81792914D01*
X74609523Y-81792914D02*
X74609523Y-81745295D01*
X74609523Y-81745295D02*
X74561904Y-81650057D01*
X74561904Y-81650057D02*
X74514285Y-81602438D01*
X74514285Y-81602438D02*
X74419047Y-81554819D01*
X74419047Y-81554819D02*
X74228571Y-81554819D01*
X74228571Y-81554819D02*
X74133333Y-81602438D01*
X74133333Y-81602438D02*
X74085714Y-81650057D01*
X74085714Y-81650057D02*
X74038095Y-81745295D01*
X74038095Y-81745295D02*
X74038095Y-81792914D01*
X74038095Y-81792914D02*
X74085714Y-81888152D01*
X74085714Y-81888152D02*
X74133333Y-81935771D01*
X74133333Y-81935771D02*
X74228571Y-81983390D01*
X74228571Y-81983390D02*
X74419047Y-81983390D01*
X74419047Y-81983390D02*
X74514285Y-82031009D01*
X74514285Y-82031009D02*
X74561904Y-82078628D01*
X74561904Y-82078628D02*
X74609523Y-82173866D01*
X74609523Y-82173866D02*
X74609523Y-82364342D01*
X74609523Y-82364342D02*
X74561904Y-82459580D01*
X74561904Y-82459580D02*
X74514285Y-82507200D01*
X74514285Y-82507200D02*
X74419047Y-82554819D01*
X74419047Y-82554819D02*
X74228571Y-82554819D01*
X74228571Y-82554819D02*
X74133333Y-82507200D01*
X74133333Y-82507200D02*
X74085714Y-82459580D01*
X74085714Y-82459580D02*
X74038095Y-82364342D01*
X74038095Y-82364342D02*
X74038095Y-82173866D01*
X74038095Y-82173866D02*
X74085714Y-82078628D01*
X74085714Y-82078628D02*
X74133333Y-82031009D01*
X74133333Y-82031009D02*
X74228571Y-81983390D01*
X350042857Y-109159580D02*
X350090476Y-109207200D01*
X350090476Y-109207200D02*
X350233333Y-109254819D01*
X350233333Y-109254819D02*
X350328571Y-109254819D01*
X350328571Y-109254819D02*
X350471428Y-109207200D01*
X350471428Y-109207200D02*
X350566666Y-109111961D01*
X350566666Y-109111961D02*
X350614285Y-109016723D01*
X350614285Y-109016723D02*
X350661904Y-108826247D01*
X350661904Y-108826247D02*
X350661904Y-108683390D01*
X350661904Y-108683390D02*
X350614285Y-108492914D01*
X350614285Y-108492914D02*
X350566666Y-108397676D01*
X350566666Y-108397676D02*
X350471428Y-108302438D01*
X350471428Y-108302438D02*
X350328571Y-108254819D01*
X350328571Y-108254819D02*
X350233333Y-108254819D01*
X350233333Y-108254819D02*
X350090476Y-108302438D01*
X350090476Y-108302438D02*
X350042857Y-108350057D01*
X349138095Y-108254819D02*
X349614285Y-108254819D01*
X349614285Y-108254819D02*
X349661904Y-108731009D01*
X349661904Y-108731009D02*
X349614285Y-108683390D01*
X349614285Y-108683390D02*
X349519047Y-108635771D01*
X349519047Y-108635771D02*
X349280952Y-108635771D01*
X349280952Y-108635771D02*
X349185714Y-108683390D01*
X349185714Y-108683390D02*
X349138095Y-108731009D01*
X349138095Y-108731009D02*
X349090476Y-108826247D01*
X349090476Y-108826247D02*
X349090476Y-109064342D01*
X349090476Y-109064342D02*
X349138095Y-109159580D01*
X349138095Y-109159580D02*
X349185714Y-109207200D01*
X349185714Y-109207200D02*
X349280952Y-109254819D01*
X349280952Y-109254819D02*
X349519047Y-109254819D01*
X349519047Y-109254819D02*
X349614285Y-109207200D01*
X349614285Y-109207200D02*
X349661904Y-109159580D01*
X348138095Y-109254819D02*
X348709523Y-109254819D01*
X348423809Y-109254819D02*
X348423809Y-108254819D01*
X348423809Y-108254819D02*
X348519047Y-108397676D01*
X348519047Y-108397676D02*
X348614285Y-108492914D01*
X348614285Y-108492914D02*
X348709523Y-108540533D01*
X310903857Y-119908580D02*
X310951476Y-119956200D01*
X310951476Y-119956200D02*
X311094333Y-120003819D01*
X311094333Y-120003819D02*
X311189571Y-120003819D01*
X311189571Y-120003819D02*
X311332428Y-119956200D01*
X311332428Y-119956200D02*
X311427666Y-119860961D01*
X311427666Y-119860961D02*
X311475285Y-119765723D01*
X311475285Y-119765723D02*
X311522904Y-119575247D01*
X311522904Y-119575247D02*
X311522904Y-119432390D01*
X311522904Y-119432390D02*
X311475285Y-119241914D01*
X311475285Y-119241914D02*
X311427666Y-119146676D01*
X311427666Y-119146676D02*
X311332428Y-119051438D01*
X311332428Y-119051438D02*
X311189571Y-119003819D01*
X311189571Y-119003819D02*
X311094333Y-119003819D01*
X311094333Y-119003819D02*
X310951476Y-119051438D01*
X310951476Y-119051438D02*
X310903857Y-119099057D01*
X309999095Y-119003819D02*
X310475285Y-119003819D01*
X310475285Y-119003819D02*
X310522904Y-119480009D01*
X310522904Y-119480009D02*
X310475285Y-119432390D01*
X310475285Y-119432390D02*
X310380047Y-119384771D01*
X310380047Y-119384771D02*
X310141952Y-119384771D01*
X310141952Y-119384771D02*
X310046714Y-119432390D01*
X310046714Y-119432390D02*
X309999095Y-119480009D01*
X309999095Y-119480009D02*
X309951476Y-119575247D01*
X309951476Y-119575247D02*
X309951476Y-119813342D01*
X309951476Y-119813342D02*
X309999095Y-119908580D01*
X309999095Y-119908580D02*
X310046714Y-119956200D01*
X310046714Y-119956200D02*
X310141952Y-120003819D01*
X310141952Y-120003819D02*
X310380047Y-120003819D01*
X310380047Y-120003819D02*
X310475285Y-119956200D01*
X310475285Y-119956200D02*
X310522904Y-119908580D01*
X309570523Y-119099057D02*
X309522904Y-119051438D01*
X309522904Y-119051438D02*
X309427666Y-119003819D01*
X309427666Y-119003819D02*
X309189571Y-119003819D01*
X309189571Y-119003819D02*
X309094333Y-119051438D01*
X309094333Y-119051438D02*
X309046714Y-119099057D01*
X309046714Y-119099057D02*
X308999095Y-119194295D01*
X308999095Y-119194295D02*
X308999095Y-119289533D01*
X308999095Y-119289533D02*
X309046714Y-119432390D01*
X309046714Y-119432390D02*
X309618142Y-120003819D01*
X309618142Y-120003819D02*
X308999095Y-120003819D01*
X77042857Y-112359580D02*
X77090476Y-112407200D01*
X77090476Y-112407200D02*
X77233333Y-112454819D01*
X77233333Y-112454819D02*
X77328571Y-112454819D01*
X77328571Y-112454819D02*
X77471428Y-112407200D01*
X77471428Y-112407200D02*
X77566666Y-112311961D01*
X77566666Y-112311961D02*
X77614285Y-112216723D01*
X77614285Y-112216723D02*
X77661904Y-112026247D01*
X77661904Y-112026247D02*
X77661904Y-111883390D01*
X77661904Y-111883390D02*
X77614285Y-111692914D01*
X77614285Y-111692914D02*
X77566666Y-111597676D01*
X77566666Y-111597676D02*
X77471428Y-111502438D01*
X77471428Y-111502438D02*
X77328571Y-111454819D01*
X77328571Y-111454819D02*
X77233333Y-111454819D01*
X77233333Y-111454819D02*
X77090476Y-111502438D01*
X77090476Y-111502438D02*
X77042857Y-111550057D01*
X76138095Y-111454819D02*
X76614285Y-111454819D01*
X76614285Y-111454819D02*
X76661904Y-111931009D01*
X76661904Y-111931009D02*
X76614285Y-111883390D01*
X76614285Y-111883390D02*
X76519047Y-111835771D01*
X76519047Y-111835771D02*
X76280952Y-111835771D01*
X76280952Y-111835771D02*
X76185714Y-111883390D01*
X76185714Y-111883390D02*
X76138095Y-111931009D01*
X76138095Y-111931009D02*
X76090476Y-112026247D01*
X76090476Y-112026247D02*
X76090476Y-112264342D01*
X76090476Y-112264342D02*
X76138095Y-112359580D01*
X76138095Y-112359580D02*
X76185714Y-112407200D01*
X76185714Y-112407200D02*
X76280952Y-112454819D01*
X76280952Y-112454819D02*
X76519047Y-112454819D01*
X76519047Y-112454819D02*
X76614285Y-112407200D01*
X76614285Y-112407200D02*
X76661904Y-112359580D01*
X75757142Y-111454819D02*
X75138095Y-111454819D01*
X75138095Y-111454819D02*
X75471428Y-111835771D01*
X75471428Y-111835771D02*
X75328571Y-111835771D01*
X75328571Y-111835771D02*
X75233333Y-111883390D01*
X75233333Y-111883390D02*
X75185714Y-111931009D01*
X75185714Y-111931009D02*
X75138095Y-112026247D01*
X75138095Y-112026247D02*
X75138095Y-112264342D01*
X75138095Y-112264342D02*
X75185714Y-112359580D01*
X75185714Y-112359580D02*
X75233333Y-112407200D01*
X75233333Y-112407200D02*
X75328571Y-112454819D01*
X75328571Y-112454819D02*
X75614285Y-112454819D01*
X75614285Y-112454819D02*
X75709523Y-112407200D01*
X75709523Y-112407200D02*
X75757142Y-112359580D01*
X77152580Y-65397142D02*
X77200200Y-65349523D01*
X77200200Y-65349523D02*
X77247819Y-65206666D01*
X77247819Y-65206666D02*
X77247819Y-65111428D01*
X77247819Y-65111428D02*
X77200200Y-64968571D01*
X77200200Y-64968571D02*
X77104961Y-64873333D01*
X77104961Y-64873333D02*
X77009723Y-64825714D01*
X77009723Y-64825714D02*
X76819247Y-64778095D01*
X76819247Y-64778095D02*
X76676390Y-64778095D01*
X76676390Y-64778095D02*
X76485914Y-64825714D01*
X76485914Y-64825714D02*
X76390676Y-64873333D01*
X76390676Y-64873333D02*
X76295438Y-64968571D01*
X76295438Y-64968571D02*
X76247819Y-65111428D01*
X76247819Y-65111428D02*
X76247819Y-65206666D01*
X76247819Y-65206666D02*
X76295438Y-65349523D01*
X76295438Y-65349523D02*
X76343057Y-65397142D01*
X76247819Y-66301904D02*
X76247819Y-65825714D01*
X76247819Y-65825714D02*
X76724009Y-65778095D01*
X76724009Y-65778095D02*
X76676390Y-65825714D01*
X76676390Y-65825714D02*
X76628771Y-65920952D01*
X76628771Y-65920952D02*
X76628771Y-66159047D01*
X76628771Y-66159047D02*
X76676390Y-66254285D01*
X76676390Y-66254285D02*
X76724009Y-66301904D01*
X76724009Y-66301904D02*
X76819247Y-66349523D01*
X76819247Y-66349523D02*
X77057342Y-66349523D01*
X77057342Y-66349523D02*
X77152580Y-66301904D01*
X77152580Y-66301904D02*
X77200200Y-66254285D01*
X77200200Y-66254285D02*
X77247819Y-66159047D01*
X77247819Y-66159047D02*
X77247819Y-65920952D01*
X77247819Y-65920952D02*
X77200200Y-65825714D01*
X77200200Y-65825714D02*
X77152580Y-65778095D01*
X76581152Y-67206666D02*
X77247819Y-67206666D01*
X76200200Y-66968571D02*
X76914485Y-66730476D01*
X76914485Y-66730476D02*
X76914485Y-67349523D01*
X74025580Y-99814142D02*
X74073200Y-99766523D01*
X74073200Y-99766523D02*
X74120819Y-99623666D01*
X74120819Y-99623666D02*
X74120819Y-99528428D01*
X74120819Y-99528428D02*
X74073200Y-99385571D01*
X74073200Y-99385571D02*
X73977961Y-99290333D01*
X73977961Y-99290333D02*
X73882723Y-99242714D01*
X73882723Y-99242714D02*
X73692247Y-99195095D01*
X73692247Y-99195095D02*
X73549390Y-99195095D01*
X73549390Y-99195095D02*
X73358914Y-99242714D01*
X73358914Y-99242714D02*
X73263676Y-99290333D01*
X73263676Y-99290333D02*
X73168438Y-99385571D01*
X73168438Y-99385571D02*
X73120819Y-99528428D01*
X73120819Y-99528428D02*
X73120819Y-99623666D01*
X73120819Y-99623666D02*
X73168438Y-99766523D01*
X73168438Y-99766523D02*
X73216057Y-99814142D01*
X73120819Y-100718904D02*
X73120819Y-100242714D01*
X73120819Y-100242714D02*
X73597009Y-100195095D01*
X73597009Y-100195095D02*
X73549390Y-100242714D01*
X73549390Y-100242714D02*
X73501771Y-100337952D01*
X73501771Y-100337952D02*
X73501771Y-100576047D01*
X73501771Y-100576047D02*
X73549390Y-100671285D01*
X73549390Y-100671285D02*
X73597009Y-100718904D01*
X73597009Y-100718904D02*
X73692247Y-100766523D01*
X73692247Y-100766523D02*
X73930342Y-100766523D01*
X73930342Y-100766523D02*
X74025580Y-100718904D01*
X74025580Y-100718904D02*
X74073200Y-100671285D01*
X74073200Y-100671285D02*
X74120819Y-100576047D01*
X74120819Y-100576047D02*
X74120819Y-100337952D01*
X74120819Y-100337952D02*
X74073200Y-100242714D01*
X74073200Y-100242714D02*
X74025580Y-100195095D01*
X73120819Y-101671285D02*
X73120819Y-101195095D01*
X73120819Y-101195095D02*
X73597009Y-101147476D01*
X73597009Y-101147476D02*
X73549390Y-101195095D01*
X73549390Y-101195095D02*
X73501771Y-101290333D01*
X73501771Y-101290333D02*
X73501771Y-101528428D01*
X73501771Y-101528428D02*
X73549390Y-101623666D01*
X73549390Y-101623666D02*
X73597009Y-101671285D01*
X73597009Y-101671285D02*
X73692247Y-101718904D01*
X73692247Y-101718904D02*
X73930342Y-101718904D01*
X73930342Y-101718904D02*
X74025580Y-101671285D01*
X74025580Y-101671285D02*
X74073200Y-101623666D01*
X74073200Y-101623666D02*
X74120819Y-101528428D01*
X74120819Y-101528428D02*
X74120819Y-101290333D01*
X74120819Y-101290333D02*
X74073200Y-101195095D01*
X74073200Y-101195095D02*
X74025580Y-101147476D01*
X78842857Y-97059580D02*
X78890476Y-97107200D01*
X78890476Y-97107200D02*
X79033333Y-97154819D01*
X79033333Y-97154819D02*
X79128571Y-97154819D01*
X79128571Y-97154819D02*
X79271428Y-97107200D01*
X79271428Y-97107200D02*
X79366666Y-97011961D01*
X79366666Y-97011961D02*
X79414285Y-96916723D01*
X79414285Y-96916723D02*
X79461904Y-96726247D01*
X79461904Y-96726247D02*
X79461904Y-96583390D01*
X79461904Y-96583390D02*
X79414285Y-96392914D01*
X79414285Y-96392914D02*
X79366666Y-96297676D01*
X79366666Y-96297676D02*
X79271428Y-96202438D01*
X79271428Y-96202438D02*
X79128571Y-96154819D01*
X79128571Y-96154819D02*
X79033333Y-96154819D01*
X79033333Y-96154819D02*
X78890476Y-96202438D01*
X78890476Y-96202438D02*
X78842857Y-96250057D01*
X77938095Y-96154819D02*
X78414285Y-96154819D01*
X78414285Y-96154819D02*
X78461904Y-96631009D01*
X78461904Y-96631009D02*
X78414285Y-96583390D01*
X78414285Y-96583390D02*
X78319047Y-96535771D01*
X78319047Y-96535771D02*
X78080952Y-96535771D01*
X78080952Y-96535771D02*
X77985714Y-96583390D01*
X77985714Y-96583390D02*
X77938095Y-96631009D01*
X77938095Y-96631009D02*
X77890476Y-96726247D01*
X77890476Y-96726247D02*
X77890476Y-96964342D01*
X77890476Y-96964342D02*
X77938095Y-97059580D01*
X77938095Y-97059580D02*
X77985714Y-97107200D01*
X77985714Y-97107200D02*
X78080952Y-97154819D01*
X78080952Y-97154819D02*
X78319047Y-97154819D01*
X78319047Y-97154819D02*
X78414285Y-97107200D01*
X78414285Y-97107200D02*
X78461904Y-97059580D01*
X77414285Y-97154819D02*
X77223809Y-97154819D01*
X77223809Y-97154819D02*
X77128571Y-97107200D01*
X77128571Y-97107200D02*
X77080952Y-97059580D01*
X77080952Y-97059580D02*
X76985714Y-96916723D01*
X76985714Y-96916723D02*
X76938095Y-96726247D01*
X76938095Y-96726247D02*
X76938095Y-96345295D01*
X76938095Y-96345295D02*
X76985714Y-96250057D01*
X76985714Y-96250057D02*
X77033333Y-96202438D01*
X77033333Y-96202438D02*
X77128571Y-96154819D01*
X77128571Y-96154819D02*
X77319047Y-96154819D01*
X77319047Y-96154819D02*
X77414285Y-96202438D01*
X77414285Y-96202438D02*
X77461904Y-96250057D01*
X77461904Y-96250057D02*
X77509523Y-96345295D01*
X77509523Y-96345295D02*
X77509523Y-96583390D01*
X77509523Y-96583390D02*
X77461904Y-96678628D01*
X77461904Y-96678628D02*
X77414285Y-96726247D01*
X77414285Y-96726247D02*
X77319047Y-96773866D01*
X77319047Y-96773866D02*
X77128571Y-96773866D01*
X77128571Y-96773866D02*
X77033333Y-96726247D01*
X77033333Y-96726247D02*
X76985714Y-96678628D01*
X76985714Y-96678628D02*
X76938095Y-96583390D01*
X356877857Y-68806580D02*
X356925476Y-68854200D01*
X356925476Y-68854200D02*
X357068333Y-68901819D01*
X357068333Y-68901819D02*
X357163571Y-68901819D01*
X357163571Y-68901819D02*
X357306428Y-68854200D01*
X357306428Y-68854200D02*
X357401666Y-68758961D01*
X357401666Y-68758961D02*
X357449285Y-68663723D01*
X357449285Y-68663723D02*
X357496904Y-68473247D01*
X357496904Y-68473247D02*
X357496904Y-68330390D01*
X357496904Y-68330390D02*
X357449285Y-68139914D01*
X357449285Y-68139914D02*
X357401666Y-68044676D01*
X357401666Y-68044676D02*
X357306428Y-67949438D01*
X357306428Y-67949438D02*
X357163571Y-67901819D01*
X357163571Y-67901819D02*
X357068333Y-67901819D01*
X357068333Y-67901819D02*
X356925476Y-67949438D01*
X356925476Y-67949438D02*
X356877857Y-67997057D01*
X356020714Y-67901819D02*
X356211190Y-67901819D01*
X356211190Y-67901819D02*
X356306428Y-67949438D01*
X356306428Y-67949438D02*
X356354047Y-67997057D01*
X356354047Y-67997057D02*
X356449285Y-68139914D01*
X356449285Y-68139914D02*
X356496904Y-68330390D01*
X356496904Y-68330390D02*
X356496904Y-68711342D01*
X356496904Y-68711342D02*
X356449285Y-68806580D01*
X356449285Y-68806580D02*
X356401666Y-68854200D01*
X356401666Y-68854200D02*
X356306428Y-68901819D01*
X356306428Y-68901819D02*
X356115952Y-68901819D01*
X356115952Y-68901819D02*
X356020714Y-68854200D01*
X356020714Y-68854200D02*
X355973095Y-68806580D01*
X355973095Y-68806580D02*
X355925476Y-68711342D01*
X355925476Y-68711342D02*
X355925476Y-68473247D01*
X355925476Y-68473247D02*
X355973095Y-68378009D01*
X355973095Y-68378009D02*
X356020714Y-68330390D01*
X356020714Y-68330390D02*
X356115952Y-68282771D01*
X356115952Y-68282771D02*
X356306428Y-68282771D01*
X356306428Y-68282771D02*
X356401666Y-68330390D01*
X356401666Y-68330390D02*
X356449285Y-68378009D01*
X356449285Y-68378009D02*
X356496904Y-68473247D01*
X355544523Y-67997057D02*
X355496904Y-67949438D01*
X355496904Y-67949438D02*
X355401666Y-67901819D01*
X355401666Y-67901819D02*
X355163571Y-67901819D01*
X355163571Y-67901819D02*
X355068333Y-67949438D01*
X355068333Y-67949438D02*
X355020714Y-67997057D01*
X355020714Y-67997057D02*
X354973095Y-68092295D01*
X354973095Y-68092295D02*
X354973095Y-68187533D01*
X354973095Y-68187533D02*
X355020714Y-68330390D01*
X355020714Y-68330390D02*
X355592142Y-68901819D01*
X355592142Y-68901819D02*
X354973095Y-68901819D01*
X82280580Y-87876142D02*
X82328200Y-87828523D01*
X82328200Y-87828523D02*
X82375819Y-87685666D01*
X82375819Y-87685666D02*
X82375819Y-87590428D01*
X82375819Y-87590428D02*
X82328200Y-87447571D01*
X82328200Y-87447571D02*
X82232961Y-87352333D01*
X82232961Y-87352333D02*
X82137723Y-87304714D01*
X82137723Y-87304714D02*
X81947247Y-87257095D01*
X81947247Y-87257095D02*
X81804390Y-87257095D01*
X81804390Y-87257095D02*
X81613914Y-87304714D01*
X81613914Y-87304714D02*
X81518676Y-87352333D01*
X81518676Y-87352333D02*
X81423438Y-87447571D01*
X81423438Y-87447571D02*
X81375819Y-87590428D01*
X81375819Y-87590428D02*
X81375819Y-87685666D01*
X81375819Y-87685666D02*
X81423438Y-87828523D01*
X81423438Y-87828523D02*
X81471057Y-87876142D01*
X81375819Y-88733285D02*
X81375819Y-88542809D01*
X81375819Y-88542809D02*
X81423438Y-88447571D01*
X81423438Y-88447571D02*
X81471057Y-88399952D01*
X81471057Y-88399952D02*
X81613914Y-88304714D01*
X81613914Y-88304714D02*
X81804390Y-88257095D01*
X81804390Y-88257095D02*
X82185342Y-88257095D01*
X82185342Y-88257095D02*
X82280580Y-88304714D01*
X82280580Y-88304714D02*
X82328200Y-88352333D01*
X82328200Y-88352333D02*
X82375819Y-88447571D01*
X82375819Y-88447571D02*
X82375819Y-88638047D01*
X82375819Y-88638047D02*
X82328200Y-88733285D01*
X82328200Y-88733285D02*
X82280580Y-88780904D01*
X82280580Y-88780904D02*
X82185342Y-88828523D01*
X82185342Y-88828523D02*
X81947247Y-88828523D01*
X81947247Y-88828523D02*
X81852009Y-88780904D01*
X81852009Y-88780904D02*
X81804390Y-88733285D01*
X81804390Y-88733285D02*
X81756771Y-88638047D01*
X81756771Y-88638047D02*
X81756771Y-88447571D01*
X81756771Y-88447571D02*
X81804390Y-88352333D01*
X81804390Y-88352333D02*
X81852009Y-88304714D01*
X81852009Y-88304714D02*
X81947247Y-88257095D01*
X81709152Y-89685666D02*
X82375819Y-89685666D01*
X81328200Y-89447571D02*
X82042485Y-89209476D01*
X82042485Y-89209476D02*
X82042485Y-89828523D01*
X352942857Y-91559580D02*
X352990476Y-91607200D01*
X352990476Y-91607200D02*
X353133333Y-91654819D01*
X353133333Y-91654819D02*
X353228571Y-91654819D01*
X353228571Y-91654819D02*
X353371428Y-91607200D01*
X353371428Y-91607200D02*
X353466666Y-91511961D01*
X353466666Y-91511961D02*
X353514285Y-91416723D01*
X353514285Y-91416723D02*
X353561904Y-91226247D01*
X353561904Y-91226247D02*
X353561904Y-91083390D01*
X353561904Y-91083390D02*
X353514285Y-90892914D01*
X353514285Y-90892914D02*
X353466666Y-90797676D01*
X353466666Y-90797676D02*
X353371428Y-90702438D01*
X353371428Y-90702438D02*
X353228571Y-90654819D01*
X353228571Y-90654819D02*
X353133333Y-90654819D01*
X353133333Y-90654819D02*
X352990476Y-90702438D01*
X352990476Y-90702438D02*
X352942857Y-90750057D01*
X352085714Y-90654819D02*
X352276190Y-90654819D01*
X352276190Y-90654819D02*
X352371428Y-90702438D01*
X352371428Y-90702438D02*
X352419047Y-90750057D01*
X352419047Y-90750057D02*
X352514285Y-90892914D01*
X352514285Y-90892914D02*
X352561904Y-91083390D01*
X352561904Y-91083390D02*
X352561904Y-91464342D01*
X352561904Y-91464342D02*
X352514285Y-91559580D01*
X352514285Y-91559580D02*
X352466666Y-91607200D01*
X352466666Y-91607200D02*
X352371428Y-91654819D01*
X352371428Y-91654819D02*
X352180952Y-91654819D01*
X352180952Y-91654819D02*
X352085714Y-91607200D01*
X352085714Y-91607200D02*
X352038095Y-91559580D01*
X352038095Y-91559580D02*
X351990476Y-91464342D01*
X351990476Y-91464342D02*
X351990476Y-91226247D01*
X351990476Y-91226247D02*
X352038095Y-91131009D01*
X352038095Y-91131009D02*
X352085714Y-91083390D01*
X352085714Y-91083390D02*
X352180952Y-91035771D01*
X352180952Y-91035771D02*
X352371428Y-91035771D01*
X352371428Y-91035771D02*
X352466666Y-91083390D01*
X352466666Y-91083390D02*
X352514285Y-91131009D01*
X352514285Y-91131009D02*
X352561904Y-91226247D01*
X351085714Y-90654819D02*
X351561904Y-90654819D01*
X351561904Y-90654819D02*
X351609523Y-91131009D01*
X351609523Y-91131009D02*
X351561904Y-91083390D01*
X351561904Y-91083390D02*
X351466666Y-91035771D01*
X351466666Y-91035771D02*
X351228571Y-91035771D01*
X351228571Y-91035771D02*
X351133333Y-91083390D01*
X351133333Y-91083390D02*
X351085714Y-91131009D01*
X351085714Y-91131009D02*
X351038095Y-91226247D01*
X351038095Y-91226247D02*
X351038095Y-91464342D01*
X351038095Y-91464342D02*
X351085714Y-91559580D01*
X351085714Y-91559580D02*
X351133333Y-91607200D01*
X351133333Y-91607200D02*
X351228571Y-91654819D01*
X351228571Y-91654819D02*
X351466666Y-91654819D01*
X351466666Y-91654819D02*
X351561904Y-91607200D01*
X351561904Y-91607200D02*
X351609523Y-91559580D01*
X352051857Y-98064580D02*
X352099476Y-98112200D01*
X352099476Y-98112200D02*
X352242333Y-98159819D01*
X352242333Y-98159819D02*
X352337571Y-98159819D01*
X352337571Y-98159819D02*
X352480428Y-98112200D01*
X352480428Y-98112200D02*
X352575666Y-98016961D01*
X352575666Y-98016961D02*
X352623285Y-97921723D01*
X352623285Y-97921723D02*
X352670904Y-97731247D01*
X352670904Y-97731247D02*
X352670904Y-97588390D01*
X352670904Y-97588390D02*
X352623285Y-97397914D01*
X352623285Y-97397914D02*
X352575666Y-97302676D01*
X352575666Y-97302676D02*
X352480428Y-97207438D01*
X352480428Y-97207438D02*
X352337571Y-97159819D01*
X352337571Y-97159819D02*
X352242333Y-97159819D01*
X352242333Y-97159819D02*
X352099476Y-97207438D01*
X352099476Y-97207438D02*
X352051857Y-97255057D01*
X351194714Y-97159819D02*
X351385190Y-97159819D01*
X351385190Y-97159819D02*
X351480428Y-97207438D01*
X351480428Y-97207438D02*
X351528047Y-97255057D01*
X351528047Y-97255057D02*
X351623285Y-97397914D01*
X351623285Y-97397914D02*
X351670904Y-97588390D01*
X351670904Y-97588390D02*
X351670904Y-97969342D01*
X351670904Y-97969342D02*
X351623285Y-98064580D01*
X351623285Y-98064580D02*
X351575666Y-98112200D01*
X351575666Y-98112200D02*
X351480428Y-98159819D01*
X351480428Y-98159819D02*
X351289952Y-98159819D01*
X351289952Y-98159819D02*
X351194714Y-98112200D01*
X351194714Y-98112200D02*
X351147095Y-98064580D01*
X351147095Y-98064580D02*
X351099476Y-97969342D01*
X351099476Y-97969342D02*
X351099476Y-97731247D01*
X351099476Y-97731247D02*
X351147095Y-97636009D01*
X351147095Y-97636009D02*
X351194714Y-97588390D01*
X351194714Y-97588390D02*
X351289952Y-97540771D01*
X351289952Y-97540771D02*
X351480428Y-97540771D01*
X351480428Y-97540771D02*
X351575666Y-97588390D01*
X351575666Y-97588390D02*
X351623285Y-97636009D01*
X351623285Y-97636009D02*
X351670904Y-97731247D01*
X350242333Y-97159819D02*
X350432809Y-97159819D01*
X350432809Y-97159819D02*
X350528047Y-97207438D01*
X350528047Y-97207438D02*
X350575666Y-97255057D01*
X350575666Y-97255057D02*
X350670904Y-97397914D01*
X350670904Y-97397914D02*
X350718523Y-97588390D01*
X350718523Y-97588390D02*
X350718523Y-97969342D01*
X350718523Y-97969342D02*
X350670904Y-98064580D01*
X350670904Y-98064580D02*
X350623285Y-98112200D01*
X350623285Y-98112200D02*
X350528047Y-98159819D01*
X350528047Y-98159819D02*
X350337571Y-98159819D01*
X350337571Y-98159819D02*
X350242333Y-98112200D01*
X350242333Y-98112200D02*
X350194714Y-98064580D01*
X350194714Y-98064580D02*
X350147095Y-97969342D01*
X350147095Y-97969342D02*
X350147095Y-97731247D01*
X350147095Y-97731247D02*
X350194714Y-97636009D01*
X350194714Y-97636009D02*
X350242333Y-97588390D01*
X350242333Y-97588390D02*
X350337571Y-97540771D01*
X350337571Y-97540771D02*
X350528047Y-97540771D01*
X350528047Y-97540771D02*
X350623285Y-97588390D01*
X350623285Y-97588390D02*
X350670904Y-97636009D01*
X350670904Y-97636009D02*
X350718523Y-97731247D01*
X100083857Y-148272580D02*
X100131476Y-148320200D01*
X100131476Y-148320200D02*
X100274333Y-148367819D01*
X100274333Y-148367819D02*
X100369571Y-148367819D01*
X100369571Y-148367819D02*
X100512428Y-148320200D01*
X100512428Y-148320200D02*
X100607666Y-148224961D01*
X100607666Y-148224961D02*
X100655285Y-148129723D01*
X100655285Y-148129723D02*
X100702904Y-147939247D01*
X100702904Y-147939247D02*
X100702904Y-147796390D01*
X100702904Y-147796390D02*
X100655285Y-147605914D01*
X100655285Y-147605914D02*
X100607666Y-147510676D01*
X100607666Y-147510676D02*
X100512428Y-147415438D01*
X100512428Y-147415438D02*
X100369571Y-147367819D01*
X100369571Y-147367819D02*
X100274333Y-147367819D01*
X100274333Y-147367819D02*
X100131476Y-147415438D01*
X100131476Y-147415438D02*
X100083857Y-147463057D01*
X99226714Y-147367819D02*
X99417190Y-147367819D01*
X99417190Y-147367819D02*
X99512428Y-147415438D01*
X99512428Y-147415438D02*
X99560047Y-147463057D01*
X99560047Y-147463057D02*
X99655285Y-147605914D01*
X99655285Y-147605914D02*
X99702904Y-147796390D01*
X99702904Y-147796390D02*
X99702904Y-148177342D01*
X99702904Y-148177342D02*
X99655285Y-148272580D01*
X99655285Y-148272580D02*
X99607666Y-148320200D01*
X99607666Y-148320200D02*
X99512428Y-148367819D01*
X99512428Y-148367819D02*
X99321952Y-148367819D01*
X99321952Y-148367819D02*
X99226714Y-148320200D01*
X99226714Y-148320200D02*
X99179095Y-148272580D01*
X99179095Y-148272580D02*
X99131476Y-148177342D01*
X99131476Y-148177342D02*
X99131476Y-147939247D01*
X99131476Y-147939247D02*
X99179095Y-147844009D01*
X99179095Y-147844009D02*
X99226714Y-147796390D01*
X99226714Y-147796390D02*
X99321952Y-147748771D01*
X99321952Y-147748771D02*
X99512428Y-147748771D01*
X99512428Y-147748771D02*
X99607666Y-147796390D01*
X99607666Y-147796390D02*
X99655285Y-147844009D01*
X99655285Y-147844009D02*
X99702904Y-147939247D01*
X98798142Y-147367819D02*
X98131476Y-147367819D01*
X98131476Y-147367819D02*
X98560047Y-148367819D01*
X118625857Y-147002580D02*
X118673476Y-147050200D01*
X118673476Y-147050200D02*
X118816333Y-147097819D01*
X118816333Y-147097819D02*
X118911571Y-147097819D01*
X118911571Y-147097819D02*
X119054428Y-147050200D01*
X119054428Y-147050200D02*
X119149666Y-146954961D01*
X119149666Y-146954961D02*
X119197285Y-146859723D01*
X119197285Y-146859723D02*
X119244904Y-146669247D01*
X119244904Y-146669247D02*
X119244904Y-146526390D01*
X119244904Y-146526390D02*
X119197285Y-146335914D01*
X119197285Y-146335914D02*
X119149666Y-146240676D01*
X119149666Y-146240676D02*
X119054428Y-146145438D01*
X119054428Y-146145438D02*
X118911571Y-146097819D01*
X118911571Y-146097819D02*
X118816333Y-146097819D01*
X118816333Y-146097819D02*
X118673476Y-146145438D01*
X118673476Y-146145438D02*
X118625857Y-146193057D01*
X117768714Y-146097819D02*
X117959190Y-146097819D01*
X117959190Y-146097819D02*
X118054428Y-146145438D01*
X118054428Y-146145438D02*
X118102047Y-146193057D01*
X118102047Y-146193057D02*
X118197285Y-146335914D01*
X118197285Y-146335914D02*
X118244904Y-146526390D01*
X118244904Y-146526390D02*
X118244904Y-146907342D01*
X118244904Y-146907342D02*
X118197285Y-147002580D01*
X118197285Y-147002580D02*
X118149666Y-147050200D01*
X118149666Y-147050200D02*
X118054428Y-147097819D01*
X118054428Y-147097819D02*
X117863952Y-147097819D01*
X117863952Y-147097819D02*
X117768714Y-147050200D01*
X117768714Y-147050200D02*
X117721095Y-147002580D01*
X117721095Y-147002580D02*
X117673476Y-146907342D01*
X117673476Y-146907342D02*
X117673476Y-146669247D01*
X117673476Y-146669247D02*
X117721095Y-146574009D01*
X117721095Y-146574009D02*
X117768714Y-146526390D01*
X117768714Y-146526390D02*
X117863952Y-146478771D01*
X117863952Y-146478771D02*
X118054428Y-146478771D01*
X118054428Y-146478771D02*
X118149666Y-146526390D01*
X118149666Y-146526390D02*
X118197285Y-146574009D01*
X118197285Y-146574009D02*
X118244904Y-146669247D01*
X117102047Y-146526390D02*
X117197285Y-146478771D01*
X117197285Y-146478771D02*
X117244904Y-146431152D01*
X117244904Y-146431152D02*
X117292523Y-146335914D01*
X117292523Y-146335914D02*
X117292523Y-146288295D01*
X117292523Y-146288295D02*
X117244904Y-146193057D01*
X117244904Y-146193057D02*
X117197285Y-146145438D01*
X117197285Y-146145438D02*
X117102047Y-146097819D01*
X117102047Y-146097819D02*
X116911571Y-146097819D01*
X116911571Y-146097819D02*
X116816333Y-146145438D01*
X116816333Y-146145438D02*
X116768714Y-146193057D01*
X116768714Y-146193057D02*
X116721095Y-146288295D01*
X116721095Y-146288295D02*
X116721095Y-146335914D01*
X116721095Y-146335914D02*
X116768714Y-146431152D01*
X116768714Y-146431152D02*
X116816333Y-146478771D01*
X116816333Y-146478771D02*
X116911571Y-146526390D01*
X116911571Y-146526390D02*
X117102047Y-146526390D01*
X117102047Y-146526390D02*
X117197285Y-146574009D01*
X117197285Y-146574009D02*
X117244904Y-146621628D01*
X117244904Y-146621628D02*
X117292523Y-146716866D01*
X117292523Y-146716866D02*
X117292523Y-146907342D01*
X117292523Y-146907342D02*
X117244904Y-147002580D01*
X117244904Y-147002580D02*
X117197285Y-147050200D01*
X117197285Y-147050200D02*
X117102047Y-147097819D01*
X117102047Y-147097819D02*
X116911571Y-147097819D01*
X116911571Y-147097819D02*
X116816333Y-147050200D01*
X116816333Y-147050200D02*
X116768714Y-147002580D01*
X116768714Y-147002580D02*
X116721095Y-146907342D01*
X116721095Y-146907342D02*
X116721095Y-146716866D01*
X116721095Y-146716866D02*
X116768714Y-146621628D01*
X116768714Y-146621628D02*
X116816333Y-146574009D01*
X116816333Y-146574009D02*
X116911571Y-146526390D01*
X152280857Y-150642580D02*
X152328476Y-150690200D01*
X152328476Y-150690200D02*
X152471333Y-150737819D01*
X152471333Y-150737819D02*
X152566571Y-150737819D01*
X152566571Y-150737819D02*
X152709428Y-150690200D01*
X152709428Y-150690200D02*
X152804666Y-150594961D01*
X152804666Y-150594961D02*
X152852285Y-150499723D01*
X152852285Y-150499723D02*
X152899904Y-150309247D01*
X152899904Y-150309247D02*
X152899904Y-150166390D01*
X152899904Y-150166390D02*
X152852285Y-149975914D01*
X152852285Y-149975914D02*
X152804666Y-149880676D01*
X152804666Y-149880676D02*
X152709428Y-149785438D01*
X152709428Y-149785438D02*
X152566571Y-149737819D01*
X152566571Y-149737819D02*
X152471333Y-149737819D01*
X152471333Y-149737819D02*
X152328476Y-149785438D01*
X152328476Y-149785438D02*
X152280857Y-149833057D01*
X151423714Y-149737819D02*
X151614190Y-149737819D01*
X151614190Y-149737819D02*
X151709428Y-149785438D01*
X151709428Y-149785438D02*
X151757047Y-149833057D01*
X151757047Y-149833057D02*
X151852285Y-149975914D01*
X151852285Y-149975914D02*
X151899904Y-150166390D01*
X151899904Y-150166390D02*
X151899904Y-150547342D01*
X151899904Y-150547342D02*
X151852285Y-150642580D01*
X151852285Y-150642580D02*
X151804666Y-150690200D01*
X151804666Y-150690200D02*
X151709428Y-150737819D01*
X151709428Y-150737819D02*
X151518952Y-150737819D01*
X151518952Y-150737819D02*
X151423714Y-150690200D01*
X151423714Y-150690200D02*
X151376095Y-150642580D01*
X151376095Y-150642580D02*
X151328476Y-150547342D01*
X151328476Y-150547342D02*
X151328476Y-150309247D01*
X151328476Y-150309247D02*
X151376095Y-150214009D01*
X151376095Y-150214009D02*
X151423714Y-150166390D01*
X151423714Y-150166390D02*
X151518952Y-150118771D01*
X151518952Y-150118771D02*
X151709428Y-150118771D01*
X151709428Y-150118771D02*
X151804666Y-150166390D01*
X151804666Y-150166390D02*
X151852285Y-150214009D01*
X151852285Y-150214009D02*
X151899904Y-150309247D01*
X150852285Y-150737819D02*
X150661809Y-150737819D01*
X150661809Y-150737819D02*
X150566571Y-150690200D01*
X150566571Y-150690200D02*
X150518952Y-150642580D01*
X150518952Y-150642580D02*
X150423714Y-150499723D01*
X150423714Y-150499723D02*
X150376095Y-150309247D01*
X150376095Y-150309247D02*
X150376095Y-149928295D01*
X150376095Y-149928295D02*
X150423714Y-149833057D01*
X150423714Y-149833057D02*
X150471333Y-149785438D01*
X150471333Y-149785438D02*
X150566571Y-149737819D01*
X150566571Y-149737819D02*
X150757047Y-149737819D01*
X150757047Y-149737819D02*
X150852285Y-149785438D01*
X150852285Y-149785438D02*
X150899904Y-149833057D01*
X150899904Y-149833057D02*
X150947523Y-149928295D01*
X150947523Y-149928295D02*
X150947523Y-150166390D01*
X150947523Y-150166390D02*
X150899904Y-150261628D01*
X150899904Y-150261628D02*
X150852285Y-150309247D01*
X150852285Y-150309247D02*
X150757047Y-150356866D01*
X150757047Y-150356866D02*
X150566571Y-150356866D01*
X150566571Y-150356866D02*
X150471333Y-150309247D01*
X150471333Y-150309247D02*
X150423714Y-150261628D01*
X150423714Y-150261628D02*
X150376095Y-150166390D01*
X99715580Y-84447142D02*
X99763200Y-84399523D01*
X99763200Y-84399523D02*
X99810819Y-84256666D01*
X99810819Y-84256666D02*
X99810819Y-84161428D01*
X99810819Y-84161428D02*
X99763200Y-84018571D01*
X99763200Y-84018571D02*
X99667961Y-83923333D01*
X99667961Y-83923333D02*
X99572723Y-83875714D01*
X99572723Y-83875714D02*
X99382247Y-83828095D01*
X99382247Y-83828095D02*
X99239390Y-83828095D01*
X99239390Y-83828095D02*
X99048914Y-83875714D01*
X99048914Y-83875714D02*
X98953676Y-83923333D01*
X98953676Y-83923333D02*
X98858438Y-84018571D01*
X98858438Y-84018571D02*
X98810819Y-84161428D01*
X98810819Y-84161428D02*
X98810819Y-84256666D01*
X98810819Y-84256666D02*
X98858438Y-84399523D01*
X98858438Y-84399523D02*
X98906057Y-84447142D01*
X98810819Y-84780476D02*
X98810819Y-85447142D01*
X98810819Y-85447142D02*
X99810819Y-85018571D01*
X98810819Y-86018571D02*
X98810819Y-86113809D01*
X98810819Y-86113809D02*
X98858438Y-86209047D01*
X98858438Y-86209047D02*
X98906057Y-86256666D01*
X98906057Y-86256666D02*
X99001295Y-86304285D01*
X99001295Y-86304285D02*
X99191771Y-86351904D01*
X99191771Y-86351904D02*
X99429866Y-86351904D01*
X99429866Y-86351904D02*
X99620342Y-86304285D01*
X99620342Y-86304285D02*
X99715580Y-86256666D01*
X99715580Y-86256666D02*
X99763200Y-86209047D01*
X99763200Y-86209047D02*
X99810819Y-86113809D01*
X99810819Y-86113809D02*
X99810819Y-86018571D01*
X99810819Y-86018571D02*
X99763200Y-85923333D01*
X99763200Y-85923333D02*
X99715580Y-85875714D01*
X99715580Y-85875714D02*
X99620342Y-85828095D01*
X99620342Y-85828095D02*
X99429866Y-85780476D01*
X99429866Y-85780476D02*
X99191771Y-85780476D01*
X99191771Y-85780476D02*
X99001295Y-85828095D01*
X99001295Y-85828095D02*
X98906057Y-85875714D01*
X98906057Y-85875714D02*
X98858438Y-85923333D01*
X98858438Y-85923333D02*
X98810819Y-86018571D01*
X107068857Y-81724580D02*
X107116476Y-81772200D01*
X107116476Y-81772200D02*
X107259333Y-81819819D01*
X107259333Y-81819819D02*
X107354571Y-81819819D01*
X107354571Y-81819819D02*
X107497428Y-81772200D01*
X107497428Y-81772200D02*
X107592666Y-81676961D01*
X107592666Y-81676961D02*
X107640285Y-81581723D01*
X107640285Y-81581723D02*
X107687904Y-81391247D01*
X107687904Y-81391247D02*
X107687904Y-81248390D01*
X107687904Y-81248390D02*
X107640285Y-81057914D01*
X107640285Y-81057914D02*
X107592666Y-80962676D01*
X107592666Y-80962676D02*
X107497428Y-80867438D01*
X107497428Y-80867438D02*
X107354571Y-80819819D01*
X107354571Y-80819819D02*
X107259333Y-80819819D01*
X107259333Y-80819819D02*
X107116476Y-80867438D01*
X107116476Y-80867438D02*
X107068857Y-80915057D01*
X106735523Y-80819819D02*
X106068857Y-80819819D01*
X106068857Y-80819819D02*
X106497428Y-81819819D01*
X105164095Y-81819819D02*
X105735523Y-81819819D01*
X105449809Y-81819819D02*
X105449809Y-80819819D01*
X105449809Y-80819819D02*
X105545047Y-80962676D01*
X105545047Y-80962676D02*
X105640285Y-81057914D01*
X105640285Y-81057914D02*
X105735523Y-81105533D01*
X106942857Y-91059580D02*
X106990476Y-91107200D01*
X106990476Y-91107200D02*
X107133333Y-91154819D01*
X107133333Y-91154819D02*
X107228571Y-91154819D01*
X107228571Y-91154819D02*
X107371428Y-91107200D01*
X107371428Y-91107200D02*
X107466666Y-91011961D01*
X107466666Y-91011961D02*
X107514285Y-90916723D01*
X107514285Y-90916723D02*
X107561904Y-90726247D01*
X107561904Y-90726247D02*
X107561904Y-90583390D01*
X107561904Y-90583390D02*
X107514285Y-90392914D01*
X107514285Y-90392914D02*
X107466666Y-90297676D01*
X107466666Y-90297676D02*
X107371428Y-90202438D01*
X107371428Y-90202438D02*
X107228571Y-90154819D01*
X107228571Y-90154819D02*
X107133333Y-90154819D01*
X107133333Y-90154819D02*
X106990476Y-90202438D01*
X106990476Y-90202438D02*
X106942857Y-90250057D01*
X106609523Y-90154819D02*
X105942857Y-90154819D01*
X105942857Y-90154819D02*
X106371428Y-91154819D01*
X105609523Y-90250057D02*
X105561904Y-90202438D01*
X105561904Y-90202438D02*
X105466666Y-90154819D01*
X105466666Y-90154819D02*
X105228571Y-90154819D01*
X105228571Y-90154819D02*
X105133333Y-90202438D01*
X105133333Y-90202438D02*
X105085714Y-90250057D01*
X105085714Y-90250057D02*
X105038095Y-90345295D01*
X105038095Y-90345295D02*
X105038095Y-90440533D01*
X105038095Y-90440533D02*
X105085714Y-90583390D01*
X105085714Y-90583390D02*
X105657142Y-91154819D01*
X105657142Y-91154819D02*
X105038095Y-91154819D01*
X95257857Y-96794580D02*
X95305476Y-96842200D01*
X95305476Y-96842200D02*
X95448333Y-96889819D01*
X95448333Y-96889819D02*
X95543571Y-96889819D01*
X95543571Y-96889819D02*
X95686428Y-96842200D01*
X95686428Y-96842200D02*
X95781666Y-96746961D01*
X95781666Y-96746961D02*
X95829285Y-96651723D01*
X95829285Y-96651723D02*
X95876904Y-96461247D01*
X95876904Y-96461247D02*
X95876904Y-96318390D01*
X95876904Y-96318390D02*
X95829285Y-96127914D01*
X95829285Y-96127914D02*
X95781666Y-96032676D01*
X95781666Y-96032676D02*
X95686428Y-95937438D01*
X95686428Y-95937438D02*
X95543571Y-95889819D01*
X95543571Y-95889819D02*
X95448333Y-95889819D01*
X95448333Y-95889819D02*
X95305476Y-95937438D01*
X95305476Y-95937438D02*
X95257857Y-95985057D01*
X94924523Y-95889819D02*
X94257857Y-95889819D01*
X94257857Y-95889819D02*
X94686428Y-96889819D01*
X93972142Y-95889819D02*
X93353095Y-95889819D01*
X93353095Y-95889819D02*
X93686428Y-96270771D01*
X93686428Y-96270771D02*
X93543571Y-96270771D01*
X93543571Y-96270771D02*
X93448333Y-96318390D01*
X93448333Y-96318390D02*
X93400714Y-96366009D01*
X93400714Y-96366009D02*
X93353095Y-96461247D01*
X93353095Y-96461247D02*
X93353095Y-96699342D01*
X93353095Y-96699342D02*
X93400714Y-96794580D01*
X93400714Y-96794580D02*
X93448333Y-96842200D01*
X93448333Y-96842200D02*
X93543571Y-96889819D01*
X93543571Y-96889819D02*
X93829285Y-96889819D01*
X93829285Y-96889819D02*
X93924523Y-96842200D01*
X93924523Y-96842200D02*
X93972142Y-96794580D01*
D11*
X80721190Y-130991885D02*
X80797380Y-130953790D01*
X80797380Y-130953790D02*
X80873571Y-130877600D01*
X80873571Y-130877600D02*
X80987857Y-130763314D01*
X80987857Y-130763314D02*
X81064047Y-130725219D01*
X81064047Y-130725219D02*
X81140238Y-130725219D01*
X81102142Y-130915695D02*
X81178333Y-130877600D01*
X81178333Y-130877600D02*
X81254523Y-130801409D01*
X81254523Y-130801409D02*
X81292619Y-130649028D01*
X81292619Y-130649028D02*
X81292619Y-130382361D01*
X81292619Y-130382361D02*
X81254523Y-130229980D01*
X81254523Y-130229980D02*
X81178333Y-130153790D01*
X81178333Y-130153790D02*
X81102142Y-130115695D01*
X81102142Y-130115695D02*
X80949761Y-130115695D01*
X80949761Y-130115695D02*
X80873571Y-130153790D01*
X80873571Y-130153790D02*
X80797380Y-130229980D01*
X80797380Y-130229980D02*
X80759285Y-130382361D01*
X80759285Y-130382361D02*
X80759285Y-130649028D01*
X80759285Y-130649028D02*
X80797380Y-130801409D01*
X80797380Y-130801409D02*
X80873571Y-130877600D01*
X80873571Y-130877600D02*
X80949761Y-130915695D01*
X80949761Y-130915695D02*
X81102142Y-130915695D01*
X79997381Y-130915695D02*
X80454524Y-130915695D01*
X80225952Y-130915695D02*
X80225952Y-130115695D01*
X80225952Y-130115695D02*
X80302143Y-130229980D01*
X80302143Y-130229980D02*
X80378333Y-130306171D01*
X80378333Y-130306171D02*
X80454524Y-130344266D01*
X76149190Y-130991885D02*
X76225380Y-130953790D01*
X76225380Y-130953790D02*
X76301571Y-130877600D01*
X76301571Y-130877600D02*
X76415857Y-130763314D01*
X76415857Y-130763314D02*
X76492047Y-130725219D01*
X76492047Y-130725219D02*
X76568238Y-130725219D01*
X76530142Y-130915695D02*
X76606333Y-130877600D01*
X76606333Y-130877600D02*
X76682523Y-130801409D01*
X76682523Y-130801409D02*
X76720619Y-130649028D01*
X76720619Y-130649028D02*
X76720619Y-130382361D01*
X76720619Y-130382361D02*
X76682523Y-130229980D01*
X76682523Y-130229980D02*
X76606333Y-130153790D01*
X76606333Y-130153790D02*
X76530142Y-130115695D01*
X76530142Y-130115695D02*
X76377761Y-130115695D01*
X76377761Y-130115695D02*
X76301571Y-130153790D01*
X76301571Y-130153790D02*
X76225380Y-130229980D01*
X76225380Y-130229980D02*
X76187285Y-130382361D01*
X76187285Y-130382361D02*
X76187285Y-130649028D01*
X76187285Y-130649028D02*
X76225380Y-130801409D01*
X76225380Y-130801409D02*
X76301571Y-130877600D01*
X76301571Y-130877600D02*
X76377761Y-130915695D01*
X76377761Y-130915695D02*
X76530142Y-130915695D01*
X75882524Y-130191885D02*
X75844428Y-130153790D01*
X75844428Y-130153790D02*
X75768238Y-130115695D01*
X75768238Y-130115695D02*
X75577762Y-130115695D01*
X75577762Y-130115695D02*
X75501571Y-130153790D01*
X75501571Y-130153790D02*
X75463476Y-130191885D01*
X75463476Y-130191885D02*
X75425381Y-130268076D01*
X75425381Y-130268076D02*
X75425381Y-130344266D01*
X75425381Y-130344266D02*
X75463476Y-130458552D01*
X75463476Y-130458552D02*
X75920619Y-130915695D01*
X75920619Y-130915695D02*
X75425381Y-130915695D01*
X76149190Y-97209885D02*
X76225380Y-97171790D01*
X76225380Y-97171790D02*
X76301571Y-97095600D01*
X76301571Y-97095600D02*
X76415857Y-96981314D01*
X76415857Y-96981314D02*
X76492047Y-96943219D01*
X76492047Y-96943219D02*
X76568238Y-96943219D01*
X76530142Y-97133695D02*
X76606333Y-97095600D01*
X76606333Y-97095600D02*
X76682523Y-97019409D01*
X76682523Y-97019409D02*
X76720619Y-96867028D01*
X76720619Y-96867028D02*
X76720619Y-96600361D01*
X76720619Y-96600361D02*
X76682523Y-96447980D01*
X76682523Y-96447980D02*
X76606333Y-96371790D01*
X76606333Y-96371790D02*
X76530142Y-96333695D01*
X76530142Y-96333695D02*
X76377761Y-96333695D01*
X76377761Y-96333695D02*
X76301571Y-96371790D01*
X76301571Y-96371790D02*
X76225380Y-96447980D01*
X76225380Y-96447980D02*
X76187285Y-96600361D01*
X76187285Y-96600361D02*
X76187285Y-96867028D01*
X76187285Y-96867028D02*
X76225380Y-97019409D01*
X76225380Y-97019409D02*
X76301571Y-97095600D01*
X76301571Y-97095600D02*
X76377761Y-97133695D01*
X76377761Y-97133695D02*
X76530142Y-97133695D01*
X75920619Y-96333695D02*
X75425381Y-96333695D01*
X75425381Y-96333695D02*
X75692047Y-96638457D01*
X75692047Y-96638457D02*
X75577762Y-96638457D01*
X75577762Y-96638457D02*
X75501571Y-96676552D01*
X75501571Y-96676552D02*
X75463476Y-96714647D01*
X75463476Y-96714647D02*
X75425381Y-96790838D01*
X75425381Y-96790838D02*
X75425381Y-96981314D01*
X75425381Y-96981314D02*
X75463476Y-97057504D01*
X75463476Y-97057504D02*
X75501571Y-97095600D01*
X75501571Y-97095600D02*
X75577762Y-97133695D01*
X75577762Y-97133695D02*
X75806333Y-97133695D01*
X75806333Y-97133695D02*
X75882524Y-97095600D01*
X75882524Y-97095600D02*
X75920619Y-97057504D01*
D10*
X352666666Y-81554819D02*
X352999999Y-81078628D01*
X353238094Y-81554819D02*
X353238094Y-80554819D01*
X353238094Y-80554819D02*
X352857142Y-80554819D01*
X352857142Y-80554819D02*
X352761904Y-80602438D01*
X352761904Y-80602438D02*
X352714285Y-80650057D01*
X352714285Y-80650057D02*
X352666666Y-80745295D01*
X352666666Y-80745295D02*
X352666666Y-80888152D01*
X352666666Y-80888152D02*
X352714285Y-80983390D01*
X352714285Y-80983390D02*
X352761904Y-81031009D01*
X352761904Y-81031009D02*
X352857142Y-81078628D01*
X352857142Y-81078628D02*
X353238094Y-81078628D01*
X352285713Y-80650057D02*
X352238094Y-80602438D01*
X352238094Y-80602438D02*
X352142856Y-80554819D01*
X352142856Y-80554819D02*
X351904761Y-80554819D01*
X351904761Y-80554819D02*
X351809523Y-80602438D01*
X351809523Y-80602438D02*
X351761904Y-80650057D01*
X351761904Y-80650057D02*
X351714285Y-80745295D01*
X351714285Y-80745295D02*
X351714285Y-80840533D01*
X351714285Y-80840533D02*
X351761904Y-80983390D01*
X351761904Y-80983390D02*
X352333332Y-81554819D01*
X352333332Y-81554819D02*
X351714285Y-81554819D01*
X360554819Y-71333333D02*
X360078628Y-71000000D01*
X360554819Y-70761905D02*
X359554819Y-70761905D01*
X359554819Y-70761905D02*
X359554819Y-71142857D01*
X359554819Y-71142857D02*
X359602438Y-71238095D01*
X359602438Y-71238095D02*
X359650057Y-71285714D01*
X359650057Y-71285714D02*
X359745295Y-71333333D01*
X359745295Y-71333333D02*
X359888152Y-71333333D01*
X359888152Y-71333333D02*
X359983390Y-71285714D01*
X359983390Y-71285714D02*
X360031009Y-71238095D01*
X360031009Y-71238095D02*
X360078628Y-71142857D01*
X360078628Y-71142857D02*
X360078628Y-70761905D01*
X359554819Y-71666667D02*
X359554819Y-72285714D01*
X359554819Y-72285714D02*
X359935771Y-71952381D01*
X359935771Y-71952381D02*
X359935771Y-72095238D01*
X359935771Y-72095238D02*
X359983390Y-72190476D01*
X359983390Y-72190476D02*
X360031009Y-72238095D01*
X360031009Y-72238095D02*
X360126247Y-72285714D01*
X360126247Y-72285714D02*
X360364342Y-72285714D01*
X360364342Y-72285714D02*
X360459580Y-72238095D01*
X360459580Y-72238095D02*
X360507200Y-72190476D01*
X360507200Y-72190476D02*
X360554819Y-72095238D01*
X360554819Y-72095238D02*
X360554819Y-71809524D01*
X360554819Y-71809524D02*
X360507200Y-71714286D01*
X360507200Y-71714286D02*
X360459580Y-71666667D01*
X163615666Y-136894819D02*
X163948999Y-136418628D01*
X164187094Y-136894819D02*
X164187094Y-135894819D01*
X164187094Y-135894819D02*
X163806142Y-135894819D01*
X163806142Y-135894819D02*
X163710904Y-135942438D01*
X163710904Y-135942438D02*
X163663285Y-135990057D01*
X163663285Y-135990057D02*
X163615666Y-136085295D01*
X163615666Y-136085295D02*
X163615666Y-136228152D01*
X163615666Y-136228152D02*
X163663285Y-136323390D01*
X163663285Y-136323390D02*
X163710904Y-136371009D01*
X163710904Y-136371009D02*
X163806142Y-136418628D01*
X163806142Y-136418628D02*
X164187094Y-136418628D01*
X162710904Y-135894819D02*
X163187094Y-135894819D01*
X163187094Y-135894819D02*
X163234713Y-136371009D01*
X163234713Y-136371009D02*
X163187094Y-136323390D01*
X163187094Y-136323390D02*
X163091856Y-136275771D01*
X163091856Y-136275771D02*
X162853761Y-136275771D01*
X162853761Y-136275771D02*
X162758523Y-136323390D01*
X162758523Y-136323390D02*
X162710904Y-136371009D01*
X162710904Y-136371009D02*
X162663285Y-136466247D01*
X162663285Y-136466247D02*
X162663285Y-136704342D01*
X162663285Y-136704342D02*
X162710904Y-136799580D01*
X162710904Y-136799580D02*
X162758523Y-136847200D01*
X162758523Y-136847200D02*
X162853761Y-136894819D01*
X162853761Y-136894819D02*
X163091856Y-136894819D01*
X163091856Y-136894819D02*
X163187094Y-136847200D01*
X163187094Y-136847200D02*
X163234713Y-136799580D01*
X115101666Y-121824819D02*
X115434999Y-121348628D01*
X115673094Y-121824819D02*
X115673094Y-120824819D01*
X115673094Y-120824819D02*
X115292142Y-120824819D01*
X115292142Y-120824819D02*
X115196904Y-120872438D01*
X115196904Y-120872438D02*
X115149285Y-120920057D01*
X115149285Y-120920057D02*
X115101666Y-121015295D01*
X115101666Y-121015295D02*
X115101666Y-121158152D01*
X115101666Y-121158152D02*
X115149285Y-121253390D01*
X115149285Y-121253390D02*
X115196904Y-121301009D01*
X115196904Y-121301009D02*
X115292142Y-121348628D01*
X115292142Y-121348628D02*
X115673094Y-121348628D01*
X114244523Y-120824819D02*
X114434999Y-120824819D01*
X114434999Y-120824819D02*
X114530237Y-120872438D01*
X114530237Y-120872438D02*
X114577856Y-120920057D01*
X114577856Y-120920057D02*
X114673094Y-121062914D01*
X114673094Y-121062914D02*
X114720713Y-121253390D01*
X114720713Y-121253390D02*
X114720713Y-121634342D01*
X114720713Y-121634342D02*
X114673094Y-121729580D01*
X114673094Y-121729580D02*
X114625475Y-121777200D01*
X114625475Y-121777200D02*
X114530237Y-121824819D01*
X114530237Y-121824819D02*
X114339761Y-121824819D01*
X114339761Y-121824819D02*
X114244523Y-121777200D01*
X114244523Y-121777200D02*
X114196904Y-121729580D01*
X114196904Y-121729580D02*
X114149285Y-121634342D01*
X114149285Y-121634342D02*
X114149285Y-121396247D01*
X114149285Y-121396247D02*
X114196904Y-121301009D01*
X114196904Y-121301009D02*
X114244523Y-121253390D01*
X114244523Y-121253390D02*
X114339761Y-121205771D01*
X114339761Y-121205771D02*
X114530237Y-121205771D01*
X114530237Y-121205771D02*
X114625475Y-121253390D01*
X114625475Y-121253390D02*
X114673094Y-121301009D01*
X114673094Y-121301009D02*
X114720713Y-121396247D01*
X118911666Y-119284819D02*
X119244999Y-118808628D01*
X119483094Y-119284819D02*
X119483094Y-118284819D01*
X119483094Y-118284819D02*
X119102142Y-118284819D01*
X119102142Y-118284819D02*
X119006904Y-118332438D01*
X119006904Y-118332438D02*
X118959285Y-118380057D01*
X118959285Y-118380057D02*
X118911666Y-118475295D01*
X118911666Y-118475295D02*
X118911666Y-118618152D01*
X118911666Y-118618152D02*
X118959285Y-118713390D01*
X118959285Y-118713390D02*
X119006904Y-118761009D01*
X119006904Y-118761009D02*
X119102142Y-118808628D01*
X119102142Y-118808628D02*
X119483094Y-118808628D01*
X118578332Y-118284819D02*
X117911666Y-118284819D01*
X117911666Y-118284819D02*
X118340237Y-119284819D01*
X66579819Y-85050333D02*
X66103628Y-84717000D01*
X66579819Y-84478905D02*
X65579819Y-84478905D01*
X65579819Y-84478905D02*
X65579819Y-84859857D01*
X65579819Y-84859857D02*
X65627438Y-84955095D01*
X65627438Y-84955095D02*
X65675057Y-85002714D01*
X65675057Y-85002714D02*
X65770295Y-85050333D01*
X65770295Y-85050333D02*
X65913152Y-85050333D01*
X65913152Y-85050333D02*
X66008390Y-85002714D01*
X66008390Y-85002714D02*
X66056009Y-84955095D01*
X66056009Y-84955095D02*
X66103628Y-84859857D01*
X66103628Y-84859857D02*
X66103628Y-84478905D01*
X66579819Y-85526524D02*
X66579819Y-85717000D01*
X66579819Y-85717000D02*
X66532200Y-85812238D01*
X66532200Y-85812238D02*
X66484580Y-85859857D01*
X66484580Y-85859857D02*
X66341723Y-85955095D01*
X66341723Y-85955095D02*
X66151247Y-86002714D01*
X66151247Y-86002714D02*
X65770295Y-86002714D01*
X65770295Y-86002714D02*
X65675057Y-85955095D01*
X65675057Y-85955095D02*
X65627438Y-85907476D01*
X65627438Y-85907476D02*
X65579819Y-85812238D01*
X65579819Y-85812238D02*
X65579819Y-85621762D01*
X65579819Y-85621762D02*
X65627438Y-85526524D01*
X65627438Y-85526524D02*
X65675057Y-85478905D01*
X65675057Y-85478905D02*
X65770295Y-85431286D01*
X65770295Y-85431286D02*
X66008390Y-85431286D01*
X66008390Y-85431286D02*
X66103628Y-85478905D01*
X66103628Y-85478905D02*
X66151247Y-85526524D01*
X66151247Y-85526524D02*
X66198866Y-85621762D01*
X66198866Y-85621762D02*
X66198866Y-85812238D01*
X66198866Y-85812238D02*
X66151247Y-85907476D01*
X66151247Y-85907476D02*
X66103628Y-85955095D01*
X66103628Y-85955095D02*
X66008390Y-86002714D01*
X354454819Y-71857142D02*
X353978628Y-71523809D01*
X354454819Y-71285714D02*
X353454819Y-71285714D01*
X353454819Y-71285714D02*
X353454819Y-71666666D01*
X353454819Y-71666666D02*
X353502438Y-71761904D01*
X353502438Y-71761904D02*
X353550057Y-71809523D01*
X353550057Y-71809523D02*
X353645295Y-71857142D01*
X353645295Y-71857142D02*
X353788152Y-71857142D01*
X353788152Y-71857142D02*
X353883390Y-71809523D01*
X353883390Y-71809523D02*
X353931009Y-71761904D01*
X353931009Y-71761904D02*
X353978628Y-71666666D01*
X353978628Y-71666666D02*
X353978628Y-71285714D01*
X354454819Y-72809523D02*
X354454819Y-72238095D01*
X354454819Y-72523809D02*
X353454819Y-72523809D01*
X353454819Y-72523809D02*
X353597676Y-72428571D01*
X353597676Y-72428571D02*
X353692914Y-72333333D01*
X353692914Y-72333333D02*
X353740533Y-72238095D01*
X353550057Y-73190476D02*
X353502438Y-73238095D01*
X353502438Y-73238095D02*
X353454819Y-73333333D01*
X353454819Y-73333333D02*
X353454819Y-73571428D01*
X353454819Y-73571428D02*
X353502438Y-73666666D01*
X353502438Y-73666666D02*
X353550057Y-73714285D01*
X353550057Y-73714285D02*
X353645295Y-73761904D01*
X353645295Y-73761904D02*
X353740533Y-73761904D01*
X353740533Y-73761904D02*
X353883390Y-73714285D01*
X353883390Y-73714285D02*
X354454819Y-73142857D01*
X354454819Y-73142857D02*
X354454819Y-73761904D01*
X86538112Y-77815981D02*
X86871445Y-77339790D01*
X87109540Y-77815981D02*
X87109540Y-76815981D01*
X87109540Y-76815981D02*
X86728588Y-76815981D01*
X86728588Y-76815981D02*
X86633350Y-76863600D01*
X86633350Y-76863600D02*
X86585731Y-76911219D01*
X86585731Y-76911219D02*
X86538112Y-77006457D01*
X86538112Y-77006457D02*
X86538112Y-77149314D01*
X86538112Y-77149314D02*
X86585731Y-77244552D01*
X86585731Y-77244552D02*
X86633350Y-77292171D01*
X86633350Y-77292171D02*
X86728588Y-77339790D01*
X86728588Y-77339790D02*
X87109540Y-77339790D01*
X85585731Y-77815981D02*
X86157159Y-77815981D01*
X85871445Y-77815981D02*
X85871445Y-76815981D01*
X85871445Y-76815981D02*
X85966683Y-76958838D01*
X85966683Y-76958838D02*
X86061921Y-77054076D01*
X86061921Y-77054076D02*
X86157159Y-77101695D01*
X85252397Y-76815981D02*
X84633350Y-76815981D01*
X84633350Y-76815981D02*
X84966683Y-77196933D01*
X84966683Y-77196933D02*
X84823826Y-77196933D01*
X84823826Y-77196933D02*
X84728588Y-77244552D01*
X84728588Y-77244552D02*
X84680969Y-77292171D01*
X84680969Y-77292171D02*
X84633350Y-77387409D01*
X84633350Y-77387409D02*
X84633350Y-77625504D01*
X84633350Y-77625504D02*
X84680969Y-77720742D01*
X84680969Y-77720742D02*
X84728588Y-77768362D01*
X84728588Y-77768362D02*
X84823826Y-77815981D01*
X84823826Y-77815981D02*
X85109540Y-77815981D01*
X85109540Y-77815981D02*
X85204778Y-77768362D01*
X85204778Y-77768362D02*
X85252397Y-77720742D01*
X321954819Y-115457142D02*
X321478628Y-115123809D01*
X321954819Y-114885714D02*
X320954819Y-114885714D01*
X320954819Y-114885714D02*
X320954819Y-115266666D01*
X320954819Y-115266666D02*
X321002438Y-115361904D01*
X321002438Y-115361904D02*
X321050057Y-115409523D01*
X321050057Y-115409523D02*
X321145295Y-115457142D01*
X321145295Y-115457142D02*
X321288152Y-115457142D01*
X321288152Y-115457142D02*
X321383390Y-115409523D01*
X321383390Y-115409523D02*
X321431009Y-115361904D01*
X321431009Y-115361904D02*
X321478628Y-115266666D01*
X321478628Y-115266666D02*
X321478628Y-114885714D01*
X321954819Y-116409523D02*
X321954819Y-115838095D01*
X321954819Y-116123809D02*
X320954819Y-116123809D01*
X320954819Y-116123809D02*
X321097676Y-116028571D01*
X321097676Y-116028571D02*
X321192914Y-115933333D01*
X321192914Y-115933333D02*
X321240533Y-115838095D01*
X320954819Y-117314285D02*
X320954819Y-116838095D01*
X320954819Y-116838095D02*
X321431009Y-116790476D01*
X321431009Y-116790476D02*
X321383390Y-116838095D01*
X321383390Y-116838095D02*
X321335771Y-116933333D01*
X321335771Y-116933333D02*
X321335771Y-117171428D01*
X321335771Y-117171428D02*
X321383390Y-117266666D01*
X321383390Y-117266666D02*
X321431009Y-117314285D01*
X321431009Y-117314285D02*
X321526247Y-117361904D01*
X321526247Y-117361904D02*
X321764342Y-117361904D01*
X321764342Y-117361904D02*
X321859580Y-117314285D01*
X321859580Y-117314285D02*
X321907200Y-117266666D01*
X321907200Y-117266666D02*
X321954819Y-117171428D01*
X321954819Y-117171428D02*
X321954819Y-116933333D01*
X321954819Y-116933333D02*
X321907200Y-116838095D01*
X321907200Y-116838095D02*
X321859580Y-116790476D01*
X82157819Y-121912142D02*
X81681628Y-121578809D01*
X82157819Y-121340714D02*
X81157819Y-121340714D01*
X81157819Y-121340714D02*
X81157819Y-121721666D01*
X81157819Y-121721666D02*
X81205438Y-121816904D01*
X81205438Y-121816904D02*
X81253057Y-121864523D01*
X81253057Y-121864523D02*
X81348295Y-121912142D01*
X81348295Y-121912142D02*
X81491152Y-121912142D01*
X81491152Y-121912142D02*
X81586390Y-121864523D01*
X81586390Y-121864523D02*
X81634009Y-121816904D01*
X81634009Y-121816904D02*
X81681628Y-121721666D01*
X81681628Y-121721666D02*
X81681628Y-121340714D01*
X82157819Y-122864523D02*
X82157819Y-122293095D01*
X82157819Y-122578809D02*
X81157819Y-122578809D01*
X81157819Y-122578809D02*
X81300676Y-122483571D01*
X81300676Y-122483571D02*
X81395914Y-122388333D01*
X81395914Y-122388333D02*
X81443533Y-122293095D01*
X81157819Y-123721666D02*
X81157819Y-123531190D01*
X81157819Y-123531190D02*
X81205438Y-123435952D01*
X81205438Y-123435952D02*
X81253057Y-123388333D01*
X81253057Y-123388333D02*
X81395914Y-123293095D01*
X81395914Y-123293095D02*
X81586390Y-123245476D01*
X81586390Y-123245476D02*
X81967342Y-123245476D01*
X81967342Y-123245476D02*
X82062580Y-123293095D01*
X82062580Y-123293095D02*
X82110200Y-123340714D01*
X82110200Y-123340714D02*
X82157819Y-123435952D01*
X82157819Y-123435952D02*
X82157819Y-123626428D01*
X82157819Y-123626428D02*
X82110200Y-123721666D01*
X82110200Y-123721666D02*
X82062580Y-123769285D01*
X82062580Y-123769285D02*
X81967342Y-123816904D01*
X81967342Y-123816904D02*
X81729247Y-123816904D01*
X81729247Y-123816904D02*
X81634009Y-123769285D01*
X81634009Y-123769285D02*
X81586390Y-123721666D01*
X81586390Y-123721666D02*
X81538771Y-123626428D01*
X81538771Y-123626428D02*
X81538771Y-123435952D01*
X81538771Y-123435952D02*
X81586390Y-123340714D01*
X81586390Y-123340714D02*
X81634009Y-123293095D01*
X81634009Y-123293095D02*
X81729247Y-123245476D01*
X77839819Y-121912142D02*
X77363628Y-121578809D01*
X77839819Y-121340714D02*
X76839819Y-121340714D01*
X76839819Y-121340714D02*
X76839819Y-121721666D01*
X76839819Y-121721666D02*
X76887438Y-121816904D01*
X76887438Y-121816904D02*
X76935057Y-121864523D01*
X76935057Y-121864523D02*
X77030295Y-121912142D01*
X77030295Y-121912142D02*
X77173152Y-121912142D01*
X77173152Y-121912142D02*
X77268390Y-121864523D01*
X77268390Y-121864523D02*
X77316009Y-121816904D01*
X77316009Y-121816904D02*
X77363628Y-121721666D01*
X77363628Y-121721666D02*
X77363628Y-121340714D01*
X77839819Y-122864523D02*
X77839819Y-122293095D01*
X77839819Y-122578809D02*
X76839819Y-122578809D01*
X76839819Y-122578809D02*
X76982676Y-122483571D01*
X76982676Y-122483571D02*
X77077914Y-122388333D01*
X77077914Y-122388333D02*
X77125533Y-122293095D01*
X76839819Y-123197857D02*
X76839819Y-123864523D01*
X76839819Y-123864523D02*
X77839819Y-123435952D01*
X71254819Y-88557142D02*
X70778628Y-88223809D01*
X71254819Y-87985714D02*
X70254819Y-87985714D01*
X70254819Y-87985714D02*
X70254819Y-88366666D01*
X70254819Y-88366666D02*
X70302438Y-88461904D01*
X70302438Y-88461904D02*
X70350057Y-88509523D01*
X70350057Y-88509523D02*
X70445295Y-88557142D01*
X70445295Y-88557142D02*
X70588152Y-88557142D01*
X70588152Y-88557142D02*
X70683390Y-88509523D01*
X70683390Y-88509523D02*
X70731009Y-88461904D01*
X70731009Y-88461904D02*
X70778628Y-88366666D01*
X70778628Y-88366666D02*
X70778628Y-87985714D01*
X71254819Y-89509523D02*
X71254819Y-88938095D01*
X71254819Y-89223809D02*
X70254819Y-89223809D01*
X70254819Y-89223809D02*
X70397676Y-89128571D01*
X70397676Y-89128571D02*
X70492914Y-89033333D01*
X70492914Y-89033333D02*
X70540533Y-88938095D01*
X70683390Y-90080952D02*
X70635771Y-89985714D01*
X70635771Y-89985714D02*
X70588152Y-89938095D01*
X70588152Y-89938095D02*
X70492914Y-89890476D01*
X70492914Y-89890476D02*
X70445295Y-89890476D01*
X70445295Y-89890476D02*
X70350057Y-89938095D01*
X70350057Y-89938095D02*
X70302438Y-89985714D01*
X70302438Y-89985714D02*
X70254819Y-90080952D01*
X70254819Y-90080952D02*
X70254819Y-90271428D01*
X70254819Y-90271428D02*
X70302438Y-90366666D01*
X70302438Y-90366666D02*
X70350057Y-90414285D01*
X70350057Y-90414285D02*
X70445295Y-90461904D01*
X70445295Y-90461904D02*
X70492914Y-90461904D01*
X70492914Y-90461904D02*
X70588152Y-90414285D01*
X70588152Y-90414285D02*
X70635771Y-90366666D01*
X70635771Y-90366666D02*
X70683390Y-90271428D01*
X70683390Y-90271428D02*
X70683390Y-90080952D01*
X70683390Y-90080952D02*
X70731009Y-89985714D01*
X70731009Y-89985714D02*
X70778628Y-89938095D01*
X70778628Y-89938095D02*
X70873866Y-89890476D01*
X70873866Y-89890476D02*
X71064342Y-89890476D01*
X71064342Y-89890476D02*
X71159580Y-89938095D01*
X71159580Y-89938095D02*
X71207200Y-89985714D01*
X71207200Y-89985714D02*
X71254819Y-90080952D01*
X71254819Y-90080952D02*
X71254819Y-90271428D01*
X71254819Y-90271428D02*
X71207200Y-90366666D01*
X71207200Y-90366666D02*
X71159580Y-90414285D01*
X71159580Y-90414285D02*
X71064342Y-90461904D01*
X71064342Y-90461904D02*
X70873866Y-90461904D01*
X70873866Y-90461904D02*
X70778628Y-90414285D01*
X70778628Y-90414285D02*
X70731009Y-90366666D01*
X70731009Y-90366666D02*
X70683390Y-90271428D01*
X342154819Y-96757142D02*
X341678628Y-96423809D01*
X342154819Y-96185714D02*
X341154819Y-96185714D01*
X341154819Y-96185714D02*
X341154819Y-96566666D01*
X341154819Y-96566666D02*
X341202438Y-96661904D01*
X341202438Y-96661904D02*
X341250057Y-96709523D01*
X341250057Y-96709523D02*
X341345295Y-96757142D01*
X341345295Y-96757142D02*
X341488152Y-96757142D01*
X341488152Y-96757142D02*
X341583390Y-96709523D01*
X341583390Y-96709523D02*
X341631009Y-96661904D01*
X341631009Y-96661904D02*
X341678628Y-96566666D01*
X341678628Y-96566666D02*
X341678628Y-96185714D01*
X342154819Y-97709523D02*
X342154819Y-97138095D01*
X342154819Y-97423809D02*
X341154819Y-97423809D01*
X341154819Y-97423809D02*
X341297676Y-97328571D01*
X341297676Y-97328571D02*
X341392914Y-97233333D01*
X341392914Y-97233333D02*
X341440533Y-97138095D01*
X342154819Y-98185714D02*
X342154819Y-98376190D01*
X342154819Y-98376190D02*
X342107200Y-98471428D01*
X342107200Y-98471428D02*
X342059580Y-98519047D01*
X342059580Y-98519047D02*
X341916723Y-98614285D01*
X341916723Y-98614285D02*
X341726247Y-98661904D01*
X341726247Y-98661904D02*
X341345295Y-98661904D01*
X341345295Y-98661904D02*
X341250057Y-98614285D01*
X341250057Y-98614285D02*
X341202438Y-98566666D01*
X341202438Y-98566666D02*
X341154819Y-98471428D01*
X341154819Y-98471428D02*
X341154819Y-98280952D01*
X341154819Y-98280952D02*
X341202438Y-98185714D01*
X341202438Y-98185714D02*
X341250057Y-98138095D01*
X341250057Y-98138095D02*
X341345295Y-98090476D01*
X341345295Y-98090476D02*
X341583390Y-98090476D01*
X341583390Y-98090476D02*
X341678628Y-98138095D01*
X341678628Y-98138095D02*
X341726247Y-98185714D01*
X341726247Y-98185714D02*
X341773866Y-98280952D01*
X341773866Y-98280952D02*
X341773866Y-98471428D01*
X341773866Y-98471428D02*
X341726247Y-98566666D01*
X341726247Y-98566666D02*
X341678628Y-98614285D01*
X341678628Y-98614285D02*
X341583390Y-98661904D01*
X343669857Y-60313819D02*
X344003190Y-59837628D01*
X344241285Y-60313819D02*
X344241285Y-59313819D01*
X344241285Y-59313819D02*
X343860333Y-59313819D01*
X343860333Y-59313819D02*
X343765095Y-59361438D01*
X343765095Y-59361438D02*
X343717476Y-59409057D01*
X343717476Y-59409057D02*
X343669857Y-59504295D01*
X343669857Y-59504295D02*
X343669857Y-59647152D01*
X343669857Y-59647152D02*
X343717476Y-59742390D01*
X343717476Y-59742390D02*
X343765095Y-59790009D01*
X343765095Y-59790009D02*
X343860333Y-59837628D01*
X343860333Y-59837628D02*
X344241285Y-59837628D01*
X343288904Y-59409057D02*
X343241285Y-59361438D01*
X343241285Y-59361438D02*
X343146047Y-59313819D01*
X343146047Y-59313819D02*
X342907952Y-59313819D01*
X342907952Y-59313819D02*
X342812714Y-59361438D01*
X342812714Y-59361438D02*
X342765095Y-59409057D01*
X342765095Y-59409057D02*
X342717476Y-59504295D01*
X342717476Y-59504295D02*
X342717476Y-59599533D01*
X342717476Y-59599533D02*
X342765095Y-59742390D01*
X342765095Y-59742390D02*
X343336523Y-60313819D01*
X343336523Y-60313819D02*
X342717476Y-60313819D01*
X342098428Y-59313819D02*
X342003190Y-59313819D01*
X342003190Y-59313819D02*
X341907952Y-59361438D01*
X341907952Y-59361438D02*
X341860333Y-59409057D01*
X341860333Y-59409057D02*
X341812714Y-59504295D01*
X341812714Y-59504295D02*
X341765095Y-59694771D01*
X341765095Y-59694771D02*
X341765095Y-59932866D01*
X341765095Y-59932866D02*
X341812714Y-60123342D01*
X341812714Y-60123342D02*
X341860333Y-60218580D01*
X341860333Y-60218580D02*
X341907952Y-60266200D01*
X341907952Y-60266200D02*
X342003190Y-60313819D01*
X342003190Y-60313819D02*
X342098428Y-60313819D01*
X342098428Y-60313819D02*
X342193666Y-60266200D01*
X342193666Y-60266200D02*
X342241285Y-60218580D01*
X342241285Y-60218580D02*
X342288904Y-60123342D01*
X342288904Y-60123342D02*
X342336523Y-59932866D01*
X342336523Y-59932866D02*
X342336523Y-59694771D01*
X342336523Y-59694771D02*
X342288904Y-59504295D01*
X342288904Y-59504295D02*
X342241285Y-59409057D01*
X342241285Y-59409057D02*
X342193666Y-59361438D01*
X342193666Y-59361438D02*
X342098428Y-59313819D01*
X110497857Y-66198819D02*
X110831190Y-65722628D01*
X111069285Y-66198819D02*
X111069285Y-65198819D01*
X111069285Y-65198819D02*
X110688333Y-65198819D01*
X110688333Y-65198819D02*
X110593095Y-65246438D01*
X110593095Y-65246438D02*
X110545476Y-65294057D01*
X110545476Y-65294057D02*
X110497857Y-65389295D01*
X110497857Y-65389295D02*
X110497857Y-65532152D01*
X110497857Y-65532152D02*
X110545476Y-65627390D01*
X110545476Y-65627390D02*
X110593095Y-65675009D01*
X110593095Y-65675009D02*
X110688333Y-65722628D01*
X110688333Y-65722628D02*
X111069285Y-65722628D01*
X110116904Y-65294057D02*
X110069285Y-65246438D01*
X110069285Y-65246438D02*
X109974047Y-65198819D01*
X109974047Y-65198819D02*
X109735952Y-65198819D01*
X109735952Y-65198819D02*
X109640714Y-65246438D01*
X109640714Y-65246438D02*
X109593095Y-65294057D01*
X109593095Y-65294057D02*
X109545476Y-65389295D01*
X109545476Y-65389295D02*
X109545476Y-65484533D01*
X109545476Y-65484533D02*
X109593095Y-65627390D01*
X109593095Y-65627390D02*
X110164523Y-66198819D01*
X110164523Y-66198819D02*
X109545476Y-66198819D01*
X108593095Y-66198819D02*
X109164523Y-66198819D01*
X108878809Y-66198819D02*
X108878809Y-65198819D01*
X108878809Y-65198819D02*
X108974047Y-65341676D01*
X108974047Y-65341676D02*
X109069285Y-65436914D01*
X109069285Y-65436914D02*
X109164523Y-65484533D01*
X357620819Y-93972142D02*
X357144628Y-93638809D01*
X357620819Y-93400714D02*
X356620819Y-93400714D01*
X356620819Y-93400714D02*
X356620819Y-93781666D01*
X356620819Y-93781666D02*
X356668438Y-93876904D01*
X356668438Y-93876904D02*
X356716057Y-93924523D01*
X356716057Y-93924523D02*
X356811295Y-93972142D01*
X356811295Y-93972142D02*
X356954152Y-93972142D01*
X356954152Y-93972142D02*
X357049390Y-93924523D01*
X357049390Y-93924523D02*
X357097009Y-93876904D01*
X357097009Y-93876904D02*
X357144628Y-93781666D01*
X357144628Y-93781666D02*
X357144628Y-93400714D01*
X356716057Y-94353095D02*
X356668438Y-94400714D01*
X356668438Y-94400714D02*
X356620819Y-94495952D01*
X356620819Y-94495952D02*
X356620819Y-94734047D01*
X356620819Y-94734047D02*
X356668438Y-94829285D01*
X356668438Y-94829285D02*
X356716057Y-94876904D01*
X356716057Y-94876904D02*
X356811295Y-94924523D01*
X356811295Y-94924523D02*
X356906533Y-94924523D01*
X356906533Y-94924523D02*
X357049390Y-94876904D01*
X357049390Y-94876904D02*
X357620819Y-94305476D01*
X357620819Y-94305476D02*
X357620819Y-94924523D01*
X356620819Y-95829285D02*
X356620819Y-95353095D01*
X356620819Y-95353095D02*
X357097009Y-95305476D01*
X357097009Y-95305476D02*
X357049390Y-95353095D01*
X357049390Y-95353095D02*
X357001771Y-95448333D01*
X357001771Y-95448333D02*
X357001771Y-95686428D01*
X357001771Y-95686428D02*
X357049390Y-95781666D01*
X357049390Y-95781666D02*
X357097009Y-95829285D01*
X357097009Y-95829285D02*
X357192247Y-95876904D01*
X357192247Y-95876904D02*
X357430342Y-95876904D01*
X357430342Y-95876904D02*
X357525580Y-95829285D01*
X357525580Y-95829285D02*
X357573200Y-95781666D01*
X357573200Y-95781666D02*
X357620819Y-95686428D01*
X357620819Y-95686428D02*
X357620819Y-95448333D01*
X357620819Y-95448333D02*
X357573200Y-95353095D01*
X357573200Y-95353095D02*
X357525580Y-95305476D01*
X112529857Y-64377819D02*
X112863190Y-63901628D01*
X113101285Y-64377819D02*
X113101285Y-63377819D01*
X113101285Y-63377819D02*
X112720333Y-63377819D01*
X112720333Y-63377819D02*
X112625095Y-63425438D01*
X112625095Y-63425438D02*
X112577476Y-63473057D01*
X112577476Y-63473057D02*
X112529857Y-63568295D01*
X112529857Y-63568295D02*
X112529857Y-63711152D01*
X112529857Y-63711152D02*
X112577476Y-63806390D01*
X112577476Y-63806390D02*
X112625095Y-63854009D01*
X112625095Y-63854009D02*
X112720333Y-63901628D01*
X112720333Y-63901628D02*
X113101285Y-63901628D01*
X112148904Y-63473057D02*
X112101285Y-63425438D01*
X112101285Y-63425438D02*
X112006047Y-63377819D01*
X112006047Y-63377819D02*
X111767952Y-63377819D01*
X111767952Y-63377819D02*
X111672714Y-63425438D01*
X111672714Y-63425438D02*
X111625095Y-63473057D01*
X111625095Y-63473057D02*
X111577476Y-63568295D01*
X111577476Y-63568295D02*
X111577476Y-63663533D01*
X111577476Y-63663533D02*
X111625095Y-63806390D01*
X111625095Y-63806390D02*
X112196523Y-64377819D01*
X112196523Y-64377819D02*
X111577476Y-64377819D01*
X110720333Y-63377819D02*
X110910809Y-63377819D01*
X110910809Y-63377819D02*
X111006047Y-63425438D01*
X111006047Y-63425438D02*
X111053666Y-63473057D01*
X111053666Y-63473057D02*
X111148904Y-63615914D01*
X111148904Y-63615914D02*
X111196523Y-63806390D01*
X111196523Y-63806390D02*
X111196523Y-64187342D01*
X111196523Y-64187342D02*
X111148904Y-64282580D01*
X111148904Y-64282580D02*
X111101285Y-64330200D01*
X111101285Y-64330200D02*
X111006047Y-64377819D01*
X111006047Y-64377819D02*
X110815571Y-64377819D01*
X110815571Y-64377819D02*
X110720333Y-64330200D01*
X110720333Y-64330200D02*
X110672714Y-64282580D01*
X110672714Y-64282580D02*
X110625095Y-64187342D01*
X110625095Y-64187342D02*
X110625095Y-63949247D01*
X110625095Y-63949247D02*
X110672714Y-63854009D01*
X110672714Y-63854009D02*
X110720333Y-63806390D01*
X110720333Y-63806390D02*
X110815571Y-63758771D01*
X110815571Y-63758771D02*
X111006047Y-63758771D01*
X111006047Y-63758771D02*
X111101285Y-63806390D01*
X111101285Y-63806390D02*
X111148904Y-63854009D01*
X111148904Y-63854009D02*
X111196523Y-63949247D01*
X349242857Y-85354819D02*
X349576190Y-84878628D01*
X349814285Y-85354819D02*
X349814285Y-84354819D01*
X349814285Y-84354819D02*
X349433333Y-84354819D01*
X349433333Y-84354819D02*
X349338095Y-84402438D01*
X349338095Y-84402438D02*
X349290476Y-84450057D01*
X349290476Y-84450057D02*
X349242857Y-84545295D01*
X349242857Y-84545295D02*
X349242857Y-84688152D01*
X349242857Y-84688152D02*
X349290476Y-84783390D01*
X349290476Y-84783390D02*
X349338095Y-84831009D01*
X349338095Y-84831009D02*
X349433333Y-84878628D01*
X349433333Y-84878628D02*
X349814285Y-84878628D01*
X348861904Y-84450057D02*
X348814285Y-84402438D01*
X348814285Y-84402438D02*
X348719047Y-84354819D01*
X348719047Y-84354819D02*
X348480952Y-84354819D01*
X348480952Y-84354819D02*
X348385714Y-84402438D01*
X348385714Y-84402438D02*
X348338095Y-84450057D01*
X348338095Y-84450057D02*
X348290476Y-84545295D01*
X348290476Y-84545295D02*
X348290476Y-84640533D01*
X348290476Y-84640533D02*
X348338095Y-84783390D01*
X348338095Y-84783390D02*
X348909523Y-85354819D01*
X348909523Y-85354819D02*
X348290476Y-85354819D01*
X347957142Y-84354819D02*
X347290476Y-84354819D01*
X347290476Y-84354819D02*
X347719047Y-85354819D01*
X85842857Y-99854819D02*
X86176190Y-99378628D01*
X86414285Y-99854819D02*
X86414285Y-98854819D01*
X86414285Y-98854819D02*
X86033333Y-98854819D01*
X86033333Y-98854819D02*
X85938095Y-98902438D01*
X85938095Y-98902438D02*
X85890476Y-98950057D01*
X85890476Y-98950057D02*
X85842857Y-99045295D01*
X85842857Y-99045295D02*
X85842857Y-99188152D01*
X85842857Y-99188152D02*
X85890476Y-99283390D01*
X85890476Y-99283390D02*
X85938095Y-99331009D01*
X85938095Y-99331009D02*
X86033333Y-99378628D01*
X86033333Y-99378628D02*
X86414285Y-99378628D01*
X85509523Y-98854819D02*
X84890476Y-98854819D01*
X84890476Y-98854819D02*
X85223809Y-99235771D01*
X85223809Y-99235771D02*
X85080952Y-99235771D01*
X85080952Y-99235771D02*
X84985714Y-99283390D01*
X84985714Y-99283390D02*
X84938095Y-99331009D01*
X84938095Y-99331009D02*
X84890476Y-99426247D01*
X84890476Y-99426247D02*
X84890476Y-99664342D01*
X84890476Y-99664342D02*
X84938095Y-99759580D01*
X84938095Y-99759580D02*
X84985714Y-99807200D01*
X84985714Y-99807200D02*
X85080952Y-99854819D01*
X85080952Y-99854819D02*
X85366666Y-99854819D01*
X85366666Y-99854819D02*
X85461904Y-99807200D01*
X85461904Y-99807200D02*
X85509523Y-99759580D01*
X84271428Y-98854819D02*
X84176190Y-98854819D01*
X84176190Y-98854819D02*
X84080952Y-98902438D01*
X84080952Y-98902438D02*
X84033333Y-98950057D01*
X84033333Y-98950057D02*
X83985714Y-99045295D01*
X83985714Y-99045295D02*
X83938095Y-99235771D01*
X83938095Y-99235771D02*
X83938095Y-99473866D01*
X83938095Y-99473866D02*
X83985714Y-99664342D01*
X83985714Y-99664342D02*
X84033333Y-99759580D01*
X84033333Y-99759580D02*
X84080952Y-99807200D01*
X84080952Y-99807200D02*
X84176190Y-99854819D01*
X84176190Y-99854819D02*
X84271428Y-99854819D01*
X84271428Y-99854819D02*
X84366666Y-99807200D01*
X84366666Y-99807200D02*
X84414285Y-99759580D01*
X84414285Y-99759580D02*
X84461904Y-99664342D01*
X84461904Y-99664342D02*
X84509523Y-99473866D01*
X84509523Y-99473866D02*
X84509523Y-99235771D01*
X84509523Y-99235771D02*
X84461904Y-99045295D01*
X84461904Y-99045295D02*
X84414285Y-98950057D01*
X84414285Y-98950057D02*
X84366666Y-98902438D01*
X84366666Y-98902438D02*
X84271428Y-98854819D01*
X86342857Y-103254819D02*
X86676190Y-102778628D01*
X86914285Y-103254819D02*
X86914285Y-102254819D01*
X86914285Y-102254819D02*
X86533333Y-102254819D01*
X86533333Y-102254819D02*
X86438095Y-102302438D01*
X86438095Y-102302438D02*
X86390476Y-102350057D01*
X86390476Y-102350057D02*
X86342857Y-102445295D01*
X86342857Y-102445295D02*
X86342857Y-102588152D01*
X86342857Y-102588152D02*
X86390476Y-102683390D01*
X86390476Y-102683390D02*
X86438095Y-102731009D01*
X86438095Y-102731009D02*
X86533333Y-102778628D01*
X86533333Y-102778628D02*
X86914285Y-102778628D01*
X86009523Y-102254819D02*
X85390476Y-102254819D01*
X85390476Y-102254819D02*
X85723809Y-102635771D01*
X85723809Y-102635771D02*
X85580952Y-102635771D01*
X85580952Y-102635771D02*
X85485714Y-102683390D01*
X85485714Y-102683390D02*
X85438095Y-102731009D01*
X85438095Y-102731009D02*
X85390476Y-102826247D01*
X85390476Y-102826247D02*
X85390476Y-103064342D01*
X85390476Y-103064342D02*
X85438095Y-103159580D01*
X85438095Y-103159580D02*
X85485714Y-103207200D01*
X85485714Y-103207200D02*
X85580952Y-103254819D01*
X85580952Y-103254819D02*
X85866666Y-103254819D01*
X85866666Y-103254819D02*
X85961904Y-103207200D01*
X85961904Y-103207200D02*
X86009523Y-103159580D01*
X84438095Y-103254819D02*
X85009523Y-103254819D01*
X84723809Y-103254819D02*
X84723809Y-102254819D01*
X84723809Y-102254819D02*
X84819047Y-102397676D01*
X84819047Y-102397676D02*
X84914285Y-102492914D01*
X84914285Y-102492914D02*
X85009523Y-102540533D01*
X81033857Y-139053819D02*
X81367190Y-138577628D01*
X81605285Y-139053819D02*
X81605285Y-138053819D01*
X81605285Y-138053819D02*
X81224333Y-138053819D01*
X81224333Y-138053819D02*
X81129095Y-138101438D01*
X81129095Y-138101438D02*
X81081476Y-138149057D01*
X81081476Y-138149057D02*
X81033857Y-138244295D01*
X81033857Y-138244295D02*
X81033857Y-138387152D01*
X81033857Y-138387152D02*
X81081476Y-138482390D01*
X81081476Y-138482390D02*
X81129095Y-138530009D01*
X81129095Y-138530009D02*
X81224333Y-138577628D01*
X81224333Y-138577628D02*
X81605285Y-138577628D01*
X80700523Y-138053819D02*
X80081476Y-138053819D01*
X80081476Y-138053819D02*
X80414809Y-138434771D01*
X80414809Y-138434771D02*
X80271952Y-138434771D01*
X80271952Y-138434771D02*
X80176714Y-138482390D01*
X80176714Y-138482390D02*
X80129095Y-138530009D01*
X80129095Y-138530009D02*
X80081476Y-138625247D01*
X80081476Y-138625247D02*
X80081476Y-138863342D01*
X80081476Y-138863342D02*
X80129095Y-138958580D01*
X80129095Y-138958580D02*
X80176714Y-139006200D01*
X80176714Y-139006200D02*
X80271952Y-139053819D01*
X80271952Y-139053819D02*
X80557666Y-139053819D01*
X80557666Y-139053819D02*
X80652904Y-139006200D01*
X80652904Y-139006200D02*
X80700523Y-138958580D01*
X79700523Y-138149057D02*
X79652904Y-138101438D01*
X79652904Y-138101438D02*
X79557666Y-138053819D01*
X79557666Y-138053819D02*
X79319571Y-138053819D01*
X79319571Y-138053819D02*
X79224333Y-138101438D01*
X79224333Y-138101438D02*
X79176714Y-138149057D01*
X79176714Y-138149057D02*
X79129095Y-138244295D01*
X79129095Y-138244295D02*
X79129095Y-138339533D01*
X79129095Y-138339533D02*
X79176714Y-138482390D01*
X79176714Y-138482390D02*
X79748142Y-139053819D01*
X79748142Y-139053819D02*
X79129095Y-139053819D01*
X85142857Y-134154819D02*
X85476190Y-133678628D01*
X85714285Y-134154819D02*
X85714285Y-133154819D01*
X85714285Y-133154819D02*
X85333333Y-133154819D01*
X85333333Y-133154819D02*
X85238095Y-133202438D01*
X85238095Y-133202438D02*
X85190476Y-133250057D01*
X85190476Y-133250057D02*
X85142857Y-133345295D01*
X85142857Y-133345295D02*
X85142857Y-133488152D01*
X85142857Y-133488152D02*
X85190476Y-133583390D01*
X85190476Y-133583390D02*
X85238095Y-133631009D01*
X85238095Y-133631009D02*
X85333333Y-133678628D01*
X85333333Y-133678628D02*
X85714285Y-133678628D01*
X84809523Y-133154819D02*
X84190476Y-133154819D01*
X84190476Y-133154819D02*
X84523809Y-133535771D01*
X84523809Y-133535771D02*
X84380952Y-133535771D01*
X84380952Y-133535771D02*
X84285714Y-133583390D01*
X84285714Y-133583390D02*
X84238095Y-133631009D01*
X84238095Y-133631009D02*
X84190476Y-133726247D01*
X84190476Y-133726247D02*
X84190476Y-133964342D01*
X84190476Y-133964342D02*
X84238095Y-134059580D01*
X84238095Y-134059580D02*
X84285714Y-134107200D01*
X84285714Y-134107200D02*
X84380952Y-134154819D01*
X84380952Y-134154819D02*
X84666666Y-134154819D01*
X84666666Y-134154819D02*
X84761904Y-134107200D01*
X84761904Y-134107200D02*
X84809523Y-134059580D01*
X83857142Y-133154819D02*
X83238095Y-133154819D01*
X83238095Y-133154819D02*
X83571428Y-133535771D01*
X83571428Y-133535771D02*
X83428571Y-133535771D01*
X83428571Y-133535771D02*
X83333333Y-133583390D01*
X83333333Y-133583390D02*
X83285714Y-133631009D01*
X83285714Y-133631009D02*
X83238095Y-133726247D01*
X83238095Y-133726247D02*
X83238095Y-133964342D01*
X83238095Y-133964342D02*
X83285714Y-134059580D01*
X83285714Y-134059580D02*
X83333333Y-134107200D01*
X83333333Y-134107200D02*
X83428571Y-134154819D01*
X83428571Y-134154819D02*
X83714285Y-134154819D01*
X83714285Y-134154819D02*
X83809523Y-134107200D01*
X83809523Y-134107200D02*
X83857142Y-134059580D01*
X65242857Y-99554819D02*
X65576190Y-99078628D01*
X65814285Y-99554819D02*
X65814285Y-98554819D01*
X65814285Y-98554819D02*
X65433333Y-98554819D01*
X65433333Y-98554819D02*
X65338095Y-98602438D01*
X65338095Y-98602438D02*
X65290476Y-98650057D01*
X65290476Y-98650057D02*
X65242857Y-98745295D01*
X65242857Y-98745295D02*
X65242857Y-98888152D01*
X65242857Y-98888152D02*
X65290476Y-98983390D01*
X65290476Y-98983390D02*
X65338095Y-99031009D01*
X65338095Y-99031009D02*
X65433333Y-99078628D01*
X65433333Y-99078628D02*
X65814285Y-99078628D01*
X64909523Y-98554819D02*
X64290476Y-98554819D01*
X64290476Y-98554819D02*
X64623809Y-98935771D01*
X64623809Y-98935771D02*
X64480952Y-98935771D01*
X64480952Y-98935771D02*
X64385714Y-98983390D01*
X64385714Y-98983390D02*
X64338095Y-99031009D01*
X64338095Y-99031009D02*
X64290476Y-99126247D01*
X64290476Y-99126247D02*
X64290476Y-99364342D01*
X64290476Y-99364342D02*
X64338095Y-99459580D01*
X64338095Y-99459580D02*
X64385714Y-99507200D01*
X64385714Y-99507200D02*
X64480952Y-99554819D01*
X64480952Y-99554819D02*
X64766666Y-99554819D01*
X64766666Y-99554819D02*
X64861904Y-99507200D01*
X64861904Y-99507200D02*
X64909523Y-99459580D01*
X63433333Y-98888152D02*
X63433333Y-99554819D01*
X63671428Y-98507200D02*
X63909523Y-99221485D01*
X63909523Y-99221485D02*
X63290476Y-99221485D01*
X316854819Y-115557142D02*
X316378628Y-115223809D01*
X316854819Y-114985714D02*
X315854819Y-114985714D01*
X315854819Y-114985714D02*
X315854819Y-115366666D01*
X315854819Y-115366666D02*
X315902438Y-115461904D01*
X315902438Y-115461904D02*
X315950057Y-115509523D01*
X315950057Y-115509523D02*
X316045295Y-115557142D01*
X316045295Y-115557142D02*
X316188152Y-115557142D01*
X316188152Y-115557142D02*
X316283390Y-115509523D01*
X316283390Y-115509523D02*
X316331009Y-115461904D01*
X316331009Y-115461904D02*
X316378628Y-115366666D01*
X316378628Y-115366666D02*
X316378628Y-114985714D01*
X315854819Y-115890476D02*
X315854819Y-116509523D01*
X315854819Y-116509523D02*
X316235771Y-116176190D01*
X316235771Y-116176190D02*
X316235771Y-116319047D01*
X316235771Y-116319047D02*
X316283390Y-116414285D01*
X316283390Y-116414285D02*
X316331009Y-116461904D01*
X316331009Y-116461904D02*
X316426247Y-116509523D01*
X316426247Y-116509523D02*
X316664342Y-116509523D01*
X316664342Y-116509523D02*
X316759580Y-116461904D01*
X316759580Y-116461904D02*
X316807200Y-116414285D01*
X316807200Y-116414285D02*
X316854819Y-116319047D01*
X316854819Y-116319047D02*
X316854819Y-116033333D01*
X316854819Y-116033333D02*
X316807200Y-115938095D01*
X316807200Y-115938095D02*
X316759580Y-115890476D01*
X315854819Y-117366666D02*
X315854819Y-117176190D01*
X315854819Y-117176190D02*
X315902438Y-117080952D01*
X315902438Y-117080952D02*
X315950057Y-117033333D01*
X315950057Y-117033333D02*
X316092914Y-116938095D01*
X316092914Y-116938095D02*
X316283390Y-116890476D01*
X316283390Y-116890476D02*
X316664342Y-116890476D01*
X316664342Y-116890476D02*
X316759580Y-116938095D01*
X316759580Y-116938095D02*
X316807200Y-116985714D01*
X316807200Y-116985714D02*
X316854819Y-117080952D01*
X316854819Y-117080952D02*
X316854819Y-117271428D01*
X316854819Y-117271428D02*
X316807200Y-117366666D01*
X316807200Y-117366666D02*
X316759580Y-117414285D01*
X316759580Y-117414285D02*
X316664342Y-117461904D01*
X316664342Y-117461904D02*
X316426247Y-117461904D01*
X316426247Y-117461904D02*
X316331009Y-117414285D01*
X316331009Y-117414285D02*
X316283390Y-117366666D01*
X316283390Y-117366666D02*
X316235771Y-117271428D01*
X316235771Y-117271428D02*
X316235771Y-117080952D01*
X316235771Y-117080952D02*
X316283390Y-116985714D01*
X316283390Y-116985714D02*
X316331009Y-116938095D01*
X316331009Y-116938095D02*
X316426247Y-116890476D01*
X311942857Y-123754819D02*
X312276190Y-123278628D01*
X312514285Y-123754819D02*
X312514285Y-122754819D01*
X312514285Y-122754819D02*
X312133333Y-122754819D01*
X312133333Y-122754819D02*
X312038095Y-122802438D01*
X312038095Y-122802438D02*
X311990476Y-122850057D01*
X311990476Y-122850057D02*
X311942857Y-122945295D01*
X311942857Y-122945295D02*
X311942857Y-123088152D01*
X311942857Y-123088152D02*
X311990476Y-123183390D01*
X311990476Y-123183390D02*
X312038095Y-123231009D01*
X312038095Y-123231009D02*
X312133333Y-123278628D01*
X312133333Y-123278628D02*
X312514285Y-123278628D01*
X311609523Y-122754819D02*
X310990476Y-122754819D01*
X310990476Y-122754819D02*
X311323809Y-123135771D01*
X311323809Y-123135771D02*
X311180952Y-123135771D01*
X311180952Y-123135771D02*
X311085714Y-123183390D01*
X311085714Y-123183390D02*
X311038095Y-123231009D01*
X311038095Y-123231009D02*
X310990476Y-123326247D01*
X310990476Y-123326247D02*
X310990476Y-123564342D01*
X310990476Y-123564342D02*
X311038095Y-123659580D01*
X311038095Y-123659580D02*
X311085714Y-123707200D01*
X311085714Y-123707200D02*
X311180952Y-123754819D01*
X311180952Y-123754819D02*
X311466666Y-123754819D01*
X311466666Y-123754819D02*
X311561904Y-123707200D01*
X311561904Y-123707200D02*
X311609523Y-123659580D01*
X310657142Y-122754819D02*
X309990476Y-122754819D01*
X309990476Y-122754819D02*
X310419047Y-123754819D01*
X304807857Y-120003819D02*
X305141190Y-119527628D01*
X305379285Y-120003819D02*
X305379285Y-119003819D01*
X305379285Y-119003819D02*
X304998333Y-119003819D01*
X304998333Y-119003819D02*
X304903095Y-119051438D01*
X304903095Y-119051438D02*
X304855476Y-119099057D01*
X304855476Y-119099057D02*
X304807857Y-119194295D01*
X304807857Y-119194295D02*
X304807857Y-119337152D01*
X304807857Y-119337152D02*
X304855476Y-119432390D01*
X304855476Y-119432390D02*
X304903095Y-119480009D01*
X304903095Y-119480009D02*
X304998333Y-119527628D01*
X304998333Y-119527628D02*
X305379285Y-119527628D01*
X304474523Y-119003819D02*
X303855476Y-119003819D01*
X303855476Y-119003819D02*
X304188809Y-119384771D01*
X304188809Y-119384771D02*
X304045952Y-119384771D01*
X304045952Y-119384771D02*
X303950714Y-119432390D01*
X303950714Y-119432390D02*
X303903095Y-119480009D01*
X303903095Y-119480009D02*
X303855476Y-119575247D01*
X303855476Y-119575247D02*
X303855476Y-119813342D01*
X303855476Y-119813342D02*
X303903095Y-119908580D01*
X303903095Y-119908580D02*
X303950714Y-119956200D01*
X303950714Y-119956200D02*
X304045952Y-120003819D01*
X304045952Y-120003819D02*
X304331666Y-120003819D01*
X304331666Y-120003819D02*
X304426904Y-119956200D01*
X304426904Y-119956200D02*
X304474523Y-119908580D01*
X303284047Y-119432390D02*
X303379285Y-119384771D01*
X303379285Y-119384771D02*
X303426904Y-119337152D01*
X303426904Y-119337152D02*
X303474523Y-119241914D01*
X303474523Y-119241914D02*
X303474523Y-119194295D01*
X303474523Y-119194295D02*
X303426904Y-119099057D01*
X303426904Y-119099057D02*
X303379285Y-119051438D01*
X303379285Y-119051438D02*
X303284047Y-119003819D01*
X303284047Y-119003819D02*
X303093571Y-119003819D01*
X303093571Y-119003819D02*
X302998333Y-119051438D01*
X302998333Y-119051438D02*
X302950714Y-119099057D01*
X302950714Y-119099057D02*
X302903095Y-119194295D01*
X302903095Y-119194295D02*
X302903095Y-119241914D01*
X302903095Y-119241914D02*
X302950714Y-119337152D01*
X302950714Y-119337152D02*
X302998333Y-119384771D01*
X302998333Y-119384771D02*
X303093571Y-119432390D01*
X303093571Y-119432390D02*
X303284047Y-119432390D01*
X303284047Y-119432390D02*
X303379285Y-119480009D01*
X303379285Y-119480009D02*
X303426904Y-119527628D01*
X303426904Y-119527628D02*
X303474523Y-119622866D01*
X303474523Y-119622866D02*
X303474523Y-119813342D01*
X303474523Y-119813342D02*
X303426904Y-119908580D01*
X303426904Y-119908580D02*
X303379285Y-119956200D01*
X303379285Y-119956200D02*
X303284047Y-120003819D01*
X303284047Y-120003819D02*
X303093571Y-120003819D01*
X303093571Y-120003819D02*
X302998333Y-119956200D01*
X302998333Y-119956200D02*
X302950714Y-119908580D01*
X302950714Y-119908580D02*
X302903095Y-119813342D01*
X302903095Y-119813342D02*
X302903095Y-119622866D01*
X302903095Y-119622866D02*
X302950714Y-119527628D01*
X302950714Y-119527628D02*
X302998333Y-119480009D01*
X302998333Y-119480009D02*
X303093571Y-119432390D01*
X72754819Y-136057142D02*
X72278628Y-135723809D01*
X72754819Y-135485714D02*
X71754819Y-135485714D01*
X71754819Y-135485714D02*
X71754819Y-135866666D01*
X71754819Y-135866666D02*
X71802438Y-135961904D01*
X71802438Y-135961904D02*
X71850057Y-136009523D01*
X71850057Y-136009523D02*
X71945295Y-136057142D01*
X71945295Y-136057142D02*
X72088152Y-136057142D01*
X72088152Y-136057142D02*
X72183390Y-136009523D01*
X72183390Y-136009523D02*
X72231009Y-135961904D01*
X72231009Y-135961904D02*
X72278628Y-135866666D01*
X72278628Y-135866666D02*
X72278628Y-135485714D01*
X71754819Y-136390476D02*
X71754819Y-137009523D01*
X71754819Y-137009523D02*
X72135771Y-136676190D01*
X72135771Y-136676190D02*
X72135771Y-136819047D01*
X72135771Y-136819047D02*
X72183390Y-136914285D01*
X72183390Y-136914285D02*
X72231009Y-136961904D01*
X72231009Y-136961904D02*
X72326247Y-137009523D01*
X72326247Y-137009523D02*
X72564342Y-137009523D01*
X72564342Y-137009523D02*
X72659580Y-136961904D01*
X72659580Y-136961904D02*
X72707200Y-136914285D01*
X72707200Y-136914285D02*
X72754819Y-136819047D01*
X72754819Y-136819047D02*
X72754819Y-136533333D01*
X72754819Y-136533333D02*
X72707200Y-136438095D01*
X72707200Y-136438095D02*
X72659580Y-136390476D01*
X72754819Y-137485714D02*
X72754819Y-137676190D01*
X72754819Y-137676190D02*
X72707200Y-137771428D01*
X72707200Y-137771428D02*
X72659580Y-137819047D01*
X72659580Y-137819047D02*
X72516723Y-137914285D01*
X72516723Y-137914285D02*
X72326247Y-137961904D01*
X72326247Y-137961904D02*
X71945295Y-137961904D01*
X71945295Y-137961904D02*
X71850057Y-137914285D01*
X71850057Y-137914285D02*
X71802438Y-137866666D01*
X71802438Y-137866666D02*
X71754819Y-137771428D01*
X71754819Y-137771428D02*
X71754819Y-137580952D01*
X71754819Y-137580952D02*
X71802438Y-137485714D01*
X71802438Y-137485714D02*
X71850057Y-137438095D01*
X71850057Y-137438095D02*
X71945295Y-137390476D01*
X71945295Y-137390476D02*
X72183390Y-137390476D01*
X72183390Y-137390476D02*
X72278628Y-137438095D01*
X72278628Y-137438095D02*
X72326247Y-137485714D01*
X72326247Y-137485714D02*
X72373866Y-137580952D01*
X72373866Y-137580952D02*
X72373866Y-137771428D01*
X72373866Y-137771428D02*
X72326247Y-137866666D01*
X72326247Y-137866666D02*
X72278628Y-137914285D01*
X72278628Y-137914285D02*
X72183390Y-137961904D01*
X75699857Y-132365819D02*
X76033190Y-131889628D01*
X76271285Y-132365819D02*
X76271285Y-131365819D01*
X76271285Y-131365819D02*
X75890333Y-131365819D01*
X75890333Y-131365819D02*
X75795095Y-131413438D01*
X75795095Y-131413438D02*
X75747476Y-131461057D01*
X75747476Y-131461057D02*
X75699857Y-131556295D01*
X75699857Y-131556295D02*
X75699857Y-131699152D01*
X75699857Y-131699152D02*
X75747476Y-131794390D01*
X75747476Y-131794390D02*
X75795095Y-131842009D01*
X75795095Y-131842009D02*
X75890333Y-131889628D01*
X75890333Y-131889628D02*
X76271285Y-131889628D01*
X74842714Y-131699152D02*
X74842714Y-132365819D01*
X75080809Y-131318200D02*
X75318904Y-132032485D01*
X75318904Y-132032485D02*
X74699857Y-132032485D01*
X74128428Y-131365819D02*
X74033190Y-131365819D01*
X74033190Y-131365819D02*
X73937952Y-131413438D01*
X73937952Y-131413438D02*
X73890333Y-131461057D01*
X73890333Y-131461057D02*
X73842714Y-131556295D01*
X73842714Y-131556295D02*
X73795095Y-131746771D01*
X73795095Y-131746771D02*
X73795095Y-131984866D01*
X73795095Y-131984866D02*
X73842714Y-132175342D01*
X73842714Y-132175342D02*
X73890333Y-132270580D01*
X73890333Y-132270580D02*
X73937952Y-132318200D01*
X73937952Y-132318200D02*
X74033190Y-132365819D01*
X74033190Y-132365819D02*
X74128428Y-132365819D01*
X74128428Y-132365819D02*
X74223666Y-132318200D01*
X74223666Y-132318200D02*
X74271285Y-132270580D01*
X74271285Y-132270580D02*
X74318904Y-132175342D01*
X74318904Y-132175342D02*
X74366523Y-131984866D01*
X74366523Y-131984866D02*
X74366523Y-131746771D01*
X74366523Y-131746771D02*
X74318904Y-131556295D01*
X74318904Y-131556295D02*
X74271285Y-131461057D01*
X74271285Y-131461057D02*
X74223666Y-131413438D01*
X74223666Y-131413438D02*
X74128428Y-131365819D01*
X65342857Y-96154819D02*
X65676190Y-95678628D01*
X65914285Y-96154819D02*
X65914285Y-95154819D01*
X65914285Y-95154819D02*
X65533333Y-95154819D01*
X65533333Y-95154819D02*
X65438095Y-95202438D01*
X65438095Y-95202438D02*
X65390476Y-95250057D01*
X65390476Y-95250057D02*
X65342857Y-95345295D01*
X65342857Y-95345295D02*
X65342857Y-95488152D01*
X65342857Y-95488152D02*
X65390476Y-95583390D01*
X65390476Y-95583390D02*
X65438095Y-95631009D01*
X65438095Y-95631009D02*
X65533333Y-95678628D01*
X65533333Y-95678628D02*
X65914285Y-95678628D01*
X64485714Y-95488152D02*
X64485714Y-96154819D01*
X64723809Y-95107200D02*
X64961904Y-95821485D01*
X64961904Y-95821485D02*
X64342857Y-95821485D01*
X63438095Y-96154819D02*
X64009523Y-96154819D01*
X63723809Y-96154819D02*
X63723809Y-95154819D01*
X63723809Y-95154819D02*
X63819047Y-95297676D01*
X63819047Y-95297676D02*
X63914285Y-95392914D01*
X63914285Y-95392914D02*
X64009523Y-95440533D01*
X80342857Y-146754819D02*
X80676190Y-146278628D01*
X80914285Y-146754819D02*
X80914285Y-145754819D01*
X80914285Y-145754819D02*
X80533333Y-145754819D01*
X80533333Y-145754819D02*
X80438095Y-145802438D01*
X80438095Y-145802438D02*
X80390476Y-145850057D01*
X80390476Y-145850057D02*
X80342857Y-145945295D01*
X80342857Y-145945295D02*
X80342857Y-146088152D01*
X80342857Y-146088152D02*
X80390476Y-146183390D01*
X80390476Y-146183390D02*
X80438095Y-146231009D01*
X80438095Y-146231009D02*
X80533333Y-146278628D01*
X80533333Y-146278628D02*
X80914285Y-146278628D01*
X79485714Y-146088152D02*
X79485714Y-146754819D01*
X79723809Y-145707200D02*
X79961904Y-146421485D01*
X79961904Y-146421485D02*
X79342857Y-146421485D01*
X79009523Y-145850057D02*
X78961904Y-145802438D01*
X78961904Y-145802438D02*
X78866666Y-145754819D01*
X78866666Y-145754819D02*
X78628571Y-145754819D01*
X78628571Y-145754819D02*
X78533333Y-145802438D01*
X78533333Y-145802438D02*
X78485714Y-145850057D01*
X78485714Y-145850057D02*
X78438095Y-145945295D01*
X78438095Y-145945295D02*
X78438095Y-146040533D01*
X78438095Y-146040533D02*
X78485714Y-146183390D01*
X78485714Y-146183390D02*
X79057142Y-146754819D01*
X79057142Y-146754819D02*
X78438095Y-146754819D01*
X80142857Y-143354819D02*
X80476190Y-142878628D01*
X80714285Y-143354819D02*
X80714285Y-142354819D01*
X80714285Y-142354819D02*
X80333333Y-142354819D01*
X80333333Y-142354819D02*
X80238095Y-142402438D01*
X80238095Y-142402438D02*
X80190476Y-142450057D01*
X80190476Y-142450057D02*
X80142857Y-142545295D01*
X80142857Y-142545295D02*
X80142857Y-142688152D01*
X80142857Y-142688152D02*
X80190476Y-142783390D01*
X80190476Y-142783390D02*
X80238095Y-142831009D01*
X80238095Y-142831009D02*
X80333333Y-142878628D01*
X80333333Y-142878628D02*
X80714285Y-142878628D01*
X79285714Y-142688152D02*
X79285714Y-143354819D01*
X79523809Y-142307200D02*
X79761904Y-143021485D01*
X79761904Y-143021485D02*
X79142857Y-143021485D01*
X78857142Y-142354819D02*
X78238095Y-142354819D01*
X78238095Y-142354819D02*
X78571428Y-142735771D01*
X78571428Y-142735771D02*
X78428571Y-142735771D01*
X78428571Y-142735771D02*
X78333333Y-142783390D01*
X78333333Y-142783390D02*
X78285714Y-142831009D01*
X78285714Y-142831009D02*
X78238095Y-142926247D01*
X78238095Y-142926247D02*
X78238095Y-143164342D01*
X78238095Y-143164342D02*
X78285714Y-143259580D01*
X78285714Y-143259580D02*
X78333333Y-143307200D01*
X78333333Y-143307200D02*
X78428571Y-143354819D01*
X78428571Y-143354819D02*
X78714285Y-143354819D01*
X78714285Y-143354819D02*
X78809523Y-143307200D01*
X78809523Y-143307200D02*
X78857142Y-143259580D01*
X79542857Y-140754819D02*
X79876190Y-140278628D01*
X80114285Y-140754819D02*
X80114285Y-139754819D01*
X80114285Y-139754819D02*
X79733333Y-139754819D01*
X79733333Y-139754819D02*
X79638095Y-139802438D01*
X79638095Y-139802438D02*
X79590476Y-139850057D01*
X79590476Y-139850057D02*
X79542857Y-139945295D01*
X79542857Y-139945295D02*
X79542857Y-140088152D01*
X79542857Y-140088152D02*
X79590476Y-140183390D01*
X79590476Y-140183390D02*
X79638095Y-140231009D01*
X79638095Y-140231009D02*
X79733333Y-140278628D01*
X79733333Y-140278628D02*
X80114285Y-140278628D01*
X78685714Y-140088152D02*
X78685714Y-140754819D01*
X78923809Y-139707200D02*
X79161904Y-140421485D01*
X79161904Y-140421485D02*
X78542857Y-140421485D01*
X77733333Y-140088152D02*
X77733333Y-140754819D01*
X77971428Y-139707200D02*
X78209523Y-140421485D01*
X78209523Y-140421485D02*
X77590476Y-140421485D01*
X65182819Y-107053142D02*
X64706628Y-106719809D01*
X65182819Y-106481714D02*
X64182819Y-106481714D01*
X64182819Y-106481714D02*
X64182819Y-106862666D01*
X64182819Y-106862666D02*
X64230438Y-106957904D01*
X64230438Y-106957904D02*
X64278057Y-107005523D01*
X64278057Y-107005523D02*
X64373295Y-107053142D01*
X64373295Y-107053142D02*
X64516152Y-107053142D01*
X64516152Y-107053142D02*
X64611390Y-107005523D01*
X64611390Y-107005523D02*
X64659009Y-106957904D01*
X64659009Y-106957904D02*
X64706628Y-106862666D01*
X64706628Y-106862666D02*
X64706628Y-106481714D01*
X64516152Y-107910285D02*
X65182819Y-107910285D01*
X64135200Y-107672190D02*
X64849485Y-107434095D01*
X64849485Y-107434095D02*
X64849485Y-108053142D01*
X64182819Y-108862666D02*
X64182819Y-108672190D01*
X64182819Y-108672190D02*
X64230438Y-108576952D01*
X64230438Y-108576952D02*
X64278057Y-108529333D01*
X64278057Y-108529333D02*
X64420914Y-108434095D01*
X64420914Y-108434095D02*
X64611390Y-108386476D01*
X64611390Y-108386476D02*
X64992342Y-108386476D01*
X64992342Y-108386476D02*
X65087580Y-108434095D01*
X65087580Y-108434095D02*
X65135200Y-108481714D01*
X65135200Y-108481714D02*
X65182819Y-108576952D01*
X65182819Y-108576952D02*
X65182819Y-108767428D01*
X65182819Y-108767428D02*
X65135200Y-108862666D01*
X65135200Y-108862666D02*
X65087580Y-108910285D01*
X65087580Y-108910285D02*
X64992342Y-108957904D01*
X64992342Y-108957904D02*
X64754247Y-108957904D01*
X64754247Y-108957904D02*
X64659009Y-108910285D01*
X64659009Y-108910285D02*
X64611390Y-108862666D01*
X64611390Y-108862666D02*
X64563771Y-108767428D01*
X64563771Y-108767428D02*
X64563771Y-108576952D01*
X64563771Y-108576952D02*
X64611390Y-108481714D01*
X64611390Y-108481714D02*
X64659009Y-108434095D01*
X64659009Y-108434095D02*
X64754247Y-108386476D01*
X68587857Y-116320819D02*
X68921190Y-115844628D01*
X69159285Y-116320819D02*
X69159285Y-115320819D01*
X69159285Y-115320819D02*
X68778333Y-115320819D01*
X68778333Y-115320819D02*
X68683095Y-115368438D01*
X68683095Y-115368438D02*
X68635476Y-115416057D01*
X68635476Y-115416057D02*
X68587857Y-115511295D01*
X68587857Y-115511295D02*
X68587857Y-115654152D01*
X68587857Y-115654152D02*
X68635476Y-115749390D01*
X68635476Y-115749390D02*
X68683095Y-115797009D01*
X68683095Y-115797009D02*
X68778333Y-115844628D01*
X68778333Y-115844628D02*
X69159285Y-115844628D01*
X67730714Y-115654152D02*
X67730714Y-116320819D01*
X67968809Y-115273200D02*
X68206904Y-115987485D01*
X68206904Y-115987485D02*
X67587857Y-115987485D01*
X67302142Y-115320819D02*
X66635476Y-115320819D01*
X66635476Y-115320819D02*
X67064047Y-116320819D01*
X108973857Y-89015819D02*
X109307190Y-88539628D01*
X109545285Y-89015819D02*
X109545285Y-88015819D01*
X109545285Y-88015819D02*
X109164333Y-88015819D01*
X109164333Y-88015819D02*
X109069095Y-88063438D01*
X109069095Y-88063438D02*
X109021476Y-88111057D01*
X109021476Y-88111057D02*
X108973857Y-88206295D01*
X108973857Y-88206295D02*
X108973857Y-88349152D01*
X108973857Y-88349152D02*
X109021476Y-88444390D01*
X109021476Y-88444390D02*
X109069095Y-88492009D01*
X109069095Y-88492009D02*
X109164333Y-88539628D01*
X109164333Y-88539628D02*
X109545285Y-88539628D01*
X108116714Y-88349152D02*
X108116714Y-89015819D01*
X108354809Y-87968200D02*
X108592904Y-88682485D01*
X108592904Y-88682485D02*
X107973857Y-88682485D01*
X107450047Y-88444390D02*
X107545285Y-88396771D01*
X107545285Y-88396771D02*
X107592904Y-88349152D01*
X107592904Y-88349152D02*
X107640523Y-88253914D01*
X107640523Y-88253914D02*
X107640523Y-88206295D01*
X107640523Y-88206295D02*
X107592904Y-88111057D01*
X107592904Y-88111057D02*
X107545285Y-88063438D01*
X107545285Y-88063438D02*
X107450047Y-88015819D01*
X107450047Y-88015819D02*
X107259571Y-88015819D01*
X107259571Y-88015819D02*
X107164333Y-88063438D01*
X107164333Y-88063438D02*
X107116714Y-88111057D01*
X107116714Y-88111057D02*
X107069095Y-88206295D01*
X107069095Y-88206295D02*
X107069095Y-88253914D01*
X107069095Y-88253914D02*
X107116714Y-88349152D01*
X107116714Y-88349152D02*
X107164333Y-88396771D01*
X107164333Y-88396771D02*
X107259571Y-88444390D01*
X107259571Y-88444390D02*
X107450047Y-88444390D01*
X107450047Y-88444390D02*
X107545285Y-88492009D01*
X107545285Y-88492009D02*
X107592904Y-88539628D01*
X107592904Y-88539628D02*
X107640523Y-88634866D01*
X107640523Y-88634866D02*
X107640523Y-88825342D01*
X107640523Y-88825342D02*
X107592904Y-88920580D01*
X107592904Y-88920580D02*
X107545285Y-88968200D01*
X107545285Y-88968200D02*
X107450047Y-89015819D01*
X107450047Y-89015819D02*
X107259571Y-89015819D01*
X107259571Y-89015819D02*
X107164333Y-88968200D01*
X107164333Y-88968200D02*
X107116714Y-88920580D01*
X107116714Y-88920580D02*
X107069095Y-88825342D01*
X107069095Y-88825342D02*
X107069095Y-88634866D01*
X107069095Y-88634866D02*
X107116714Y-88539628D01*
X107116714Y-88539628D02*
X107164333Y-88492009D01*
X107164333Y-88492009D02*
X107259571Y-88444390D01*
X170560904Y-106896819D02*
X170560904Y-107706342D01*
X170560904Y-107706342D02*
X170513285Y-107801580D01*
X170513285Y-107801580D02*
X170465666Y-107849200D01*
X170465666Y-107849200D02*
X170370428Y-107896819D01*
X170370428Y-107896819D02*
X170179952Y-107896819D01*
X170179952Y-107896819D02*
X170084714Y-107849200D01*
X170084714Y-107849200D02*
X170037095Y-107801580D01*
X170037095Y-107801580D02*
X169989476Y-107706342D01*
X169989476Y-107706342D02*
X169989476Y-106896819D01*
X169608523Y-106896819D02*
X168989476Y-106896819D01*
X168989476Y-106896819D02*
X169322809Y-107277771D01*
X169322809Y-107277771D02*
X169179952Y-107277771D01*
X169179952Y-107277771D02*
X169084714Y-107325390D01*
X169084714Y-107325390D02*
X169037095Y-107373009D01*
X169037095Y-107373009D02*
X168989476Y-107468247D01*
X168989476Y-107468247D02*
X168989476Y-107706342D01*
X168989476Y-107706342D02*
X169037095Y-107801580D01*
X169037095Y-107801580D02*
X169084714Y-107849200D01*
X169084714Y-107849200D02*
X169179952Y-107896819D01*
X169179952Y-107896819D02*
X169465666Y-107896819D01*
X169465666Y-107896819D02*
X169560904Y-107849200D01*
X169560904Y-107849200D02*
X169608523Y-107801580D01*
X169544904Y-98521819D02*
X169544904Y-99331342D01*
X169544904Y-99331342D02*
X169497285Y-99426580D01*
X169497285Y-99426580D02*
X169449666Y-99474200D01*
X169449666Y-99474200D02*
X169354428Y-99521819D01*
X169354428Y-99521819D02*
X169163952Y-99521819D01*
X169163952Y-99521819D02*
X169068714Y-99474200D01*
X169068714Y-99474200D02*
X169021095Y-99426580D01*
X169021095Y-99426580D02*
X168973476Y-99331342D01*
X168973476Y-99331342D02*
X168973476Y-98521819D01*
X168068714Y-98855152D02*
X168068714Y-99521819D01*
X168306809Y-98474200D02*
X168544904Y-99188485D01*
X168544904Y-99188485D02*
X167925857Y-99188485D01*
X169544904Y-127985819D02*
X169544904Y-128795342D01*
X169544904Y-128795342D02*
X169497285Y-128890580D01*
X169497285Y-128890580D02*
X169449666Y-128938200D01*
X169449666Y-128938200D02*
X169354428Y-128985819D01*
X169354428Y-128985819D02*
X169163952Y-128985819D01*
X169163952Y-128985819D02*
X169068714Y-128938200D01*
X169068714Y-128938200D02*
X169021095Y-128890580D01*
X169021095Y-128890580D02*
X168973476Y-128795342D01*
X168973476Y-128795342D02*
X168973476Y-127985819D01*
X168021095Y-127985819D02*
X168497285Y-127985819D01*
X168497285Y-127985819D02*
X168544904Y-128462009D01*
X168544904Y-128462009D02*
X168497285Y-128414390D01*
X168497285Y-128414390D02*
X168402047Y-128366771D01*
X168402047Y-128366771D02*
X168163952Y-128366771D01*
X168163952Y-128366771D02*
X168068714Y-128414390D01*
X168068714Y-128414390D02*
X168021095Y-128462009D01*
X168021095Y-128462009D02*
X167973476Y-128557247D01*
X167973476Y-128557247D02*
X167973476Y-128795342D01*
X167973476Y-128795342D02*
X168021095Y-128890580D01*
X168021095Y-128890580D02*
X168068714Y-128938200D01*
X168068714Y-128938200D02*
X168163952Y-128985819D01*
X168163952Y-128985819D02*
X168402047Y-128985819D01*
X168402047Y-128985819D02*
X168497285Y-128938200D01*
X168497285Y-128938200D02*
X168544904Y-128890580D01*
X163591761Y-129734819D02*
X163353666Y-130734819D01*
X163353666Y-130734819D02*
X163163190Y-130020533D01*
X163163190Y-130020533D02*
X162972714Y-130734819D01*
X162972714Y-130734819D02*
X162734619Y-129734819D01*
X161829857Y-130734819D02*
X162401285Y-130734819D01*
X162115571Y-130734819D02*
X162115571Y-129734819D01*
X162115571Y-129734819D02*
X162210809Y-129877676D01*
X162210809Y-129877676D02*
X162306047Y-129972914D01*
X162306047Y-129972914D02*
X162401285Y-130020533D01*
X149232857Y-64050580D02*
X149280476Y-64098200D01*
X149280476Y-64098200D02*
X149423333Y-64145819D01*
X149423333Y-64145819D02*
X149518571Y-64145819D01*
X149518571Y-64145819D02*
X149661428Y-64098200D01*
X149661428Y-64098200D02*
X149756666Y-64002961D01*
X149756666Y-64002961D02*
X149804285Y-63907723D01*
X149804285Y-63907723D02*
X149851904Y-63717247D01*
X149851904Y-63717247D02*
X149851904Y-63574390D01*
X149851904Y-63574390D02*
X149804285Y-63383914D01*
X149804285Y-63383914D02*
X149756666Y-63288676D01*
X149756666Y-63288676D02*
X149661428Y-63193438D01*
X149661428Y-63193438D02*
X149518571Y-63145819D01*
X149518571Y-63145819D02*
X149423333Y-63145819D01*
X149423333Y-63145819D02*
X149280476Y-63193438D01*
X149280476Y-63193438D02*
X149232857Y-63241057D01*
X148328095Y-63145819D02*
X148804285Y-63145819D01*
X148804285Y-63145819D02*
X148851904Y-63622009D01*
X148851904Y-63622009D02*
X148804285Y-63574390D01*
X148804285Y-63574390D02*
X148709047Y-63526771D01*
X148709047Y-63526771D02*
X148470952Y-63526771D01*
X148470952Y-63526771D02*
X148375714Y-63574390D01*
X148375714Y-63574390D02*
X148328095Y-63622009D01*
X148328095Y-63622009D02*
X148280476Y-63717247D01*
X148280476Y-63717247D02*
X148280476Y-63955342D01*
X148280476Y-63955342D02*
X148328095Y-64050580D01*
X148328095Y-64050580D02*
X148375714Y-64098200D01*
X148375714Y-64098200D02*
X148470952Y-64145819D01*
X148470952Y-64145819D02*
X148709047Y-64145819D01*
X148709047Y-64145819D02*
X148804285Y-64098200D01*
X148804285Y-64098200D02*
X148851904Y-64050580D01*
X147947142Y-63145819D02*
X147280476Y-63145819D01*
X147280476Y-63145819D02*
X147709047Y-64145819D01*
X132976857Y-138704580D02*
X133024476Y-138752200D01*
X133024476Y-138752200D02*
X133167333Y-138799819D01*
X133167333Y-138799819D02*
X133262571Y-138799819D01*
X133262571Y-138799819D02*
X133405428Y-138752200D01*
X133405428Y-138752200D02*
X133500666Y-138656961D01*
X133500666Y-138656961D02*
X133548285Y-138561723D01*
X133548285Y-138561723D02*
X133595904Y-138371247D01*
X133595904Y-138371247D02*
X133595904Y-138228390D01*
X133595904Y-138228390D02*
X133548285Y-138037914D01*
X133548285Y-138037914D02*
X133500666Y-137942676D01*
X133500666Y-137942676D02*
X133405428Y-137847438D01*
X133405428Y-137847438D02*
X133262571Y-137799819D01*
X133262571Y-137799819D02*
X133167333Y-137799819D01*
X133167333Y-137799819D02*
X133024476Y-137847438D01*
X133024476Y-137847438D02*
X132976857Y-137895057D01*
X132643523Y-137799819D02*
X132024476Y-137799819D01*
X132024476Y-137799819D02*
X132357809Y-138180771D01*
X132357809Y-138180771D02*
X132214952Y-138180771D01*
X132214952Y-138180771D02*
X132119714Y-138228390D01*
X132119714Y-138228390D02*
X132072095Y-138276009D01*
X132072095Y-138276009D02*
X132024476Y-138371247D01*
X132024476Y-138371247D02*
X132024476Y-138609342D01*
X132024476Y-138609342D02*
X132072095Y-138704580D01*
X132072095Y-138704580D02*
X132119714Y-138752200D01*
X132119714Y-138752200D02*
X132214952Y-138799819D01*
X132214952Y-138799819D02*
X132500666Y-138799819D01*
X132500666Y-138799819D02*
X132595904Y-138752200D01*
X132595904Y-138752200D02*
X132643523Y-138704580D01*
X131072095Y-138799819D02*
X131643523Y-138799819D01*
X131357809Y-138799819D02*
X131357809Y-137799819D01*
X131357809Y-137799819D02*
X131453047Y-137942676D01*
X131453047Y-137942676D02*
X131548285Y-138037914D01*
X131548285Y-138037914D02*
X131643523Y-138085533D01*
X126372857Y-87799580D02*
X126420476Y-87847200D01*
X126420476Y-87847200D02*
X126563333Y-87894819D01*
X126563333Y-87894819D02*
X126658571Y-87894819D01*
X126658571Y-87894819D02*
X126801428Y-87847200D01*
X126801428Y-87847200D02*
X126896666Y-87751961D01*
X126896666Y-87751961D02*
X126944285Y-87656723D01*
X126944285Y-87656723D02*
X126991904Y-87466247D01*
X126991904Y-87466247D02*
X126991904Y-87323390D01*
X126991904Y-87323390D02*
X126944285Y-87132914D01*
X126944285Y-87132914D02*
X126896666Y-87037676D01*
X126896666Y-87037676D02*
X126801428Y-86942438D01*
X126801428Y-86942438D02*
X126658571Y-86894819D01*
X126658571Y-86894819D02*
X126563333Y-86894819D01*
X126563333Y-86894819D02*
X126420476Y-86942438D01*
X126420476Y-86942438D02*
X126372857Y-86990057D01*
X125468095Y-86894819D02*
X125944285Y-86894819D01*
X125944285Y-86894819D02*
X125991904Y-87371009D01*
X125991904Y-87371009D02*
X125944285Y-87323390D01*
X125944285Y-87323390D02*
X125849047Y-87275771D01*
X125849047Y-87275771D02*
X125610952Y-87275771D01*
X125610952Y-87275771D02*
X125515714Y-87323390D01*
X125515714Y-87323390D02*
X125468095Y-87371009D01*
X125468095Y-87371009D02*
X125420476Y-87466247D01*
X125420476Y-87466247D02*
X125420476Y-87704342D01*
X125420476Y-87704342D02*
X125468095Y-87799580D01*
X125468095Y-87799580D02*
X125515714Y-87847200D01*
X125515714Y-87847200D02*
X125610952Y-87894819D01*
X125610952Y-87894819D02*
X125849047Y-87894819D01*
X125849047Y-87894819D02*
X125944285Y-87847200D01*
X125944285Y-87847200D02*
X125991904Y-87799580D01*
X124563333Y-86894819D02*
X124753809Y-86894819D01*
X124753809Y-86894819D02*
X124849047Y-86942438D01*
X124849047Y-86942438D02*
X124896666Y-86990057D01*
X124896666Y-86990057D02*
X124991904Y-87132914D01*
X124991904Y-87132914D02*
X125039523Y-87323390D01*
X125039523Y-87323390D02*
X125039523Y-87704342D01*
X125039523Y-87704342D02*
X124991904Y-87799580D01*
X124991904Y-87799580D02*
X124944285Y-87847200D01*
X124944285Y-87847200D02*
X124849047Y-87894819D01*
X124849047Y-87894819D02*
X124658571Y-87894819D01*
X124658571Y-87894819D02*
X124563333Y-87847200D01*
X124563333Y-87847200D02*
X124515714Y-87799580D01*
X124515714Y-87799580D02*
X124468095Y-87704342D01*
X124468095Y-87704342D02*
X124468095Y-87466247D01*
X124468095Y-87466247D02*
X124515714Y-87371009D01*
X124515714Y-87371009D02*
X124563333Y-87323390D01*
X124563333Y-87323390D02*
X124658571Y-87275771D01*
X124658571Y-87275771D02*
X124849047Y-87275771D01*
X124849047Y-87275771D02*
X124944285Y-87323390D01*
X124944285Y-87323390D02*
X124991904Y-87371009D01*
X124991904Y-87371009D02*
X125039523Y-87466247D01*
D12*
%TO.C,C2*%
X344657000Y-66709936D02*
X344657000Y-68164064D01*
X346477000Y-66709936D02*
X346477000Y-68164064D01*
%TO.C,C4*%
X356708064Y-77195000D02*
X355253936Y-77195000D01*
X356708064Y-79015000D02*
X355253936Y-79015000D01*
%TO.C,C5*%
X345292000Y-98009064D02*
X345292000Y-96554936D01*
X347112000Y-98009064D02*
X347112000Y-96554936D01*
%TO.C,C6*%
X344657000Y-72551936D02*
X344657000Y-74006064D01*
X346477000Y-72551936D02*
X346477000Y-74006064D01*
%TO.C,C7*%
X337473936Y-86847000D02*
X338928064Y-86847000D01*
X337473936Y-88667000D02*
X338928064Y-88667000D01*
%TO.C,C8*%
X348395936Y-57129000D02*
X349850064Y-57129000D01*
X348395936Y-58949000D02*
X349850064Y-58949000D01*
%TO.C,C9*%
X334610064Y-63987000D02*
X333155936Y-63987000D01*
X334610064Y-65807000D02*
X333155936Y-65807000D01*
%TO.C,C10*%
X345024064Y-86847000D02*
X343569936Y-86847000D01*
X345024064Y-88667000D02*
X343569936Y-88667000D01*
%TO.C,C11*%
X318368000Y-69249936D02*
X318368000Y-70704064D01*
X320188000Y-69249936D02*
X320188000Y-70704064D01*
%TO.C,C12*%
X344657000Y-79663936D02*
X344657000Y-81118064D01*
X346477000Y-79663936D02*
X346477000Y-81118064D01*
%TO.C,C13*%
X326736064Y-63733000D02*
X325281936Y-63733000D01*
X326736064Y-65553000D02*
X325281936Y-65553000D01*
%TO.C,C14*%
X323321000Y-81187936D02*
X323321000Y-82642064D01*
X325141000Y-81187936D02*
X325141000Y-82642064D01*
%TO.C,C15*%
X326482064Y-86339000D02*
X325027936Y-86339000D01*
X326482064Y-88159000D02*
X325027936Y-88159000D01*
%TO.C,C16*%
X337473936Y-83799000D02*
X338928064Y-83799000D01*
X337473936Y-85619000D02*
X338928064Y-85619000D01*
%TO.C,C17*%
X154284000Y-84616936D02*
X154284000Y-86071064D01*
X156104000Y-84616936D02*
X156104000Y-86071064D01*
%TO.C,C18*%
X156570000Y-75022064D02*
X156570000Y-73567936D01*
X158390000Y-75022064D02*
X158390000Y-73567936D01*
%TO.C,C19*%
X140242936Y-72750000D02*
X141697064Y-72750000D01*
X140242936Y-74570000D02*
X141697064Y-74570000D01*
%TO.C,C20*%
X131537064Y-72115000D02*
X130082936Y-72115000D01*
X131537064Y-73935000D02*
X130082936Y-73935000D01*
%TO.C,C21*%
X125441064Y-89895000D02*
X123986936Y-89895000D01*
X125441064Y-91715000D02*
X123986936Y-91715000D01*
%TO.C,C22*%
X127727064Y-103230000D02*
X126272936Y-103230000D01*
X127727064Y-105050000D02*
X126272936Y-105050000D01*
%TO.C,C23*%
X130902064Y-60685000D02*
X129447936Y-60685000D01*
X130902064Y-62505000D02*
X129447936Y-62505000D01*
%TO.C,C24*%
X138776064Y-115930000D02*
X137321936Y-115930000D01*
X138776064Y-117750000D02*
X137321936Y-117750000D01*
%TO.C,C25*%
X145703936Y-114025000D02*
X147158064Y-114025000D01*
X145703936Y-115845000D02*
X147158064Y-115845000D01*
%TO.C,C26*%
X149894936Y-122026000D02*
X151349064Y-122026000D01*
X149894936Y-123846000D02*
X151349064Y-123846000D01*
%TO.C,C27*%
X133061064Y-122280000D02*
X131606936Y-122280000D01*
X133061064Y-124100000D02*
X131606936Y-124100000D01*
%TO.C,C28*%
X149513936Y-134980000D02*
X150968064Y-134980000D01*
X149513936Y-136800000D02*
X150968064Y-136800000D01*
%TO.C,C29*%
X146338936Y-138790000D02*
X147793064Y-138790000D01*
X146338936Y-140610000D02*
X147793064Y-140610000D01*
%TO.C,C30*%
X137506064Y-138790000D02*
X136051936Y-138790000D01*
X137506064Y-140610000D02*
X136051936Y-140610000D01*
%TO.C,C32*%
X357031936Y-126725000D02*
X358486064Y-126725000D01*
X357031936Y-128545000D02*
X358486064Y-128545000D01*
%TO.C,C33*%
X346040064Y-110850000D02*
X344585936Y-110850000D01*
X346040064Y-112670000D02*
X344585936Y-112670000D01*
%TO.C,C34*%
X344516064Y-116692000D02*
X343061936Y-116692000D01*
X344516064Y-118512000D02*
X343061936Y-118512000D01*
%TO.C,C35*%
X354676064Y-130789000D02*
X353221936Y-130789000D01*
X354676064Y-132609000D02*
X353221936Y-132609000D01*
%TO.C,C36*%
X313034000Y-120742064D02*
X313034000Y-119287936D01*
X314854000Y-120742064D02*
X314854000Y-119287936D01*
%TO.C,C37*%
X317990000Y-120742064D02*
X317990000Y-119287936D01*
X319810000Y-120742064D02*
X319810000Y-119287936D01*
%TO.C,C38*%
X149513936Y-131170000D02*
X150968064Y-131170000D01*
X149513936Y-132990000D02*
X150968064Y-132990000D01*
%TO.C,C42*%
X344639737Y-119041000D02*
X343192263Y-119041000D01*
X344639737Y-121751000D02*
X343192263Y-121751000D01*
%TO.C,C43*%
X79848064Y-87101000D02*
X78393936Y-87101000D01*
X79848064Y-88921000D02*
X78393936Y-88921000D01*
%TO.C,C44*%
X73131000Y-84616936D02*
X73131000Y-86071064D01*
X74951000Y-84616936D02*
X74951000Y-86071064D01*
%TO.C,C45*%
X79848064Y-84561000D02*
X78393936Y-84561000D01*
X79848064Y-86381000D02*
X78393936Y-86381000D01*
%TO.C,C46*%
X81118064Y-114025000D02*
X79663936Y-114025000D01*
X81118064Y-115845000D02*
X79663936Y-115845000D01*
%TO.C,C48*%
X79848064Y-82021000D02*
X78393936Y-82021000D01*
X79848064Y-83841000D02*
X78393936Y-83841000D01*
%TO.C,C51*%
X346163737Y-107230000D02*
X344716263Y-107230000D01*
X346163737Y-109940000D02*
X344716263Y-109940000D01*
%TO.C,C52*%
X310988064Y-116819000D02*
X309533936Y-116819000D01*
X310988064Y-118639000D02*
X309533936Y-118639000D01*
%TO.C,C53*%
X81118064Y-110977000D02*
X79663936Y-110977000D01*
X81118064Y-112797000D02*
X79663936Y-112797000D01*
%TO.C,C54*%
X77703000Y-66767064D02*
X77703000Y-65312936D01*
X79523000Y-66767064D02*
X79523000Y-65312936D01*
%TO.C,C55*%
X74591000Y-101180737D02*
X74591000Y-99733263D01*
X77301000Y-101180737D02*
X77301000Y-99733263D01*
%TO.C,C59*%
X82896064Y-95737000D02*
X81441936Y-95737000D01*
X82896064Y-97557000D02*
X81441936Y-97557000D01*
%TO.C,C62*%
X356958737Y-64812000D02*
X355511263Y-64812000D01*
X356958737Y-67522000D02*
X355511263Y-67522000D01*
%TO.C,C64*%
X82846000Y-89242737D02*
X82846000Y-87795263D01*
X85556000Y-89242737D02*
X85556000Y-87795263D01*
%TO.C,C65*%
X352136064Y-92181000D02*
X350681936Y-92181000D01*
X352136064Y-94001000D02*
X350681936Y-94001000D01*
%TO.C,C66*%
X352136064Y-94975000D02*
X350681936Y-94975000D01*
X352136064Y-96795000D02*
X350681936Y-96795000D01*
%TO.C,C67*%
X98713936Y-148823000D02*
X100168064Y-148823000D01*
X98713936Y-150643000D02*
X100168064Y-150643000D01*
%TO.C,C68*%
X117255936Y-147553000D02*
X118710064Y-147553000D01*
X117255936Y-149373000D02*
X118710064Y-149373000D01*
%TO.C,C69*%
X152365064Y-147553000D02*
X150910936Y-147553000D01*
X152365064Y-149373000D02*
X150910936Y-149373000D01*
%TO.C,C70*%
X96626000Y-84362936D02*
X96626000Y-85817064D01*
X98446000Y-84362936D02*
X98446000Y-85817064D01*
%TO.C,C71*%
X105698936Y-82275000D02*
X107153064Y-82275000D01*
X105698936Y-84095000D02*
X107153064Y-84095000D01*
%TO.C,C72*%
X109508936Y-89895000D02*
X110963064Y-89895000D01*
X109508936Y-91715000D02*
X110963064Y-91715000D01*
%TO.C,C73*%
X95342064Y-93705000D02*
X93887936Y-93705000D01*
X95342064Y-95525000D02*
X93887936Y-95525000D01*
D13*
%TO.C,Q1*%
X78105000Y-128016000D02*
X81153000Y-128016000D01*
X78105000Y-128778000D02*
X78105000Y-128016000D01*
X81153000Y-128016000D02*
X81153000Y-128778000D01*
X81153000Y-128778000D02*
X78105000Y-128778000D01*
%TO.C,Q2*%
X73533000Y-128016000D02*
X76581000Y-128016000D01*
X73533000Y-128778000D02*
X73533000Y-128016000D01*
X76581000Y-128016000D02*
X76581000Y-128778000D01*
X76581000Y-128778000D02*
X73533000Y-128778000D01*
%TO.C,Q3*%
X73533000Y-94234000D02*
X76581000Y-94234000D01*
X73533000Y-94996000D02*
X73533000Y-94234000D01*
X76581000Y-94234000D02*
X76581000Y-94996000D01*
X76581000Y-94996000D02*
X73533000Y-94996000D01*
D12*
%TO.C,R2*%
X356708064Y-80243000D02*
X355253936Y-80243000D01*
X356708064Y-82063000D02*
X355253936Y-82063000D01*
%TO.C,R3*%
X357230000Y-72990064D02*
X357230000Y-71535936D01*
X359050000Y-72990064D02*
X359050000Y-71535936D01*
%TO.C,R5*%
X164176064Y-133710000D02*
X162721936Y-133710000D01*
X164176064Y-135530000D02*
X162721936Y-135530000D01*
%TO.C,R6*%
X114207936Y-122280000D02*
X115662064Y-122280000D01*
X114207936Y-124100000D02*
X115662064Y-124100000D01*
%TO.C,R7*%
X118017936Y-119740000D02*
X119472064Y-119740000D01*
X118017936Y-121560000D02*
X119472064Y-121560000D01*
%TO.C,R9*%
X67035000Y-85944064D02*
X67035000Y-84489936D01*
X68855000Y-85944064D02*
X68855000Y-84489936D01*
%TO.C,R12*%
X354817000Y-71535936D02*
X354817000Y-72990064D01*
X356637000Y-71535936D02*
X356637000Y-72990064D01*
%TO.C,R13*%
X86622319Y-74631162D02*
X85168191Y-74631162D01*
X86622319Y-76451162D02*
X85168191Y-76451162D01*
%TO.C,R15*%
X320527000Y-120742064D02*
X320527000Y-119287936D01*
X322347000Y-120742064D02*
X322347000Y-119287936D01*
%TO.C,R16*%
X78973000Y-121827936D02*
X78973000Y-123282064D01*
X80793000Y-121827936D02*
X80793000Y-123282064D01*
%TO.C,R17*%
X74655000Y-121827936D02*
X74655000Y-123282064D01*
X76475000Y-121827936D02*
X76475000Y-123282064D01*
%TO.C,R18*%
X69829000Y-85944064D02*
X69829000Y-84489936D01*
X71649000Y-85944064D02*
X71649000Y-84489936D01*
%TO.C,R19*%
X342498000Y-96554936D02*
X342498000Y-98009064D01*
X344318000Y-96554936D02*
X344318000Y-98009064D01*
%TO.C,R20*%
X343754064Y-57129000D02*
X342299936Y-57129000D01*
X343754064Y-58949000D02*
X342299936Y-58949000D01*
%TO.C,R21*%
X109127936Y-66654000D02*
X110582064Y-66654000D01*
X109127936Y-68474000D02*
X110582064Y-68474000D01*
%TO.C,R25*%
X354436000Y-93887936D02*
X354436000Y-95342064D01*
X356256000Y-93887936D02*
X356256000Y-95342064D01*
%TO.C,R26*%
X112614064Y-61193000D02*
X111159936Y-61193000D01*
X112614064Y-63013000D02*
X111159936Y-63013000D01*
%TO.C,R27*%
X345024064Y-83799000D02*
X343569936Y-83799000D01*
X345024064Y-85619000D02*
X343569936Y-85619000D01*
%TO.C,R30*%
X82134064Y-98531000D02*
X80679936Y-98531000D01*
X82134064Y-100351000D02*
X80679936Y-100351000D01*
%TO.C,R31*%
X80679936Y-101833000D02*
X82134064Y-101833000D01*
X80679936Y-103653000D02*
X82134064Y-103653000D01*
%TO.C,R32*%
X81118064Y-135869000D02*
X79663936Y-135869000D01*
X81118064Y-137689000D02*
X79663936Y-137689000D01*
%TO.C,R33*%
X81118064Y-132821000D02*
X79663936Y-132821000D01*
X81118064Y-134641000D02*
X79663936Y-134641000D01*
%TO.C,R34*%
X67979936Y-98023000D02*
X69434064Y-98023000D01*
X67979936Y-99843000D02*
X69434064Y-99843000D01*
%TO.C,R36*%
X315447000Y-119287936D02*
X315447000Y-120742064D01*
X317267000Y-119287936D02*
X317267000Y-120742064D01*
%TO.C,R37*%
X308644936Y-120375000D02*
X310099064Y-120375000D01*
X308644936Y-122195000D02*
X310099064Y-122195000D01*
%TO.C,R38*%
X304892064Y-116819000D02*
X303437936Y-116819000D01*
X304892064Y-118639000D02*
X303437936Y-118639000D01*
%TO.C,R39*%
X75784064Y-135869000D02*
X74329936Y-135869000D01*
X75784064Y-137689000D02*
X74329936Y-137689000D01*
%TO.C,R40*%
X74329936Y-132821000D02*
X75784064Y-132821000D01*
X74329936Y-134641000D02*
X75784064Y-134641000D01*
%TO.C,R41*%
X69434064Y-94721000D02*
X67979936Y-94721000D01*
X69434064Y-96541000D02*
X67979936Y-96541000D01*
%TO.C,R42*%
X74329936Y-145013000D02*
X75784064Y-145013000D01*
X74329936Y-146833000D02*
X75784064Y-146833000D01*
%TO.C,R43*%
X74329936Y-141965000D02*
X75784064Y-141965000D01*
X74329936Y-143785000D02*
X75784064Y-143785000D01*
%TO.C,R44*%
X74329936Y-138917000D02*
X75784064Y-138917000D01*
X74329936Y-140737000D02*
X75784064Y-140737000D01*
%TO.C,R46*%
X65638000Y-108423064D02*
X65638000Y-106968936D01*
X67458000Y-108423064D02*
X67458000Y-106968936D01*
%TO.C,R47*%
X68672064Y-113136000D02*
X67217936Y-113136000D01*
X68672064Y-114956000D02*
X67217936Y-114956000D01*
%TO.C,R48*%
X109058064Y-85831000D02*
X107603936Y-85831000D01*
X109058064Y-87651000D02*
X107603936Y-87651000D01*
%TO.C,U3*%
X164923000Y-100043000D02*
X164923000Y-100278000D01*
X164923000Y-113063000D02*
X164923000Y-112828000D01*
X168783000Y-100043000D02*
X164923000Y-100043000D01*
X168783000Y-100043000D02*
X172643000Y-100043000D01*
X168783000Y-113063000D02*
X164923000Y-113063000D01*
X168783000Y-113063000D02*
X172643000Y-113063000D01*
X172643000Y-100043000D02*
X172643000Y-100278000D01*
X172643000Y-113063000D02*
X172643000Y-112828000D01*
X164410500Y-113298000D02*
X163730500Y-113298000D01*
X164070500Y-112828000D01*
X164410500Y-113298000D01*
G36*
X164410500Y-113298000D02*
G01*
X163730500Y-113298000D01*
X164070500Y-112828000D01*
X164410500Y-113298000D01*
G37*
%TO.C,U4*%
X164923000Y-85057000D02*
X164923000Y-85292000D01*
X164923000Y-98077000D02*
X164923000Y-97842000D01*
X168783000Y-85057000D02*
X164923000Y-85057000D01*
X168783000Y-85057000D02*
X172643000Y-85057000D01*
X168783000Y-98077000D02*
X164923000Y-98077000D01*
X168783000Y-98077000D02*
X172643000Y-98077000D01*
X172643000Y-85057000D02*
X172643000Y-85292000D01*
X172643000Y-98077000D02*
X172643000Y-97842000D01*
X164410500Y-98312000D02*
X163730500Y-98312000D01*
X164070500Y-97842000D01*
X164410500Y-98312000D01*
G36*
X164410500Y-98312000D02*
G01*
X163730500Y-98312000D01*
X164070500Y-97842000D01*
X164410500Y-98312000D01*
G37*
%TO.C,U5*%
X164923000Y-114521000D02*
X164923000Y-114756000D01*
X164923000Y-127541000D02*
X164923000Y-127306000D01*
X168783000Y-114521000D02*
X164923000Y-114521000D01*
X168783000Y-114521000D02*
X172643000Y-114521000D01*
X168783000Y-127541000D02*
X164923000Y-127541000D01*
X168783000Y-127541000D02*
X172643000Y-127541000D01*
X172643000Y-114521000D02*
X172643000Y-114756000D01*
X172643000Y-127541000D02*
X172643000Y-127306000D01*
X164410500Y-127776000D02*
X163730500Y-127776000D01*
X164070500Y-127306000D01*
X164410500Y-127776000D01*
G36*
X164410500Y-127776000D02*
G01*
X163730500Y-127776000D01*
X164070500Y-127306000D01*
X164410500Y-127776000D01*
G37*
%TO.C,W1*%
X161287000Y-131080000D02*
X164087000Y-131080000D01*
X161287000Y-133080000D02*
X161287000Y-131080000D01*
X164087000Y-131080000D02*
X164087000Y-133080000D01*
X164087000Y-133080000D02*
X161287000Y-133080000D01*
%TO.C,C57*%
X145955000Y-59831000D02*
X145955000Y-62851000D01*
X145955000Y-62851000D02*
X150340000Y-62851000D01*
X150340000Y-59831000D02*
X145955000Y-59831000D01*
%TO.C,C31*%
X133061064Y-135615000D02*
X131606936Y-135615000D01*
X133061064Y-137435000D02*
X131606936Y-137435000D01*
%TO.C,C56*%
X123095000Y-83580000D02*
X123095000Y-86600000D01*
X123095000Y-86600000D02*
X127480000Y-86600000D01*
X127480000Y-83580000D02*
X123095000Y-83580000D01*
%TD*%
M02*
