%TF.GenerationSoftware,KiCad,Pcbnew,9.0.9-9.0.9~ubuntu24.04.1*%
%TF.CreationDate,2026-06-13T03:40:00+00:00*%
%TF.ProjectId,video,76696465-6f2e-46b6-9963-61645f706362,1.A*%
%TF.SameCoordinates,Original*%
%TF.FileFunction,Profile,NP*%
%FSLAX46Y46*%
G04 Gerber Fmt 4.6, Leading zero omitted, Abs format (unit mm)*
G04 Created by KiCad (PCBNEW 9.0.9-9.0.9~ubuntu24.04.1) date 2026-06-13 03:40:00*
%MOMM*%
%LPD*%
G01*
G04 APERTURE LIST*
%TA.AperFunction,Profile*%
%ADD10C,0.203200*%
%TD*%
G04 APERTURE END LIST*
D10*
X157226000Y-163195000D02*
X157226000Y-154940000D01*
X53594000Y-163195000D02*
X53594000Y-56515000D01*
X290957000Y-134366000D02*
X216027000Y-134366000D01*
X365633000Y-134366000D02*
X365633000Y-56515000D01*
X173609000Y-163195000D02*
X159004000Y-163195000D01*
X185420000Y-154940000D02*
X194818000Y-145542000D01*
X157226000Y-154940000D02*
X159004000Y-154940000D01*
X360553000Y-134366000D02*
X365633000Y-134366000D01*
X53594000Y-56515000D02*
X224155000Y-56515000D01*
X204851000Y-145542000D02*
X204851000Y-134366000D01*
X68580000Y-154940000D02*
X94361000Y-154940000D01*
X224155000Y-56515000D02*
X365633000Y-56515000D01*
X94361000Y-154940000D02*
X94361000Y-163195000D01*
X173609000Y-154940000D02*
X173609000Y-163195000D01*
X204851000Y-134366000D02*
X216027000Y-134366000D01*
X53594000Y-163195000D02*
X68580000Y-163195000D01*
X194818000Y-145542000D02*
X204851000Y-145542000D01*
X159004000Y-154940000D02*
X159004000Y-163195000D01*
X173609000Y-154940000D02*
X185420000Y-154940000D01*
X94361000Y-163195000D02*
X157226000Y-163195000D01*
X68580000Y-163195000D02*
X68580000Y-154940000D01*
X290957000Y-134366000D02*
X360553000Y-134366000D01*
M02*
