%TF.GenerationSoftware,KiCad,Pcbnew,9.0.9-9.0.9~ubuntu24.04.1*%
%TF.CreationDate,2026-06-13T03:40:00+00:00*%
%TF.ProjectId,video,76696465-6f2e-46b6-9963-61645f706362,1.A*%
%TF.SameCoordinates,Original*%
%TF.FileFunction,Soldermask,Bot*%
%TF.FilePolarity,Negative*%
%FSLAX46Y46*%
G04 Gerber Fmt 4.6, Leading zero omitted, Abs format (unit mm)*
G04 Created by KiCad (PCBNEW 9.0.9-9.0.9~ubuntu24.04.1) date 2026-06-13 03:40:00*
%MOMM*%
%LPD*%
G01*
G04 APERTURE LIST*
G04 Aperture macros list*
%AMRoundRect*
0 Rectangle with rounded corners*
0 $1 Rounding radius*
0 $2 $3 $4 $5 $6 $7 $8 $9 X,Y pos of 4 corners*
0 Add a 4 corners polygon primitive as box body*
4,1,4,$2,$3,$4,$5,$6,$7,$8,$9,$2,$3,0*
0 Add four circle primitives for the rounded corners*
1,1,$1+$1,$2,$3*
1,1,$1+$1,$4,$5*
1,1,$1+$1,$6,$7*
1,1,$1+$1,$8,$9*
0 Add four rect primitives between the rounded corners*
20,1,$1+$1,$2,$3,$4,$5,0*
20,1,$1+$1,$4,$5,$6,$7,0*
20,1,$1+$1,$6,$7,$8,$9,0*
20,1,$1+$1,$8,$9,$2,$3,0*%
G04 Aperture macros list end*
%ADD10R,1.016000X6.000000*%
%ADD11C,1.600000*%
%ADD12C,1.524000*%
%ADD13R,1.500000X1.300000*%
%ADD14C,1.400000*%
%ADD15R,1.800000X1.800000*%
%ADD16C,1.800000*%
%ADD17C,1.778000*%
%ADD18C,3.048000*%
%ADD19R,1.700000X1.700000*%
%ADD20O,1.700000X1.700000*%
%ADD21R,1.600000X1.600000*%
%ADD22O,1.600000X1.600000*%
%ADD23R,1.397000X1.397000*%
%ADD24C,1.397000*%
%ADD25C,3.000000*%
%ADD26C,1.143000*%
%ADD27R,1.143000X1.143000*%
%ADD28C,1.500000*%
%ADD29C,4.000000*%
%ADD30RoundRect,0.250000X0.625000X-0.400000X0.625000X0.400000X-0.625000X0.400000X-0.625000X-0.400000X0*%
%ADD31RoundRect,0.250000X-0.400000X-0.625000X0.400000X-0.625000X0.400000X0.625000X-0.400000X0.625000X0*%
%ADD32RoundRect,0.250000X-0.625000X0.400000X-0.625000X-0.400000X0.625000X-0.400000X0.625000X0.400000X0*%
%ADD33RoundRect,0.250000X0.400000X0.625000X-0.400000X0.625000X-0.400000X-0.625000X0.400000X-0.625000X0*%
%ADD34RoundRect,0.250000X-0.400000X-1.075000X0.400000X-1.075000X0.400000X1.075000X-0.400000X1.075000X0*%
%ADD35RoundRect,0.250000X-1.075000X0.400000X-1.075000X-0.400000X1.075000X-0.400000X1.075000X0.400000X0*%
%ADD36R,0.914400X0.914400*%
%ADD37RoundRect,0.150000X-0.875000X-0.150000X0.875000X-0.150000X0.875000X0.150000X-0.875000X0.150000X0*%
%ADD38R,1.000000X1.500000*%
%ADD39RoundRect,0.250001X-0.499999X-0.924999X0.499999X-0.924999X0.499999X0.924999X-0.499999X0.924999X0*%
G04 APERTURE END LIST*
D10*
%TO.C,BUS1*%
X95250000Y-158496000D03*
X96520000Y-158496000D03*
X97790000Y-158496000D03*
X99060000Y-158496000D03*
X100330000Y-158496000D03*
X101600000Y-158496000D03*
X102870000Y-158496000D03*
X104140000Y-158496000D03*
X105410000Y-158496000D03*
X106680000Y-158496000D03*
X107950000Y-158496000D03*
X109220000Y-158496000D03*
X110490000Y-158496000D03*
X111760000Y-158496000D03*
X113030000Y-158496000D03*
X114300000Y-158496000D03*
X115570000Y-158496000D03*
X116840000Y-158496000D03*
X118110000Y-158496000D03*
X119380000Y-158496000D03*
X120650000Y-158496000D03*
X121920000Y-158496000D03*
X123190000Y-158496000D03*
X124460000Y-158496000D03*
X125730000Y-158496000D03*
X127000000Y-158496000D03*
X128270000Y-158496000D03*
X129540000Y-158496000D03*
X130810000Y-158496000D03*
X132080000Y-158496000D03*
X133350000Y-158496000D03*
X134620000Y-158496000D03*
X135890000Y-158496000D03*
X137160000Y-158496000D03*
X138430000Y-158496000D03*
X139700000Y-158496000D03*
X140970000Y-158496000D03*
X142240000Y-158496000D03*
X143510000Y-158496000D03*
X144780000Y-158496000D03*
X146050000Y-158496000D03*
X147320000Y-158496000D03*
X148590000Y-158496000D03*
X149860000Y-158496000D03*
X151130000Y-158496000D03*
X152400000Y-158496000D03*
X153670000Y-158496000D03*
X154940000Y-158496000D03*
X156210000Y-158496000D03*
X160020000Y-158496000D03*
X161290000Y-158496000D03*
X162560000Y-158496000D03*
X163830000Y-158496000D03*
X165100000Y-158496000D03*
X166370000Y-158496000D03*
X167640000Y-158496000D03*
X168910000Y-158496000D03*
X170180000Y-158496000D03*
X171450000Y-158496000D03*
X172720000Y-158496000D03*
%TD*%
D11*
%TO.C,C49*%
X116459000Y-64643000D03*
X113959000Y-64643000D03*
%TD*%
%TO.C,C50*%
X107569000Y-64643000D03*
X110069000Y-64643000D03*
%TD*%
D12*
%TO.C,CV1*%
X81915000Y-69215000D03*
X86995000Y-69215000D03*
%TD*%
D13*
%TO.C,D1*%
X310300142Y-61039361D03*
D14*
X317920142Y-61039361D03*
%TD*%
D13*
%TO.C,D2*%
X311023000Y-58801000D03*
D14*
X318643000Y-58801000D03*
%TD*%
D13*
%TO.C,D3*%
X353949000Y-84455000D03*
D14*
X361569000Y-84455000D03*
%TD*%
D13*
%TO.C,D4*%
X353949000Y-86719165D03*
D14*
X361569000Y-86719165D03*
%TD*%
D15*
%TO.C,D6*%
X89535000Y-75565000D03*
D16*
X92075000Y-75565000D03*
%TD*%
D12*
%TO.C,L6*%
X72873768Y-96806012D03*
X72873768Y-122206012D03*
X72873768Y-99346012D03*
X72873768Y-117126012D03*
%TD*%
D17*
%TO.C,P1*%
X59055000Y-104775000D03*
D18*
X61595000Y-107315000D03*
X61595000Y-102235000D03*
X56515000Y-107315000D03*
X56515000Y-102235000D03*
%TD*%
D17*
%TO.C,P2*%
X59055000Y-116205000D03*
D18*
X61595000Y-118745000D03*
X61595000Y-113665000D03*
X56515000Y-118745000D03*
X56515000Y-113665000D03*
%TD*%
D17*
%TO.C,P3*%
X59055000Y-93345000D03*
D18*
X61595000Y-95885000D03*
X61595000Y-90805000D03*
X56515000Y-95885000D03*
X56515000Y-90805000D03*
%TD*%
D19*
%TO.C,P4*%
X105664000Y-70358000D03*
D20*
X105664000Y-67818000D03*
%TD*%
D19*
%TO.C,P5*%
X93345000Y-61595000D03*
D20*
X95885000Y-61595000D03*
X98425000Y-61595000D03*
X100965000Y-61595000D03*
X103505000Y-61595000D03*
%TD*%
D17*
%TO.C,P8*%
X59055000Y-81915000D03*
D18*
X61595000Y-84455000D03*
X61595000Y-79375000D03*
X56515000Y-84455000D03*
X56515000Y-79375000D03*
%TD*%
D19*
%TO.C,P9*%
X114300000Y-74930000D03*
%TD*%
%TO.C,P10*%
X89535000Y-59055000D03*
%TD*%
%TO.C,P11*%
X89535000Y-63500000D03*
%TD*%
%TO.C,P12*%
X82423000Y-57912000D03*
%TD*%
D21*
%TO.C,RR1*%
X188595000Y-142621000D03*
D22*
X186055000Y-142621000D03*
X183515000Y-142621000D03*
X180975000Y-142621000D03*
X178435000Y-142621000D03*
X175895000Y-142621000D03*
X173355000Y-142621000D03*
X170815000Y-142621000D03*
X168275000Y-142621000D03*
%TD*%
D21*
%TO.C,RR2*%
X188595000Y-137795000D03*
D22*
X186055000Y-137795000D03*
X183515000Y-137795000D03*
X180975000Y-137795000D03*
X178435000Y-137795000D03*
X175895000Y-137795000D03*
X173355000Y-137795000D03*
X170815000Y-137795000D03*
X168275000Y-137795000D03*
%TD*%
D21*
%TO.C,RR3*%
X188595000Y-134112000D03*
D22*
X186055000Y-134112000D03*
X183515000Y-134112000D03*
X180975000Y-134112000D03*
X178435000Y-134112000D03*
X175895000Y-134112000D03*
X173355000Y-134112000D03*
X170815000Y-134112000D03*
X168275000Y-134112000D03*
%TD*%
D21*
%TO.C,RR4*%
X85090000Y-142875000D03*
D22*
X87630000Y-142875000D03*
X90170000Y-142875000D03*
X92710000Y-142875000D03*
X95250000Y-142875000D03*
X97790000Y-142875000D03*
X100330000Y-142875000D03*
X102870000Y-142875000D03*
X105410000Y-142875000D03*
%TD*%
D21*
%TO.C,RR5*%
X85090000Y-135890000D03*
D22*
X87630000Y-135890000D03*
X90170000Y-135890000D03*
X92710000Y-135890000D03*
X95250000Y-135890000D03*
X97790000Y-135890000D03*
X100330000Y-135890000D03*
X102870000Y-135890000D03*
X105410000Y-135890000D03*
%TD*%
D21*
%TO.C,RR6*%
X84800000Y-127000000D03*
D22*
X87340000Y-127000000D03*
X89880000Y-127000000D03*
X92420000Y-127000000D03*
X94960000Y-127000000D03*
X97500000Y-127000000D03*
X100040000Y-127000000D03*
X102580000Y-127000000D03*
X105120000Y-127000000D03*
%TD*%
D21*
%TO.C,RR7*%
X92075000Y-120015000D03*
D22*
X92075000Y-117475000D03*
X92075000Y-114935000D03*
X92075000Y-112395000D03*
X92075000Y-109855000D03*
X92075000Y-107315000D03*
X92075000Y-104775000D03*
X92075000Y-102235000D03*
X92075000Y-99695000D03*
%TD*%
D21*
%TO.C,RR8*%
X88773000Y-79375000D03*
D22*
X88773000Y-81915000D03*
X88773000Y-84455000D03*
X88773000Y-86995000D03*
X88773000Y-89535000D03*
X88773000Y-92075000D03*
X88773000Y-94615000D03*
X88773000Y-97155000D03*
X88773000Y-99695000D03*
%TD*%
D21*
%TO.C,U1*%
X108585000Y-125730000D03*
D22*
X111125000Y-125730000D03*
X113665000Y-125730000D03*
X116205000Y-125730000D03*
X116205000Y-118110000D03*
X113665000Y-118110000D03*
X111125000Y-118110000D03*
X108585000Y-118110000D03*
%TD*%
D23*
%TO.C,U8*%
X311277000Y-127889000D03*
D24*
X311277000Y-125349000D03*
X313817000Y-127889000D03*
X313817000Y-125349000D03*
X316357000Y-127889000D03*
X316357000Y-125349000D03*
X318897000Y-127889000D03*
X318897000Y-125349000D03*
X321437000Y-127889000D03*
X321437000Y-125349000D03*
X323977000Y-127889000D03*
X326517000Y-125349000D03*
X323977000Y-125349000D03*
X326517000Y-122809000D03*
X323977000Y-122809000D03*
X326517000Y-120269000D03*
X323977000Y-120269000D03*
X326517000Y-117729000D03*
X323977000Y-117729000D03*
X326517000Y-115189000D03*
X323977000Y-115189000D03*
X326517000Y-112649000D03*
X323977000Y-112649000D03*
X326517000Y-110109000D03*
X323977000Y-110109000D03*
X326517000Y-107569000D03*
X323977000Y-107569000D03*
X326517000Y-105029000D03*
X323977000Y-105029000D03*
X326517000Y-102489000D03*
X323977000Y-102489000D03*
X326517000Y-99949000D03*
X323977000Y-97409000D03*
X323977000Y-99949000D03*
X321437000Y-97409000D03*
X321437000Y-99949000D03*
X318897000Y-97409000D03*
X318897000Y-99949000D03*
X316357000Y-97409000D03*
X316357000Y-99949000D03*
X313817000Y-97409000D03*
X313817000Y-99949000D03*
X311277000Y-97409000D03*
X311277000Y-99949000D03*
X308737000Y-97409000D03*
X308737000Y-99949000D03*
X306197000Y-97409000D03*
X306197000Y-99949000D03*
X303657000Y-97409000D03*
X303657000Y-99949000D03*
X301117000Y-97409000D03*
X301117000Y-99949000D03*
X298577000Y-97409000D03*
X296037000Y-99949000D03*
X298577000Y-99949000D03*
X296037000Y-102489000D03*
X298577000Y-102489000D03*
X296037000Y-105029000D03*
X298577000Y-105029000D03*
X296037000Y-107569000D03*
X298577000Y-107569000D03*
X296037000Y-110109000D03*
X298577000Y-110109000D03*
X296037000Y-112649000D03*
X298577000Y-112649000D03*
X296037000Y-115189000D03*
X298577000Y-115189000D03*
X296037000Y-117729000D03*
X298577000Y-117729000D03*
X296037000Y-120269000D03*
X298577000Y-120269000D03*
X296037000Y-122809000D03*
X298577000Y-122809000D03*
X296037000Y-125349000D03*
X298577000Y-127889000D03*
X298577000Y-125349000D03*
X301117000Y-127889000D03*
X301117000Y-125349000D03*
X303657000Y-127889000D03*
X303657000Y-125349000D03*
X306197000Y-127889000D03*
X306197000Y-125349000D03*
X308737000Y-127889000D03*
X308737000Y-125349000D03*
%TD*%
D23*
%TO.C,U9*%
X343535000Y-102235000D03*
D24*
X343535000Y-104775000D03*
X340995000Y-102235000D03*
X340995000Y-104775000D03*
X338455000Y-102235000D03*
X338455000Y-104775000D03*
X335915000Y-102235000D03*
X335915000Y-104775000D03*
X333375000Y-102235000D03*
X330835000Y-104775000D03*
X333375000Y-104775000D03*
X330835000Y-107315000D03*
X333375000Y-107315000D03*
X330835000Y-109855000D03*
X333375000Y-109855000D03*
X330835000Y-112395000D03*
X333375000Y-112395000D03*
X330835000Y-114935000D03*
X333375000Y-114935000D03*
X330835000Y-117475000D03*
X333375000Y-117475000D03*
X330835000Y-120015000D03*
X333375000Y-120015000D03*
X330835000Y-122555000D03*
X333375000Y-122555000D03*
X330835000Y-125095000D03*
X333375000Y-127635000D03*
X333375000Y-125095000D03*
X335915000Y-127635000D03*
X335915000Y-125095000D03*
X338455000Y-127635000D03*
X338455000Y-125095000D03*
X340995000Y-127635000D03*
X340995000Y-125095000D03*
X343535000Y-127635000D03*
X343535000Y-125095000D03*
X346075000Y-127635000D03*
X346075000Y-125095000D03*
X348615000Y-127635000D03*
X348615000Y-125095000D03*
X351155000Y-127635000D03*
X351155000Y-125095000D03*
X353695000Y-127635000D03*
X356235000Y-125095000D03*
X353695000Y-125095000D03*
X356235000Y-122555000D03*
X353695000Y-122555000D03*
X356235000Y-120015000D03*
X353695000Y-120015000D03*
X356235000Y-117475000D03*
X353695000Y-117475000D03*
X356235000Y-114935000D03*
X353695000Y-114935000D03*
X356235000Y-112395000D03*
X353695000Y-112395000D03*
X356235000Y-109855000D03*
X353695000Y-109855000D03*
X356235000Y-107315000D03*
X353695000Y-107315000D03*
X356235000Y-104775000D03*
X353695000Y-102235000D03*
X353695000Y-104775000D03*
X351155000Y-102235000D03*
X351155000Y-104775000D03*
X348615000Y-102235000D03*
X348615000Y-104775000D03*
X346075000Y-102235000D03*
X346075000Y-104775000D03*
%TD*%
D25*
%TO.C,U12*%
X178435000Y-108585000D03*
D26*
X234315000Y-108585000D03*
D25*
X290195000Y-108585000D03*
D27*
X281940000Y-109855000D03*
D26*
X280670000Y-107315000D03*
X279400000Y-109855000D03*
X278130000Y-107315000D03*
X276860000Y-109855000D03*
X275590000Y-107315000D03*
X274320000Y-109855000D03*
X273050000Y-107315000D03*
X271780000Y-109855000D03*
X270510000Y-107315000D03*
X269240000Y-109855000D03*
X267970000Y-107315000D03*
X266700000Y-109855000D03*
X265430000Y-107315000D03*
X264160000Y-109855000D03*
X262890000Y-107315000D03*
X261620000Y-109855000D03*
X260350000Y-107315000D03*
X259080000Y-109855000D03*
X257810000Y-107315000D03*
X256540000Y-109855000D03*
X255270000Y-107315000D03*
X254000000Y-109855000D03*
X252730000Y-107315000D03*
X251460000Y-109855000D03*
X250190000Y-107315000D03*
X248920000Y-109855000D03*
X247650000Y-107315000D03*
X246380000Y-109855000D03*
X245110000Y-107315000D03*
X243840000Y-109855000D03*
X242570000Y-107315000D03*
X241300000Y-109855000D03*
X240030000Y-107315000D03*
X238760000Y-109855000D03*
X237490000Y-107315000D03*
X231140000Y-109855000D03*
X229870000Y-107315000D03*
X228600000Y-109855000D03*
X227330000Y-107315000D03*
X226060000Y-109855000D03*
X224790000Y-107315000D03*
X223520000Y-109855000D03*
X222250000Y-107315000D03*
X220980000Y-109855000D03*
X219710000Y-107315000D03*
X218440000Y-109855000D03*
X217170000Y-107315000D03*
X215900000Y-109855000D03*
X214630000Y-107315000D03*
X213360000Y-109855000D03*
X212090000Y-107315000D03*
X210820000Y-109855000D03*
X209550000Y-107315000D03*
X208280000Y-109855000D03*
X207010000Y-107315000D03*
X205740000Y-109855000D03*
X204470000Y-107315000D03*
X203200000Y-109855000D03*
X201930000Y-107315000D03*
X200660000Y-109855000D03*
X199390000Y-107315000D03*
X198120000Y-109855000D03*
X196850000Y-107315000D03*
X195580000Y-109855000D03*
X194310000Y-107315000D03*
X193040000Y-109855000D03*
X191770000Y-107315000D03*
X190500000Y-109855000D03*
X189230000Y-107315000D03*
X187960000Y-109855000D03*
X186690000Y-107315000D03*
%TD*%
D25*
%TO.C,U13*%
X178435000Y-126365000D03*
D26*
X234315000Y-126365000D03*
D25*
X290195000Y-126365000D03*
D27*
X281940000Y-127635000D03*
D26*
X280670000Y-125095000D03*
X279400000Y-127635000D03*
X278130000Y-125095000D03*
X276860000Y-127635000D03*
X275590000Y-125095000D03*
X274320000Y-127635000D03*
X273050000Y-125095000D03*
X271780000Y-127635000D03*
X270510000Y-125095000D03*
X269240000Y-127635000D03*
X267970000Y-125095000D03*
X266700000Y-127635000D03*
X265430000Y-125095000D03*
X264160000Y-127635000D03*
X262890000Y-125095000D03*
X261620000Y-127635000D03*
X260350000Y-125095000D03*
X259080000Y-127635000D03*
X257810000Y-125095000D03*
X256540000Y-127635000D03*
X255270000Y-125095000D03*
X254000000Y-127635000D03*
X252730000Y-125095000D03*
X251460000Y-127635000D03*
X250190000Y-125095000D03*
X248920000Y-127635000D03*
X247650000Y-125095000D03*
X246380000Y-127635000D03*
X245110000Y-125095000D03*
X243840000Y-127635000D03*
X242570000Y-125095000D03*
X241300000Y-127635000D03*
X240030000Y-125095000D03*
X238760000Y-127635000D03*
X237490000Y-125095000D03*
X231140000Y-127635000D03*
X229870000Y-125095000D03*
X228600000Y-127635000D03*
X227330000Y-125095000D03*
X226060000Y-127635000D03*
X224790000Y-125095000D03*
X223520000Y-127635000D03*
X222250000Y-125095000D03*
X220980000Y-127635000D03*
X219710000Y-125095000D03*
X218440000Y-127635000D03*
X217170000Y-125095000D03*
X215900000Y-127635000D03*
X214630000Y-125095000D03*
X213360000Y-127635000D03*
X212090000Y-125095000D03*
X210820000Y-127635000D03*
X209550000Y-125095000D03*
X208280000Y-127635000D03*
X207010000Y-125095000D03*
X205740000Y-127635000D03*
X204470000Y-125095000D03*
X203200000Y-127635000D03*
X201930000Y-125095000D03*
X200660000Y-127635000D03*
X199390000Y-125095000D03*
X198120000Y-127635000D03*
X196850000Y-125095000D03*
X195580000Y-127635000D03*
X194310000Y-125095000D03*
X193040000Y-127635000D03*
X191770000Y-125095000D03*
X190500000Y-127635000D03*
X189230000Y-125095000D03*
X187960000Y-127635000D03*
X186690000Y-125095000D03*
%TD*%
D25*
%TO.C,U14*%
X178435000Y-117475000D03*
D26*
X234315000Y-117475000D03*
D25*
X290195000Y-117475000D03*
D27*
X281940000Y-118745000D03*
D26*
X280670000Y-116205000D03*
X279400000Y-118745000D03*
X278130000Y-116205000D03*
X276860000Y-118745000D03*
X275590000Y-116205000D03*
X274320000Y-118745000D03*
X273050000Y-116205000D03*
X271780000Y-118745000D03*
X270510000Y-116205000D03*
X269240000Y-118745000D03*
X267970000Y-116205000D03*
X266700000Y-118745000D03*
X265430000Y-116205000D03*
X264160000Y-118745000D03*
X262890000Y-116205000D03*
X261620000Y-118745000D03*
X260350000Y-116205000D03*
X259080000Y-118745000D03*
X257810000Y-116205000D03*
X256540000Y-118745000D03*
X255270000Y-116205000D03*
X254000000Y-118745000D03*
X252730000Y-116205000D03*
X251460000Y-118745000D03*
X250190000Y-116205000D03*
X248920000Y-118745000D03*
X247650000Y-116205000D03*
X246380000Y-118745000D03*
X245110000Y-116205000D03*
X243840000Y-118745000D03*
X242570000Y-116205000D03*
X241300000Y-118745000D03*
X240030000Y-116205000D03*
X238760000Y-118745000D03*
X237490000Y-116205000D03*
X231140000Y-118745000D03*
X229870000Y-116205000D03*
X228600000Y-118745000D03*
X227330000Y-116205000D03*
X226060000Y-118745000D03*
X224790000Y-116205000D03*
X223520000Y-118745000D03*
X222250000Y-116205000D03*
X220980000Y-118745000D03*
X219710000Y-116205000D03*
X218440000Y-118745000D03*
X217170000Y-116205000D03*
X215900000Y-118745000D03*
X214630000Y-116205000D03*
X213360000Y-118745000D03*
X212090000Y-116205000D03*
X210820000Y-118745000D03*
X209550000Y-116205000D03*
X208280000Y-118745000D03*
X207010000Y-116205000D03*
X205740000Y-118745000D03*
X204470000Y-116205000D03*
X203200000Y-118745000D03*
X201930000Y-116205000D03*
X200660000Y-118745000D03*
X199390000Y-116205000D03*
X198120000Y-118745000D03*
X196850000Y-116205000D03*
X195580000Y-118745000D03*
X194310000Y-116205000D03*
X193040000Y-118745000D03*
X191770000Y-116205000D03*
X190500000Y-118745000D03*
X189230000Y-116205000D03*
X187960000Y-118745000D03*
X186690000Y-116205000D03*
%TD*%
D25*
%TO.C,U15*%
X178435000Y-90805000D03*
D26*
X234315000Y-90805000D03*
D25*
X290195000Y-90805000D03*
D27*
X281940000Y-92075000D03*
D26*
X280670000Y-89535000D03*
X279400000Y-92075000D03*
X278130000Y-89535000D03*
X276860000Y-92075000D03*
X275590000Y-89535000D03*
X274320000Y-92075000D03*
X273050000Y-89535000D03*
X271780000Y-92075000D03*
X270510000Y-89535000D03*
X269240000Y-92075000D03*
X267970000Y-89535000D03*
X266700000Y-92075000D03*
X265430000Y-89535000D03*
X264160000Y-92075000D03*
X262890000Y-89535000D03*
X261620000Y-92075000D03*
X260350000Y-89535000D03*
X259080000Y-92075000D03*
X257810000Y-89535000D03*
X256540000Y-92075000D03*
X255270000Y-89535000D03*
X254000000Y-92075000D03*
X252730000Y-89535000D03*
X251460000Y-92075000D03*
X250190000Y-89535000D03*
X248920000Y-92075000D03*
X247650000Y-89535000D03*
X246380000Y-92075000D03*
X245110000Y-89535000D03*
X243840000Y-92075000D03*
X242570000Y-89535000D03*
X241300000Y-92075000D03*
X240030000Y-89535000D03*
X238760000Y-92075000D03*
X237490000Y-89535000D03*
X231140000Y-92075000D03*
X229870000Y-89535000D03*
X228600000Y-92075000D03*
X227330000Y-89535000D03*
X226060000Y-92075000D03*
X224790000Y-89535000D03*
X223520000Y-92075000D03*
X222250000Y-89535000D03*
X220980000Y-92075000D03*
X219710000Y-89535000D03*
X218440000Y-92075000D03*
X217170000Y-89535000D03*
X215900000Y-92075000D03*
X214630000Y-89535000D03*
X213360000Y-92075000D03*
X212090000Y-89535000D03*
X210820000Y-92075000D03*
X209550000Y-89535000D03*
X208280000Y-92075000D03*
X207010000Y-89535000D03*
X205740000Y-92075000D03*
X204470000Y-89535000D03*
X203200000Y-92075000D03*
X201930000Y-89535000D03*
X200660000Y-92075000D03*
X199390000Y-89535000D03*
X198120000Y-92075000D03*
X196850000Y-89535000D03*
X195580000Y-92075000D03*
X194310000Y-89535000D03*
X193040000Y-92075000D03*
X191770000Y-89535000D03*
X190500000Y-92075000D03*
X189230000Y-89535000D03*
X187960000Y-92075000D03*
X186690000Y-89535000D03*
%TD*%
D25*
%TO.C,U16*%
X178435000Y-99695000D03*
D26*
X234315000Y-99695000D03*
D25*
X290195000Y-99695000D03*
D27*
X281940000Y-100965000D03*
D26*
X280670000Y-98425000D03*
X279400000Y-100965000D03*
X278130000Y-98425000D03*
X276860000Y-100965000D03*
X275590000Y-98425000D03*
X274320000Y-100965000D03*
X273050000Y-98425000D03*
X271780000Y-100965000D03*
X270510000Y-98425000D03*
X269240000Y-100965000D03*
X267970000Y-98425000D03*
X266700000Y-100965000D03*
X265430000Y-98425000D03*
X264160000Y-100965000D03*
X262890000Y-98425000D03*
X261620000Y-100965000D03*
X260350000Y-98425000D03*
X259080000Y-100965000D03*
X257810000Y-98425000D03*
X256540000Y-100965000D03*
X255270000Y-98425000D03*
X254000000Y-100965000D03*
X252730000Y-98425000D03*
X251460000Y-100965000D03*
X250190000Y-98425000D03*
X248920000Y-100965000D03*
X247650000Y-98425000D03*
X246380000Y-100965000D03*
X245110000Y-98425000D03*
X243840000Y-100965000D03*
X242570000Y-98425000D03*
X241300000Y-100965000D03*
X240030000Y-98425000D03*
X238760000Y-100965000D03*
X237490000Y-98425000D03*
X231140000Y-100965000D03*
X229870000Y-98425000D03*
X228600000Y-100965000D03*
X227330000Y-98425000D03*
X226060000Y-100965000D03*
X224790000Y-98425000D03*
X223520000Y-100965000D03*
X222250000Y-98425000D03*
X220980000Y-100965000D03*
X219710000Y-98425000D03*
X218440000Y-100965000D03*
X217170000Y-98425000D03*
X215900000Y-100965000D03*
X214630000Y-98425000D03*
X213360000Y-100965000D03*
X212090000Y-98425000D03*
X210820000Y-100965000D03*
X209550000Y-98425000D03*
X208280000Y-100965000D03*
X207010000Y-98425000D03*
X205740000Y-100965000D03*
X204470000Y-98425000D03*
X203200000Y-100965000D03*
X201930000Y-98425000D03*
X200660000Y-100965000D03*
X199390000Y-98425000D03*
X198120000Y-100965000D03*
X196850000Y-98425000D03*
X195580000Y-100965000D03*
X194310000Y-98425000D03*
X193040000Y-100965000D03*
X191770000Y-98425000D03*
X190500000Y-100965000D03*
X189230000Y-98425000D03*
X187960000Y-100965000D03*
X186690000Y-98425000D03*
%TD*%
D25*
%TO.C,U17*%
X178435000Y-81915000D03*
D26*
X234315000Y-81915000D03*
D25*
X290195000Y-81915000D03*
D27*
X281940000Y-83185000D03*
D26*
X280670000Y-80645000D03*
X279400000Y-83185000D03*
X278130000Y-80645000D03*
X276860000Y-83185000D03*
X275590000Y-80645000D03*
X274320000Y-83185000D03*
X273050000Y-80645000D03*
X271780000Y-83185000D03*
X270510000Y-80645000D03*
X269240000Y-83185000D03*
X267970000Y-80645000D03*
X266700000Y-83185000D03*
X265430000Y-80645000D03*
X264160000Y-83185000D03*
X262890000Y-80645000D03*
X261620000Y-83185000D03*
X260350000Y-80645000D03*
X259080000Y-83185000D03*
X257810000Y-80645000D03*
X256540000Y-83185000D03*
X255270000Y-80645000D03*
X254000000Y-83185000D03*
X252730000Y-80645000D03*
X251460000Y-83185000D03*
X250190000Y-80645000D03*
X248920000Y-83185000D03*
X247650000Y-80645000D03*
X246380000Y-83185000D03*
X245110000Y-80645000D03*
X243840000Y-83185000D03*
X242570000Y-80645000D03*
X241300000Y-83185000D03*
X240030000Y-80645000D03*
X238760000Y-83185000D03*
X237490000Y-80645000D03*
X231140000Y-83185000D03*
X229870000Y-80645000D03*
X228600000Y-83185000D03*
X227330000Y-80645000D03*
X226060000Y-83185000D03*
X224790000Y-80645000D03*
X223520000Y-83185000D03*
X222250000Y-80645000D03*
X220980000Y-83185000D03*
X219710000Y-80645000D03*
X218440000Y-83185000D03*
X217170000Y-80645000D03*
X215900000Y-83185000D03*
X214630000Y-80645000D03*
X213360000Y-83185000D03*
X212090000Y-80645000D03*
X210820000Y-83185000D03*
X209550000Y-80645000D03*
X208280000Y-83185000D03*
X207010000Y-80645000D03*
X205740000Y-83185000D03*
X204470000Y-80645000D03*
X203200000Y-83185000D03*
X201930000Y-80645000D03*
X200660000Y-83185000D03*
X199390000Y-80645000D03*
X198120000Y-83185000D03*
X196850000Y-80645000D03*
X195580000Y-83185000D03*
X194310000Y-80645000D03*
X193040000Y-83185000D03*
X191770000Y-80645000D03*
X190500000Y-83185000D03*
X189230000Y-80645000D03*
X187960000Y-83185000D03*
X186690000Y-80645000D03*
%TD*%
D25*
%TO.C,U18*%
X178435000Y-73025000D03*
D26*
X234315000Y-73025000D03*
D25*
X290195000Y-73025000D03*
D27*
X281940000Y-74295000D03*
D26*
X280670000Y-71755000D03*
X279400000Y-74295000D03*
X278130000Y-71755000D03*
X276860000Y-74295000D03*
X275590000Y-71755000D03*
X274320000Y-74295000D03*
X273050000Y-71755000D03*
X271780000Y-74295000D03*
X270510000Y-71755000D03*
X269240000Y-74295000D03*
X267970000Y-71755000D03*
X266700000Y-74295000D03*
X265430000Y-71755000D03*
X264160000Y-74295000D03*
X262890000Y-71755000D03*
X261620000Y-74295000D03*
X260350000Y-71755000D03*
X259080000Y-74295000D03*
X257810000Y-71755000D03*
X256540000Y-74295000D03*
X255270000Y-71755000D03*
X254000000Y-74295000D03*
X252730000Y-71755000D03*
X251460000Y-74295000D03*
X250190000Y-71755000D03*
X248920000Y-74295000D03*
X247650000Y-71755000D03*
X246380000Y-74295000D03*
X245110000Y-71755000D03*
X243840000Y-74295000D03*
X242570000Y-71755000D03*
X241300000Y-74295000D03*
X240030000Y-71755000D03*
X238760000Y-74295000D03*
X237490000Y-71755000D03*
X231140000Y-74295000D03*
X229870000Y-71755000D03*
X228600000Y-74295000D03*
X227330000Y-71755000D03*
X226060000Y-74295000D03*
X224790000Y-71755000D03*
X223520000Y-74295000D03*
X222250000Y-71755000D03*
X220980000Y-74295000D03*
X219710000Y-71755000D03*
X218440000Y-74295000D03*
X217170000Y-71755000D03*
X215900000Y-74295000D03*
X214630000Y-71755000D03*
X213360000Y-74295000D03*
X212090000Y-71755000D03*
X210820000Y-74295000D03*
X209550000Y-71755000D03*
X208280000Y-74295000D03*
X207010000Y-71755000D03*
X205740000Y-74295000D03*
X204470000Y-71755000D03*
X203200000Y-74295000D03*
X201930000Y-71755000D03*
X200660000Y-74295000D03*
X199390000Y-71755000D03*
X198120000Y-74295000D03*
X196850000Y-71755000D03*
X195580000Y-74295000D03*
X194310000Y-71755000D03*
X193040000Y-74295000D03*
X191770000Y-71755000D03*
X190500000Y-74295000D03*
X189230000Y-71755000D03*
X187960000Y-74295000D03*
X186690000Y-71755000D03*
%TD*%
D25*
%TO.C,U19*%
X178435000Y-64135000D03*
D26*
X234315000Y-64135000D03*
D25*
X290195000Y-64135000D03*
D27*
X281940000Y-65405000D03*
D26*
X280670000Y-62865000D03*
X279400000Y-65405000D03*
X278130000Y-62865000D03*
X276860000Y-65405000D03*
X275590000Y-62865000D03*
X274320000Y-65405000D03*
X273050000Y-62865000D03*
X271780000Y-65405000D03*
X270510000Y-62865000D03*
X269240000Y-65405000D03*
X267970000Y-62865000D03*
X266700000Y-65405000D03*
X265430000Y-62865000D03*
X264160000Y-65405000D03*
X262890000Y-62865000D03*
X261620000Y-65405000D03*
X260350000Y-62865000D03*
X259080000Y-65405000D03*
X257810000Y-62865000D03*
X256540000Y-65405000D03*
X255270000Y-62865000D03*
X254000000Y-65405000D03*
X252730000Y-62865000D03*
X251460000Y-65405000D03*
X250190000Y-62865000D03*
X248920000Y-65405000D03*
X247650000Y-62865000D03*
X246380000Y-65405000D03*
X245110000Y-62865000D03*
X243840000Y-65405000D03*
X242570000Y-62865000D03*
X241300000Y-65405000D03*
X240030000Y-62865000D03*
X238760000Y-65405000D03*
X237490000Y-62865000D03*
X231140000Y-65405000D03*
X229870000Y-62865000D03*
X228600000Y-65405000D03*
X227330000Y-62865000D03*
X226060000Y-65405000D03*
X224790000Y-62865000D03*
X223520000Y-65405000D03*
X222250000Y-62865000D03*
X220980000Y-65405000D03*
X219710000Y-62865000D03*
X218440000Y-65405000D03*
X217170000Y-62865000D03*
X215900000Y-65405000D03*
X214630000Y-62865000D03*
X213360000Y-65405000D03*
X212090000Y-62865000D03*
X210820000Y-65405000D03*
X209550000Y-62865000D03*
X208280000Y-65405000D03*
X207010000Y-62865000D03*
X205740000Y-65405000D03*
X204470000Y-62865000D03*
X203200000Y-65405000D03*
X201930000Y-62865000D03*
X200660000Y-65405000D03*
X199390000Y-62865000D03*
X198120000Y-65405000D03*
X196850000Y-62865000D03*
X195580000Y-65405000D03*
X194310000Y-62865000D03*
X193040000Y-65405000D03*
X191770000Y-62865000D03*
X190500000Y-65405000D03*
X189230000Y-62865000D03*
X187960000Y-65405000D03*
X186690000Y-62865000D03*
%TD*%
D21*
%TO.C,U21*%
X94615000Y-73025000D03*
D22*
X97155000Y-73025000D03*
X99695000Y-73025000D03*
X102235000Y-73025000D03*
X102235000Y-65405000D03*
X99695000Y-65405000D03*
X97155000Y-65405000D03*
X94615000Y-65405000D03*
%TD*%
D19*
%TO.C,W5*%
X88900000Y-147955000D03*
D20*
X91440000Y-147955000D03*
%TD*%
D28*
%TO.C,X1*%
X114427000Y-59690000D03*
X109527000Y-59690000D03*
%TD*%
%TO.C,X2*%
X357632000Y-91948000D03*
X357632000Y-96848000D03*
%TD*%
%TO.C,X3*%
X75565000Y-73025000D03*
X70665000Y-73025000D03*
%TD*%
D19*
%TO.C,W4*%
X109220000Y-142875000D03*
D20*
X109220000Y-145415000D03*
%TD*%
D29*
%TO.C,J4*%
X69319000Y-126105000D03*
X69319000Y-151105000D03*
D21*
X70739000Y-144145000D03*
D11*
X70739000Y-141375000D03*
X70739000Y-138605000D03*
X70739000Y-135835000D03*
X70739000Y-133065000D03*
X67899000Y-142760000D03*
X67899000Y-139990000D03*
X67899000Y-137220000D03*
X67899000Y-134450000D03*
%TD*%
D30*
%TO.C,C2*%
X345567000Y-68987000D03*
X345567000Y-65887000D03*
%TD*%
D31*
%TO.C,C4*%
X354431000Y-78105000D03*
X357531000Y-78105000D03*
%TD*%
D32*
%TO.C,C5*%
X346202000Y-95732000D03*
X346202000Y-98832000D03*
%TD*%
D30*
%TO.C,C6*%
X345567000Y-74829000D03*
X345567000Y-71729000D03*
%TD*%
D33*
%TO.C,C7*%
X339751000Y-87757000D03*
X336651000Y-87757000D03*
%TD*%
%TO.C,C8*%
X350673000Y-58039000D03*
X347573000Y-58039000D03*
%TD*%
D31*
%TO.C,C9*%
X332333000Y-64897000D03*
X335433000Y-64897000D03*
%TD*%
%TO.C,C10*%
X342747000Y-87757000D03*
X345847000Y-87757000D03*
%TD*%
D30*
%TO.C,C11*%
X319278000Y-71527000D03*
X319278000Y-68427000D03*
%TD*%
%TO.C,C12*%
X345567000Y-81941000D03*
X345567000Y-78841000D03*
%TD*%
D31*
%TO.C,C13*%
X324459000Y-64643000D03*
X327559000Y-64643000D03*
%TD*%
D30*
%TO.C,C14*%
X324231000Y-83465000D03*
X324231000Y-80365000D03*
%TD*%
D31*
%TO.C,C15*%
X324205000Y-87249000D03*
X327305000Y-87249000D03*
%TD*%
D33*
%TO.C,C16*%
X339751000Y-84709000D03*
X336651000Y-84709000D03*
%TD*%
D30*
%TO.C,C17*%
X155194000Y-86894000D03*
X155194000Y-83794000D03*
%TD*%
D32*
%TO.C,C18*%
X157480000Y-72745000D03*
X157480000Y-75845000D03*
%TD*%
D33*
%TO.C,C19*%
X142520000Y-73660000D03*
X139420000Y-73660000D03*
%TD*%
D31*
%TO.C,C20*%
X129260000Y-73025000D03*
X132360000Y-73025000D03*
%TD*%
%TO.C,C21*%
X123164000Y-90805000D03*
X126264000Y-90805000D03*
%TD*%
%TO.C,C22*%
X125450000Y-104140000D03*
X128550000Y-104140000D03*
%TD*%
%TO.C,C23*%
X128625000Y-61595000D03*
X131725000Y-61595000D03*
%TD*%
%TO.C,C24*%
X136499000Y-116840000D03*
X139599000Y-116840000D03*
%TD*%
D33*
%TO.C,C25*%
X147981000Y-114935000D03*
X144881000Y-114935000D03*
%TD*%
%TO.C,C26*%
X152172000Y-122936000D03*
X149072000Y-122936000D03*
%TD*%
D31*
%TO.C,C27*%
X130784000Y-123190000D03*
X133884000Y-123190000D03*
%TD*%
D33*
%TO.C,C28*%
X151791000Y-135890000D03*
X148691000Y-135890000D03*
%TD*%
%TO.C,C29*%
X148616000Y-139700000D03*
X145516000Y-139700000D03*
%TD*%
D31*
%TO.C,C30*%
X135229000Y-139700000D03*
X138329000Y-139700000D03*
%TD*%
D33*
%TO.C,C32*%
X359309000Y-127635000D03*
X356209000Y-127635000D03*
%TD*%
D31*
%TO.C,C33*%
X343763000Y-111760000D03*
X346863000Y-111760000D03*
%TD*%
%TO.C,C34*%
X342239000Y-117602000D03*
X345339000Y-117602000D03*
%TD*%
%TO.C,C35*%
X352399000Y-131699000D03*
X355499000Y-131699000D03*
%TD*%
D32*
%TO.C,C36*%
X313944000Y-118465000D03*
X313944000Y-121565000D03*
%TD*%
%TO.C,C37*%
X318900000Y-118465000D03*
X318900000Y-121565000D03*
%TD*%
D33*
%TO.C,C38*%
X151791000Y-132080000D03*
X148691000Y-132080000D03*
%TD*%
D34*
%TO.C,C42*%
X342366000Y-120396000D03*
X345466000Y-120396000D03*
%TD*%
D31*
%TO.C,C43*%
X77571000Y-88011000D03*
X80671000Y-88011000D03*
%TD*%
D30*
%TO.C,C44*%
X74041000Y-86894000D03*
X74041000Y-83794000D03*
%TD*%
D31*
%TO.C,C45*%
X77571000Y-85471000D03*
X80671000Y-85471000D03*
%TD*%
%TO.C,C46*%
X78841000Y-114935000D03*
X81941000Y-114935000D03*
%TD*%
%TO.C,C48*%
X77571000Y-82931000D03*
X80671000Y-82931000D03*
%TD*%
D34*
%TO.C,C51*%
X343890000Y-108585000D03*
X346990000Y-108585000D03*
%TD*%
D31*
%TO.C,C52*%
X308711000Y-117729000D03*
X311811000Y-117729000D03*
%TD*%
%TO.C,C53*%
X78841000Y-111887000D03*
X81941000Y-111887000D03*
%TD*%
D32*
%TO.C,C54*%
X78613000Y-64490000D03*
X78613000Y-67590000D03*
%TD*%
D35*
%TO.C,C55*%
X75946000Y-98907000D03*
X75946000Y-102007000D03*
%TD*%
D31*
%TO.C,C59*%
X80619000Y-96647000D03*
X83719000Y-96647000D03*
%TD*%
D34*
%TO.C,C62*%
X354685000Y-66167000D03*
X357785000Y-66167000D03*
%TD*%
D35*
%TO.C,C64*%
X84201000Y-86969000D03*
X84201000Y-90069000D03*
%TD*%
D31*
%TO.C,C65*%
X349859000Y-93091000D03*
X352959000Y-93091000D03*
%TD*%
%TO.C,C66*%
X349859000Y-95885000D03*
X352959000Y-95885000D03*
%TD*%
D33*
%TO.C,C67*%
X100991000Y-149733000D03*
X97891000Y-149733000D03*
%TD*%
%TO.C,C68*%
X119533000Y-148463000D03*
X116433000Y-148463000D03*
%TD*%
D31*
%TO.C,C69*%
X150088000Y-148463000D03*
X153188000Y-148463000D03*
%TD*%
D30*
%TO.C,C70*%
X97536000Y-86640000D03*
X97536000Y-83540000D03*
%TD*%
D33*
%TO.C,C71*%
X107976000Y-83185000D03*
X104876000Y-83185000D03*
%TD*%
%TO.C,C72*%
X111786000Y-90805000D03*
X108686000Y-90805000D03*
%TD*%
D31*
%TO.C,C73*%
X93065000Y-94615000D03*
X96165000Y-94615000D03*
%TD*%
D36*
%TO.C,Q1*%
X78740000Y-129413000D03*
X80518000Y-129413000D03*
X79629000Y-127381000D03*
%TD*%
%TO.C,Q2*%
X74168000Y-129413000D03*
X75946000Y-129413000D03*
X75057000Y-127381000D03*
%TD*%
%TO.C,Q3*%
X74168000Y-95631000D03*
X75946000Y-95631000D03*
X75057000Y-93599000D03*
%TD*%
D31*
%TO.C,R2*%
X354431000Y-81153000D03*
X357531000Y-81153000D03*
%TD*%
D32*
%TO.C,R3*%
X358140000Y-70713000D03*
X358140000Y-73813000D03*
%TD*%
D31*
%TO.C,R5*%
X161899000Y-134620000D03*
X164999000Y-134620000D03*
%TD*%
D33*
%TO.C,R6*%
X116485000Y-123190000D03*
X113385000Y-123190000D03*
%TD*%
%TO.C,R7*%
X120295000Y-120650000D03*
X117195000Y-120650000D03*
%TD*%
D32*
%TO.C,R9*%
X67945000Y-83667000D03*
X67945000Y-86767000D03*
%TD*%
D30*
%TO.C,R12*%
X355727000Y-73813000D03*
X355727000Y-70713000D03*
%TD*%
D31*
%TO.C,R13*%
X84345255Y-75541162D03*
X87445255Y-75541162D03*
%TD*%
D32*
%TO.C,R15*%
X321437000Y-118465000D03*
X321437000Y-121565000D03*
%TD*%
D30*
%TO.C,R16*%
X79883000Y-124105000D03*
X79883000Y-121005000D03*
%TD*%
%TO.C,R17*%
X75565000Y-124105000D03*
X75565000Y-121005000D03*
%TD*%
D32*
%TO.C,R18*%
X70739000Y-83667000D03*
X70739000Y-86767000D03*
%TD*%
D30*
%TO.C,R19*%
X343408000Y-98832000D03*
X343408000Y-95732000D03*
%TD*%
D31*
%TO.C,R20*%
X341477000Y-58039000D03*
X344577000Y-58039000D03*
%TD*%
D33*
%TO.C,R21*%
X111405000Y-67564000D03*
X108305000Y-67564000D03*
%TD*%
D30*
%TO.C,R25*%
X355346000Y-96165000D03*
X355346000Y-93065000D03*
%TD*%
D31*
%TO.C,R26*%
X110337000Y-62103000D03*
X113437000Y-62103000D03*
%TD*%
%TO.C,R27*%
X342747000Y-84709000D03*
X345847000Y-84709000D03*
%TD*%
%TO.C,R30*%
X79857000Y-99441000D03*
X82957000Y-99441000D03*
%TD*%
D33*
%TO.C,R31*%
X82957000Y-102743000D03*
X79857000Y-102743000D03*
%TD*%
D31*
%TO.C,R32*%
X78841000Y-136779000D03*
X81941000Y-136779000D03*
%TD*%
%TO.C,R33*%
X78841000Y-133731000D03*
X81941000Y-133731000D03*
%TD*%
D33*
%TO.C,R34*%
X70257000Y-98933000D03*
X67157000Y-98933000D03*
%TD*%
D30*
%TO.C,R36*%
X316357000Y-121565000D03*
X316357000Y-118465000D03*
%TD*%
D33*
%TO.C,R37*%
X310922000Y-121285000D03*
X307822000Y-121285000D03*
%TD*%
D31*
%TO.C,R38*%
X302615000Y-117729000D03*
X305715000Y-117729000D03*
%TD*%
%TO.C,R39*%
X73507000Y-136779000D03*
X76607000Y-136779000D03*
%TD*%
D33*
%TO.C,R40*%
X76607000Y-133731000D03*
X73507000Y-133731000D03*
%TD*%
D31*
%TO.C,R41*%
X67157000Y-95631000D03*
X70257000Y-95631000D03*
%TD*%
D33*
%TO.C,R42*%
X76607000Y-145923000D03*
X73507000Y-145923000D03*
%TD*%
%TO.C,R43*%
X76607000Y-142875000D03*
X73507000Y-142875000D03*
%TD*%
%TO.C,R44*%
X76607000Y-139827000D03*
X73507000Y-139827000D03*
%TD*%
D32*
%TO.C,R46*%
X66548000Y-106146000D03*
X66548000Y-109246000D03*
%TD*%
D31*
%TO.C,R47*%
X66395000Y-114046000D03*
X69495000Y-114046000D03*
%TD*%
%TO.C,R48*%
X106781000Y-86741000D03*
X109881000Y-86741000D03*
%TD*%
D37*
%TO.C,U3*%
X164133000Y-112268000D03*
X164133000Y-110998000D03*
X164133000Y-109728000D03*
X164133000Y-108458000D03*
X164133000Y-107188000D03*
X164133000Y-105918000D03*
X164133000Y-104648000D03*
X164133000Y-103378000D03*
X164133000Y-102108000D03*
X164133000Y-100838000D03*
X173433000Y-100838000D03*
X173433000Y-102108000D03*
X173433000Y-103378000D03*
X173433000Y-104648000D03*
X173433000Y-105918000D03*
X173433000Y-107188000D03*
X173433000Y-108458000D03*
X173433000Y-109728000D03*
X173433000Y-110998000D03*
X173433000Y-112268000D03*
%TD*%
%TO.C,U4*%
X164133000Y-97282000D03*
X164133000Y-96012000D03*
X164133000Y-94742000D03*
X164133000Y-93472000D03*
X164133000Y-92202000D03*
X164133000Y-90932000D03*
X164133000Y-89662000D03*
X164133000Y-88392000D03*
X164133000Y-87122000D03*
X164133000Y-85852000D03*
X173433000Y-85852000D03*
X173433000Y-87122000D03*
X173433000Y-88392000D03*
X173433000Y-89662000D03*
X173433000Y-90932000D03*
X173433000Y-92202000D03*
X173433000Y-93472000D03*
X173433000Y-94742000D03*
X173433000Y-96012000D03*
X173433000Y-97282000D03*
%TD*%
%TO.C,U5*%
X164133000Y-126746000D03*
X164133000Y-125476000D03*
X164133000Y-124206000D03*
X164133000Y-122936000D03*
X164133000Y-121666000D03*
X164133000Y-120396000D03*
X164133000Y-119126000D03*
X164133000Y-117856000D03*
X164133000Y-116586000D03*
X164133000Y-115316000D03*
X173433000Y-115316000D03*
X173433000Y-116586000D03*
X173433000Y-117856000D03*
X173433000Y-119126000D03*
X173433000Y-120396000D03*
X173433000Y-121666000D03*
X173433000Y-122936000D03*
X173433000Y-124206000D03*
X173433000Y-125476000D03*
X173433000Y-126746000D03*
%TD*%
D38*
%TO.C,W1*%
X163337000Y-132080000D03*
X162037000Y-132080000D03*
%TD*%
D39*
%TO.C,C57*%
X146965000Y-61341000D03*
X150215000Y-61341000D03*
%TD*%
D31*
%TO.C,C31*%
X130784000Y-136525000D03*
X133884000Y-136525000D03*
%TD*%
D39*
%TO.C,C56*%
X124105000Y-85090000D03*
X127355000Y-85090000D03*
%TD*%
M02*
