M48
; DRILL file {KiCad 9.0.9-9.0.9~ubuntu24.04.1} date 2026-06-13T03:40:01+0000
; FORMAT={-:-/ absolute / metric / decimal}
; #@! TF.CreationDate,2026-06-13T03:40:01+00:00
; #@! TF.GenerationSoftware,Kicad,Pcbnew,9.0.9-9.0.9~ubuntu24.04.1
; #@! TF.FileFunction,MixedPlating,1,4
FMAT,2
METRIC
; #@! TA.AperFunction,Plated,PTH,ViaDrill
T1C0.400
; #@! TA.AperFunction,Plated,PTH,ComponentDrill
T2C0.635
; #@! TA.AperFunction,Plated,PTH,ComponentDrill
T3C0.750
; #@! TA.AperFunction,Plated,PTH,ComponentDrill
T4C0.800
; #@! TA.AperFunction,Plated,PTH,ComponentDrill
T5C0.813
; #@! TA.AperFunction,Plated,PTH,ComponentDrill
T6C0.900
; #@! TA.AperFunction,Plated,PTH,ComponentDrill
T7C1.000
; #@! TA.AperFunction,Plated,PTH,ComponentDrill
T8C1.016
; #@! TA.AperFunction,Plated,PTH,ComponentDrill
T9C1.524
; #@! TA.AperFunction,Plated,PTH,ComponentDrill
T10C2.500
; #@! TA.AperFunction,Plated,PTH,ComponentDrill
T11C3.200
%
G90
G05
T1
X66.929Y-106.426
X67.945Y-85.471
X70.9Y-77.2
X71.12Y-111.887
X71.374Y-115.189
X72.009Y-81.788
X72.263Y-86.868
X72.517Y-83.693
X72.771Y-92.202
X73.025Y-103.759
X73.279Y-88.392
X73.787Y-93.218
X75.565Y-119.761
X75.819Y-81.788
X75.946Y-83.947
X76.835Y-96.774
X77.597Y-95.504
X77.597Y-127.381
X77.978Y-91.821
X78.486Y-102.743
X78.486Y-139.827
X78.486Y-142.875
X78.486Y-145.923
X78.74Y-85.09
X78.74Y-110.363
X79.121Y-86.868
X79.375Y-88.011
X79.629Y-78.613
X79.883Y-119.634
X80.899Y-81.661
X82.169Y-64.389
X82.55Y-144.272
X82.677Y-77.597
X82.931Y-80.772
X83.566Y-111.887
X84.328Y-102.743
X85.09Y-96.647
X85.09Y-104.775
X85.217Y-100.965
X85.725Y-81.788
X86.233Y-104.902
X87.376Y-144.907
X87.503Y-106.426
X89.027Y-66.802
X89.281Y-101.092
X90.8Y-83.2
X93.218Y-96.012
X94.361Y-82.804
X94.361Y-83.947
X95.148Y-99.695
X95.25Y-81.28
X95.25Y-87.198
X95.25Y-92.837
X95.377Y-96.52
X96.139Y-82.042
X96.52Y-92.075
X96.647Y-102.235
X97.155Y-113.665
X97.536Y-87.249
X97.663Y-106.807
X97.79Y-92.075
X97.79Y-151.765
X98.425Y-69.85
X98.425Y-103.505
X98.552Y-80.518
X98.679Y-110.871
X98.806Y-75.819
X99.06Y-92.075
X99.06Y-153.035
X99.441Y-58.293
X99.695Y-80.772
X99.797Y-103.378
X100.076Y-70.485
X100.076Y-75.184
X100.33Y-92.075
X100.584Y-105.156
X100.965Y-58.547
X100.965Y-151.765
X101.6Y-92.075
X102.235Y-104.775
X102.54Y-81.28
X102.616Y-149.098
X102.87Y-92.075
X102.997Y-97.663
X102.997Y-99.06
X103.268Y-70.866
X103.505Y-104.775
X103.505Y-107.188
X103.759Y-149.733
X104.14Y-90.805
X104.14Y-92.075
X104.14Y-153.035
X104.394Y-144.907
X104.648Y-106.045
X105.029Y-58.928
X105.029Y-148.717
X105.156Y-80.391
X105.664Y-146.05
X106.045Y-108.585
X106.426Y-58.928
X106.426Y-81.534
X106.68Y-153.035
X107.061Y-145.288
X107.315Y-108.585
X107.696Y-76.073
X107.95Y-82.042
X108.458Y-69.342
X108.585Y-92.075
X108.585Y-108.585
X109.347Y-85.344
X109.855Y-108.585
X110.236Y-88.138
X110.363Y-73.025
X110.617Y-81.153
X111.125Y-108.585
X111.633Y-70.231
X111.76Y-86.995
X111.76Y-92.71
X112.293Y-84.455
X112.395Y-108.585
X112.471Y-85.979
X113.03Y-120.65
X113.03Y-151.765
X113.03Y-153.035
X113.284Y-102.489
X113.665Y-108.585
X114.554Y-106.807
X115.57Y-150.495
X115.57Y-153.035
X115.697Y-97.282
X116.205Y-102.362
X116.967Y-97.282
X117.094Y-145.669
X117.475Y-151.765
X117.856Y-87.757
X117.856Y-91.313
X118.11Y-122.936
X118.745Y-150.495
X119.126Y-117.856
X119.507Y-115.57
X119.6Y-122.8
X119.888Y-91.567
X120.142Y-59.309
X120.142Y-81.153
X120.65Y-150.495
X120.65Y-151.765
X120.65Y-153.035
X120.9Y-122.4
X121.285Y-81.661
X121.285Y-85.471
X121.285Y-97.282
X121.92Y-69.342
X122.047Y-102.87
X122.301Y-81.026
X122.301Y-121.539
X122.555Y-150.495
X122.682Y-97.282
X122.936Y-65.803
X123.19Y-88.9
X123.19Y-122.555
X123.19Y-135.89
X123.825Y-68.58
X123.952Y-81.788
X124.206Y-123.952
X124.46Y-150.495
X124.46Y-151.765
X124.46Y-153.035
X124.587Y-102.362
X124.841Y-67.564
X124.841Y-70.739
X125.095Y-108.585
X125.476Y-64.389
X125.73Y-102.743
X126.365Y-108.585
X126.365Y-150.495
X127.0Y-60.325
X127.0Y-64.135
X127.254Y-103.505
X127.635Y-72.009
X127.635Y-108.585
X128.27Y-151.765
X128.397Y-79.375
X128.524Y-146.812
X128.651Y-66.55
X128.905Y-75.819
X128.905Y-88.9
X128.905Y-116.84
X128.905Y-119.38
X128.905Y-121.92
X128.905Y-123.19
X128.905Y-124.46
X128.905Y-126.365
X128.905Y-136.525
X128.905Y-137.795
X128.905Y-139.065
X128.905Y-142.24
X129.159Y-92.202
X129.54Y-67.437
X130.175Y-61.595
X130.175Y-75.819
X130.175Y-91.567
X130.175Y-109.855
X130.175Y-126.365
X130.175Y-139.065
X130.175Y-150.495
X130.175Y-153.035
X130.81Y-62.865
X131.064Y-84.582
X131.191Y-66.95
X131.191Y-97.409
X131.191Y-118.491
X131.445Y-75.819
X131.445Y-109.855
X131.445Y-126.365
X131.445Y-139.065
X131.445Y-142.24
X131.826Y-83.439
X131.826Y-91.313
X132.08Y-150.495
X132.08Y-153.035
X132.207Y-135.763
X132.588Y-75.819
X132.715Y-90.551
X132.715Y-109.855
X132.715Y-126.365
X133.35Y-140.081
X133.477Y-63.881
X133.858Y-69.088
X133.858Y-82.296
X133.985Y-67.818
X133.985Y-89.662
X133.985Y-126.365
X133.985Y-142.24
X133.985Y-150.495
X133.985Y-151.765
X134.247Y-62.984
X134.62Y-116.84
X134.62Y-121.666
X134.62Y-147.955
X135.001Y-88.9
X135.255Y-75.565
X135.255Y-109.855
X135.255Y-126.365
X135.255Y-140.843
X135.636Y-68.072
X135.89Y-136.525
X135.89Y-150.495
X135.89Y-151.765
X136.042Y-69.088
X136.144Y-88.9
X136.525Y-126.365
X136.525Y-142.24
X136.703Y-106.045
X137.033Y-107.315
X137.16Y-69.342
X137.16Y-88.138
X137.414Y-74.803
X137.795Y-120.015
X137.795Y-126.365
X137.795Y-150.495
X137.795Y-153.035
X138.049Y-87.249
X138.176Y-100.965
X139.065Y-142.24
X139.294Y-126.238
X139.446Y-74.803
X139.446Y-86.741
X139.7Y-98.425
X139.7Y-99.695
X139.7Y-150.495
X139.7Y-151.765
X140.335Y-139.7
X140.462Y-85.979
X140.589Y-100.965
X140.589Y-126.238
X140.97Y-97.79
X140.97Y-105.918
X141.478Y-111.633
X141.605Y-150.495
X141.605Y-153.035
X141.732Y-85.725
X141.859Y-126.238
X142.24Y-97.79
X142.24Y-110.744
X142.24Y-142.24
X142.494Y-74.803
X142.875Y-116.84
X143.002Y-109.728
X143.129Y-126.238
X143.51Y-97.79
X143.51Y-139.7
X143.51Y-151.765
X143.637Y-108.839
X144.399Y-107.95
X144.399Y-126.238
X144.78Y-97.79
X144.78Y-142.24
X145.415Y-116.84
X145.415Y-151.765
X145.669Y-126.238
X146.05Y-97.79
X146.177Y-69.596
X146.685Y-135.89
X146.812Y-63.121
X146.812Y-107.696
X147.066Y-142.494
X147.32Y-87.63
X147.32Y-88.9
X147.32Y-90.17
X147.32Y-91.44
X147.32Y-92.71
X147.32Y-93.98
X147.32Y-95.25
X147.32Y-96.52
X147.32Y-98.425
X147.32Y-106.68
X147.32Y-126.365
X147.32Y-150.495
X147.32Y-151.765
X147.32Y-153.035
X147.447Y-118.491
X147.447Y-119.761
X147.447Y-120.904
X147.828Y-74.422
X147.955Y-110.49
X147.955Y-116.332
X147.955Y-147.955
X148.082Y-127.889
X148.59Y-141.478
X148.7Y-60.325
X149.225Y-120.015
X149.225Y-125.095
X149.225Y-150.495
X150.114Y-128.778
X150.495Y-120.015
X150.622Y-141.605
X151.13Y-150.495
X151.13Y-151.765
X151.13Y-153.035
X151.257Y-77.47
X151.765Y-120.015
X151.765Y-128.27
X151.892Y-117.729
X152.298Y-140.97
X153.035Y-75.692
X153.035Y-120.015
X153.035Y-128.905
X153.035Y-150.495
X153.289Y-82.296
X153.797Y-121.666
X154.305Y-120.015
X154.305Y-122.936
X154.305Y-129.54
X154.305Y-132.08
X154.305Y-134.62
X154.305Y-135.89
X154.432Y-63.119
X154.559Y-71.501
X154.559Y-100.203
X154.686Y-141.732
X154.813Y-88.138
X154.813Y-136.906
X154.94Y-139.446
X154.94Y-150.495
X154.94Y-153.035
X155.067Y-81.407
X155.067Y-85.09
X155.067Y-94.234
X155.067Y-98.908
X155.067Y-147.955
X155.54Y-72.094
X155.956Y-103.251
X156.083Y-107.188
X156.083Y-108.458
X156.083Y-109.728
X156.083Y-110.998
X156.083Y-148.717
X156.21Y-114.3
X156.337Y-104.521
X156.972Y-69.823
X157.48Y-147.701
X158.115Y-104.648
X158.115Y-106.045
X158.369Y-69.342
X158.75Y-148.336
X158.8Y-94.978
X158.991Y-57.79
X159.004Y-103.378
X159.131Y-130.429
X159.258Y-72.12
X159.385Y-100.838
X159.766Y-92.964
X160.02Y-61.341
X160.02Y-76.2
X160.02Y-81.28
X160.02Y-87.122
X160.02Y-99.441
X160.02Y-123.19
X160.02Y-136.525
X160.655Y-107.061
X160.782Y-68.072
X160.782Y-147.955
X161.036Y-75.438
X161.29Y-118.11
X161.29Y-150.495
X161.29Y-151.765
X161.925Y-58.674
X161.925Y-92.202
X161.925Y-93.472
X161.925Y-95.25
X162.052Y-147.32
X162.433Y-87.122
X162.433Y-88.392
X162.687Y-96.266
X162.941Y-119.126
X163.195Y-60.96
X163.195Y-150.495
X163.195Y-151.765
X163.83Y-59.309
X164.211Y-64.897
X164.211Y-78.359
X164.211Y-79.477
X164.592Y-71.485
X165.1Y-150.495
X165.1Y-153.035
X165.354Y-63.881
X165.354Y-82.931
X165.354Y-120.396
X165.354Y-121.666
X165.354Y-122.936
X165.354Y-124.206
X165.354Y-125.476
X165.481Y-89.662
X165.481Y-90.932
X165.608Y-85.852
X165.608Y-100.838
X165.608Y-115.316
X165.608Y-116.586
X165.608Y-117.856
X165.862Y-93.472
X165.989Y-97.282
X166.243Y-134.62
X166.497Y-112.268
X166.497Y-126.746
X166.624Y-63.881
X166.624Y-82.931
X166.751Y-138.557
X167.005Y-150.495
X167.005Y-153.035
X167.259Y-96.012
X167.259Y-97.155
X167.386Y-98.298
X167.386Y-102.108
X167.513Y-105.918
X168.021Y-86.868
X168.021Y-114.554
X168.148Y-99.187
X168.148Y-103.378
X168.91Y-150.495
X168.91Y-153.035
X169.037Y-100.838
X169.037Y-104.648
X169.164Y-93.091
X169.291Y-110.109
X170.18Y-89.662
X170.18Y-94.107
X171.323Y-97.282
X171.323Y-112.268
X171.45Y-153.035
X171.577Y-100.457
X171.577Y-108.966
X171.641Y-111.062
X171.7Y-89.7
X171.831Y-126.746
X172.212Y-84.709
X172.339Y-96.012
X172.339Y-125.476
X172.72Y-153.035
X175.387Y-106.045
X175.387Y-110.998
X175.514Y-81.28
X175.768Y-85.598
X175.895Y-71.882
X177.546Y-88.138
X180.975Y-63.119
X181.229Y-108.204
X181.991Y-115.316
X182.753Y-80.137
X182.88Y-107.315
X182.88Y-124.714
X183.642Y-100.711
X183.896Y-105.537
X183.896Y-126.111
X184.15Y-80.01
X185.293Y-76.708
X185.293Y-83.439
X185.293Y-105.41
X185.801Y-132.08
X190.119Y-76.073
X190.119Y-97.155
X191.008Y-96.266
X191.135Y-144.526
X191.389Y-136.906
X191.516Y-75.311
X192.659Y-76.581
X193.167Y-96.774
X200.279Y-134.366
X200.66Y-85.852
X201.549Y-133.096
X204.105Y-144.018
X204.47Y-87.884
X205.74Y-85.852
X207.01Y-85.852
X207.772Y-86.741
X209.55Y-85.852
X212.09Y-85.852
X214.63Y-85.344
X215.9Y-72.263
X218.44Y-87.376
X220.98Y-81.28
X221.107Y-84.836
X227.33Y-101.473
X231.902Y-63.627
X237.236Y-64.643
X242.57Y-68.199
X243.84Y-67.564
X247.65Y-60.706
X250.19Y-102.489
X251.46Y-84.836
X252.73Y-69.469
X252.73Y-102.616
X253.873Y-63.754
X254.0Y-122.555
X255.27Y-69.342
X255.27Y-102.616
X256.286Y-68.707
X256.413Y-64.008
X256.54Y-123.571
X257.81Y-68.834
X257.81Y-102.616
X259.08Y-67.564
X260.35Y-60.833
X264.16Y-78.74
X269.24Y-60.706
X271.78Y-81.026
X273.05Y-102.616
X274.32Y-79.756
X276.86Y-78.74
X278.13Y-110.744
X279.4Y-78.74
X280.67Y-111.76
X284.988Y-99.822
X284.988Y-110.744
X287.528Y-63.754
X287.528Y-68.072
X287.528Y-104.013
X291.973Y-131.572
X293.116Y-123.444
X293.37Y-76.835
X293.497Y-125.222
X294.259Y-91.567
X294.698Y-74.75
X294.744Y-70.64
X294.767Y-72.771
X294.767Y-126.365
X295.402Y-78.105
X295.637Y-75.928
X295.64Y-71.863
X295.656Y-59.182
X295.656Y-80.137
X295.681Y-81.28
X295.783Y-69.418
X296.037Y-90.805
X296.926Y-91.694
X296.926Y-127.508
X298.069Y-92.075
X298.577Y-93.726
X298.704Y-69.977
X298.704Y-72.517
X298.831Y-75.438
X298.831Y-76.581
X298.831Y-78.359
X298.933Y-80.772
X298.958Y-71.374
X299.403Y-73.352
X299.593Y-90.043
X299.72Y-86.868
X299.72Y-88.519
X299.847Y-85.217
X299.92Y-78.359
X300.101Y-68.199
X300.101Y-74.803
X300.101Y-77.216
X300.101Y-80.391
X300.101Y-93.853
X300.228Y-122.682
X300.355Y-72.39
X300.546Y-69.194
X300.863Y-84.328
X300.863Y-85.979
X300.863Y-87.757
X300.863Y-89.281
X301.117Y-62.992
X301.121Y-80.009
X301.371Y-120.777
X301.498Y-93.853
X301.752Y-58.547
X302.133Y-76.454
X302.133Y-122.555
X302.26Y-63.373
X303.022Y-77.47
X303.149Y-93.853
X303.149Y-115.189
X303.403Y-62.484
X304.038Y-119.634
X304.292Y-76.708
X304.419Y-93.98
X304.546Y-63.754
X304.546Y-80.518
X304.673Y-110.744
X304.927Y-64.897
X305.308Y-75.311
X305.435Y-68.961
X305.562Y-79.883
X306.197Y-70.739
X306.197Y-115.189
X306.197Y-121.539
X306.324Y-68.199
X306.451Y-74.93
X306.959Y-59.055
X307.213Y-106.045
X307.34Y-74.168
X307.467Y-72.517
X307.594Y-71.12
X307.594Y-86.741
X307.678Y-85.09
X307.848Y-63.754
X308.229Y-59.563
X308.229Y-70.104
X308.61Y-62.103
X308.61Y-84.455
X308.61Y-87.376
X308.737Y-107.315
X308.991Y-110.363
X309.118Y-80.645
X309.88Y-84.057
X309.88Y-87.249
X309.88Y-117.729
X310.136Y-69.087
X310.261Y-64.643
X310.38Y-80.78
X310.388Y-73.025
X310.388Y-74.168
X310.388Y-107.569
X310.874Y-68.286
X310.896Y-70.866
X311.023Y-79.756
X311.023Y-87.249
X311.277Y-121.666
X311.785Y-117.602
X311.912Y-82.169
X312.166Y-87.122
X312.166Y-106.807
X312.42Y-65.405
X312.547Y-62.103
X313.182Y-86.614
X314.071Y-67.691
X314.071Y-87.376
X314.706Y-68.707
X314.706Y-79.502
X314.96Y-86.614
X315.595Y-132.715
X315.849Y-82.423
X315.849Y-90.297
X316.103Y-101.6
X316.357Y-118.745
X316.738Y-80.645
X316.738Y-81.788
X316.738Y-89.535
X317.373Y-105.537
X317.5Y-72.517
X317.627Y-90.17
X317.881Y-66.345
X317.881Y-80.264
X318.389Y-109.347
X318.77Y-90.17
X319.151Y-117.348
X319.278Y-105.156
X319.405Y-95.377
X319.913Y-103.378
X320.167Y-116.459
X320.294Y-60.325
X320.675Y-102.489
X321.437Y-116.713
X321.437Y-122.047
X321.691Y-74.143
X321.691Y-86.487
X321.818Y-67.31
X321.945Y-59.055
X322.072Y-64.389
X322.072Y-65.684
X322.072Y-70.739
X322.199Y-88.519
X322.453Y-94.107
X322.453Y-104.14
X322.453Y-105.283
X322.5Y-80.0
X322.834Y-85.725
X322.961Y-75.184
X323.596Y-94.107
X323.723Y-130.302
X324.739Y-69.977
X324.739Y-94.361
X324.866Y-64.643
X324.866Y-71.628
X324.866Y-73.025
X324.993Y-89.535
X325.628Y-83.566
X325.882Y-66.675
X326.517Y-94.107
X326.898Y-69.723
X327.025Y-132.08
X327.279Y-66.548
X327.304Y-88.646
X327.787Y-94.107
X327.787Y-114.3
X328.295Y-62.865
X328.295Y-84.963
X328.295Y-112.522
X328.6Y-58.293
X329.057Y-94.107
X329.057Y-127.889
X329.26Y-89.916
X329.311Y-64.643
X329.311Y-67.691
X329.565Y-109.093
X330.581Y-66.675
X331.343Y-127.889
X331.47Y-131.064
X332.105Y-66.167
X332.232Y-63.119
X332.613Y-96.52
X332.867Y-68.453
X333.756Y-62.992
X333.807Y-88.646
X334.01Y-94.996
X334.518Y-64.897
X334.899Y-86.36
X335.026Y-96.393
X335.28Y-94.234
X336.169Y-89.916
X336.296Y-96.393
X336.55Y-82.931
X337.058Y-89.154
X337.312Y-94.615
X337.439Y-96.393
X338.328Y-64.897
X339.471Y-89.662
X340.106Y-64.135
X340.97Y-89.662
X340.995Y-84.709
X341.63Y-94.615
X341.757Y-109.474
X342.138Y-121.031
X342.265Y-129.159
X342.392Y-63.246
X342.392Y-130.937
X342.925Y-89.916
X343.662Y-107.696
X343.662Y-116.967
X343.916Y-74.93
X344.043Y-130.175
X344.678Y-84.709
X344.805Y-93.853
X344.805Y-131.699
X345.567Y-62.611
X345.821Y-111.76
X345.948Y-58.09
X345.948Y-108.458
X346.71Y-94.234
X346.837Y-89.916
X347.853Y-79.35
X347.853Y-81.94
X348.615Y-74.168
X348.615Y-80.137
X348.615Y-120.396
X348.742Y-65.659
X348.869Y-70.866
X348.869Y-72.187
X349.123Y-87.122
X349.25Y-58.014
X349.631Y-105.791
X349.758Y-91.44
X351.917Y-100.584
X352.806Y-99.695
X353.187Y-70.891
X353.187Y-74.143
X353.187Y-75.438
X353.187Y-82.931
X353.314Y-68.326
X354.457Y-63.754
X356.108Y-81.153
X358.013Y-63.627
X358.013Y-127.635
X358.14Y-73.025
X358.394Y-132.969
X358.648Y-78.105
X359.41Y-130.81
T2
X186.69Y-62.865
X186.69Y-71.755
X186.69Y-80.645
X186.69Y-89.535
X186.69Y-98.425
X186.69Y-107.315
X186.69Y-116.205
X186.69Y-125.095
X187.96Y-65.405
X187.96Y-74.295
X187.96Y-83.185
X187.96Y-92.075
X187.96Y-100.965
X187.96Y-109.855
X187.96Y-118.745
X187.96Y-127.635
X189.23Y-62.865
X189.23Y-71.755
X189.23Y-80.645
X189.23Y-89.535
X189.23Y-98.425
X189.23Y-107.315
X189.23Y-116.205
X189.23Y-125.095
X190.5Y-65.405
X190.5Y-74.295
X190.5Y-83.185
X190.5Y-92.075
X190.5Y-100.965
X190.5Y-109.855
X190.5Y-118.745
X190.5Y-127.635
X191.77Y-62.865
X191.77Y-71.755
X191.77Y-80.645
X191.77Y-89.535
X191.77Y-98.425
X191.77Y-107.315
X191.77Y-116.205
X191.77Y-125.095
X193.04Y-65.405
X193.04Y-74.295
X193.04Y-83.185
X193.04Y-92.075
X193.04Y-100.965
X193.04Y-109.855
X193.04Y-118.745
X193.04Y-127.635
X194.31Y-62.865
X194.31Y-71.755
X194.31Y-80.645
X194.31Y-89.535
X194.31Y-98.425
X194.31Y-107.315
X194.31Y-116.205
X194.31Y-125.095
X195.58Y-65.405
X195.58Y-74.295
X195.58Y-83.185
X195.58Y-92.075
X195.58Y-100.965
X195.58Y-109.855
X195.58Y-118.745
X195.58Y-127.635
X196.85Y-62.865
X196.85Y-71.755
X196.85Y-80.645
X196.85Y-89.535
X196.85Y-98.425
X196.85Y-107.315
X196.85Y-116.205
X196.85Y-125.095
X198.12Y-65.405
X198.12Y-74.295
X198.12Y-83.185
X198.12Y-92.075
X198.12Y-100.965
X198.12Y-109.855
X198.12Y-118.745
X198.12Y-127.635
X199.39Y-62.865
X199.39Y-71.755
X199.39Y-80.645
X199.39Y-89.535
X199.39Y-98.425
X199.39Y-107.315
X199.39Y-116.205
X199.39Y-125.095
X200.66Y-65.405
X200.66Y-74.295
X200.66Y-83.185
X200.66Y-92.075
X200.66Y-100.965
X200.66Y-109.855
X200.66Y-118.745
X200.66Y-127.635
X201.93Y-62.865
X201.93Y-71.755
X201.93Y-80.645
X201.93Y-89.535
X201.93Y-98.425
X201.93Y-107.315
X201.93Y-116.205
X201.93Y-125.095
X203.2Y-65.405
X203.2Y-74.295
X203.2Y-83.185
X203.2Y-92.075
X203.2Y-100.965
X203.2Y-109.855
X203.2Y-118.745
X203.2Y-127.635
X204.47Y-62.865
X204.47Y-71.755
X204.47Y-80.645
X204.47Y-89.535
X204.47Y-98.425
X204.47Y-107.315
X204.47Y-116.205
X204.47Y-125.095
X205.74Y-65.405
X205.74Y-74.295
X205.74Y-83.185
X205.74Y-92.075
X205.74Y-100.965
X205.74Y-109.855
X205.74Y-118.745
X205.74Y-127.635
X207.01Y-62.865
X207.01Y-71.755
X207.01Y-80.645
X207.01Y-89.535
X207.01Y-98.425
X207.01Y-107.315
X207.01Y-116.205
X207.01Y-125.095
X208.28Y-65.405
X208.28Y-74.295
X208.28Y-83.185
X208.28Y-92.075
X208.28Y-100.965
X208.28Y-109.855
X208.28Y-118.745
X208.28Y-127.635
X209.55Y-62.865
X209.55Y-71.755
X209.55Y-80.645
X209.55Y-89.535
X209.55Y-98.425
X209.55Y-107.315
X209.55Y-116.205
X209.55Y-125.095
X210.82Y-65.405
X210.82Y-74.295
X210.82Y-83.185
X210.82Y-92.075
X210.82Y-100.965
X210.82Y-109.855
X210.82Y-118.745
X210.82Y-127.635
X212.09Y-62.865
X212.09Y-71.755
X212.09Y-80.645
X212.09Y-89.535
X212.09Y-98.425
X212.09Y-107.315
X212.09Y-116.205
X212.09Y-125.095
X213.36Y-65.405
X213.36Y-74.295
X213.36Y-83.185
X213.36Y-92.075
X213.36Y-100.965
X213.36Y-109.855
X213.36Y-118.745
X213.36Y-127.635
X214.63Y-62.865
X214.63Y-71.755
X214.63Y-80.645
X214.63Y-89.535
X214.63Y-98.425
X214.63Y-107.315
X214.63Y-116.205
X214.63Y-125.095
X215.9Y-65.405
X215.9Y-74.295
X215.9Y-83.185
X215.9Y-92.075
X215.9Y-100.965
X215.9Y-109.855
X215.9Y-118.745
X215.9Y-127.635
X217.17Y-62.865
X217.17Y-71.755
X217.17Y-80.645
X217.17Y-89.535
X217.17Y-98.425
X217.17Y-107.315
X217.17Y-116.205
X217.17Y-125.095
X218.44Y-65.405
X218.44Y-74.295
X218.44Y-83.185
X218.44Y-92.075
X218.44Y-100.965
X218.44Y-109.855
X218.44Y-118.745
X218.44Y-127.635
X219.71Y-62.865
X219.71Y-71.755
X219.71Y-80.645
X219.71Y-89.535
X219.71Y-98.425
X219.71Y-107.315
X219.71Y-116.205
X219.71Y-125.095
X220.98Y-65.405
X220.98Y-74.295
X220.98Y-83.185
X220.98Y-92.075
X220.98Y-100.965
X220.98Y-109.855
X220.98Y-118.745
X220.98Y-127.635
X222.25Y-62.865
X222.25Y-71.755
X222.25Y-80.645
X222.25Y-89.535
X222.25Y-98.425
X222.25Y-107.315
X222.25Y-116.205
X222.25Y-125.095
X223.52Y-65.405
X223.52Y-74.295
X223.52Y-83.185
X223.52Y-92.075
X223.52Y-100.965
X223.52Y-109.855
X223.52Y-118.745
X223.52Y-127.635
X224.79Y-62.865
X224.79Y-71.755
X224.79Y-80.645
X224.79Y-89.535
X224.79Y-98.425
X224.79Y-107.315
X224.79Y-116.205
X224.79Y-125.095
X226.06Y-65.405
X226.06Y-74.295
X226.06Y-83.185
X226.06Y-92.075
X226.06Y-100.965
X226.06Y-109.855
X226.06Y-118.745
X226.06Y-127.635
X227.33Y-62.865
X227.33Y-71.755
X227.33Y-80.645
X227.33Y-89.535
X227.33Y-98.425
X227.33Y-107.315
X227.33Y-116.205
X227.33Y-125.095
X228.6Y-65.405
X228.6Y-74.295
X228.6Y-83.185
X228.6Y-92.075
X228.6Y-100.965
X228.6Y-109.855
X228.6Y-118.745
X228.6Y-127.635
X229.87Y-62.865
X229.87Y-71.755
X229.87Y-80.645
X229.87Y-89.535
X229.87Y-98.425
X229.87Y-107.315
X229.87Y-116.205
X229.87Y-125.095
X231.14Y-65.405
X231.14Y-74.295
X231.14Y-83.185
X231.14Y-92.075
X231.14Y-100.965
X231.14Y-109.855
X231.14Y-118.745
X231.14Y-127.635
X234.315Y-64.135
X234.315Y-73.025
X234.315Y-81.915
X234.315Y-90.805
X234.315Y-99.695
X234.315Y-108.585
X234.315Y-117.475
X234.315Y-126.365
X237.49Y-62.865
X237.49Y-71.755
X237.49Y-80.645
X237.49Y-89.535
X237.49Y-98.425
X237.49Y-107.315
X237.49Y-116.205
X237.49Y-125.095
X238.76Y-65.405
X238.76Y-74.295
X238.76Y-83.185
X238.76Y-92.075
X238.76Y-100.965
X238.76Y-109.855
X238.76Y-118.745
X238.76Y-127.635
X240.03Y-62.865
X240.03Y-71.755
X240.03Y-80.645
X240.03Y-89.535
X240.03Y-98.425
X240.03Y-107.315
X240.03Y-116.205
X240.03Y-125.095
X241.3Y-65.405
X241.3Y-74.295
X241.3Y-83.185
X241.3Y-92.075
X241.3Y-100.965
X241.3Y-109.855
X241.3Y-118.745
X241.3Y-127.635
X242.57Y-62.865
X242.57Y-71.755
X242.57Y-80.645
X242.57Y-89.535
X242.57Y-98.425
X242.57Y-107.315
X242.57Y-116.205
X242.57Y-125.095
X243.84Y-65.405
X243.84Y-74.295
X243.84Y-83.185
X243.84Y-92.075
X243.84Y-100.965
X243.84Y-109.855
X243.84Y-118.745
X243.84Y-127.635
X245.11Y-62.865
X245.11Y-71.755
X245.11Y-80.645
X245.11Y-89.535
X245.11Y-98.425
X245.11Y-107.315
X245.11Y-116.205
X245.11Y-125.095
X246.38Y-65.405
X246.38Y-74.295
X246.38Y-83.185
X246.38Y-92.075
X246.38Y-100.965
X246.38Y-109.855
X246.38Y-118.745
X246.38Y-127.635
X247.65Y-62.865
X247.65Y-71.755
X247.65Y-80.645
X247.65Y-89.535
X247.65Y-98.425
X247.65Y-107.315
X247.65Y-116.205
X247.65Y-125.095
X248.92Y-65.405
X248.92Y-74.295
X248.92Y-83.185
X248.92Y-92.075
X248.92Y-100.965
X248.92Y-109.855
X248.92Y-118.745
X248.92Y-127.635
X250.19Y-62.865
X250.19Y-71.755
X250.19Y-80.645
X250.19Y-89.535
X250.19Y-98.425
X250.19Y-107.315
X250.19Y-116.205
X250.19Y-125.095
X251.46Y-65.405
X251.46Y-74.295
X251.46Y-83.185
X251.46Y-92.075
X251.46Y-100.965
X251.46Y-109.855
X251.46Y-118.745
X251.46Y-127.635
X252.73Y-62.865
X252.73Y-71.755
X252.73Y-80.645
X252.73Y-89.535
X252.73Y-98.425
X252.73Y-107.315
X252.73Y-116.205
X252.73Y-125.095
X254.0Y-65.405
X254.0Y-74.295
X254.0Y-83.185
X254.0Y-92.075
X254.0Y-100.965
X254.0Y-109.855
X254.0Y-118.745
X254.0Y-127.635
X255.27Y-62.865
X255.27Y-71.755
X255.27Y-80.645
X255.27Y-89.535
X255.27Y-98.425
X255.27Y-107.315
X255.27Y-116.205
X255.27Y-125.095
X256.54Y-65.405
X256.54Y-74.295
X256.54Y-83.185
X256.54Y-92.075
X256.54Y-100.965
X256.54Y-109.855
X256.54Y-118.745
X256.54Y-127.635
X257.81Y-62.865
X257.81Y-71.755
X257.81Y-80.645
X257.81Y-89.535
X257.81Y-98.425
X257.81Y-107.315
X257.81Y-116.205
X257.81Y-125.095
X259.08Y-65.405
X259.08Y-74.295
X259.08Y-83.185
X259.08Y-92.075
X259.08Y-100.965
X259.08Y-109.855
X259.08Y-118.745
X259.08Y-127.635
X260.35Y-62.865
X260.35Y-71.755
X260.35Y-80.645
X260.35Y-89.535
X260.35Y-98.425
X260.35Y-107.315
X260.35Y-116.205
X260.35Y-125.095
X261.62Y-65.405
X261.62Y-74.295
X261.62Y-83.185
X261.62Y-92.075
X261.62Y-100.965
X261.62Y-109.855
X261.62Y-118.745
X261.62Y-127.635
X262.89Y-62.865
X262.89Y-71.755
X262.89Y-80.645
X262.89Y-89.535
X262.89Y-98.425
X262.89Y-107.315
X262.89Y-116.205
X262.89Y-125.095
X264.16Y-65.405
X264.16Y-74.295
X264.16Y-83.185
X264.16Y-92.075
X264.16Y-100.965
X264.16Y-109.855
X264.16Y-118.745
X264.16Y-127.635
X265.43Y-62.865
X265.43Y-71.755
X265.43Y-80.645
X265.43Y-89.535
X265.43Y-98.425
X265.43Y-107.315
X265.43Y-116.205
X265.43Y-125.095
X266.7Y-65.405
X266.7Y-74.295
X266.7Y-83.185
X266.7Y-92.075
X266.7Y-100.965
X266.7Y-109.855
X266.7Y-118.745
X266.7Y-127.635
X267.97Y-62.865
X267.97Y-71.755
X267.97Y-80.645
X267.97Y-89.535
X267.97Y-98.425
X267.97Y-107.315
X267.97Y-116.205
X267.97Y-125.095
X269.24Y-65.405
X269.24Y-74.295
X269.24Y-83.185
X269.24Y-92.075
X269.24Y-100.965
X269.24Y-109.855
X269.24Y-118.745
X269.24Y-127.635
X270.51Y-62.865
X270.51Y-71.755
X270.51Y-80.645
X270.51Y-89.535
X270.51Y-98.425
X270.51Y-107.315
X270.51Y-116.205
X270.51Y-125.095
X271.78Y-65.405
X271.78Y-74.295
X271.78Y-83.185
X271.78Y-92.075
X271.78Y-100.965
X271.78Y-109.855
X271.78Y-118.745
X271.78Y-127.635
X273.05Y-62.865
X273.05Y-71.755
X273.05Y-80.645
X273.05Y-89.535
X273.05Y-98.425
X273.05Y-107.315
X273.05Y-116.205
X273.05Y-125.095
X274.32Y-65.405
X274.32Y-74.295
X274.32Y-83.185
X274.32Y-92.075
X274.32Y-100.965
X274.32Y-109.855
X274.32Y-118.745
X274.32Y-127.635
X275.59Y-62.865
X275.59Y-71.755
X275.59Y-80.645
X275.59Y-89.535
X275.59Y-98.425
X275.59Y-107.315
X275.59Y-116.205
X275.59Y-125.095
X276.86Y-65.405
X276.86Y-74.295
X276.86Y-83.185
X276.86Y-92.075
X276.86Y-100.965
X276.86Y-109.855
X276.86Y-118.745
X276.86Y-127.635
X278.13Y-62.865
X278.13Y-71.755
X278.13Y-80.645
X278.13Y-89.535
X278.13Y-98.425
X278.13Y-107.315
X278.13Y-116.205
X278.13Y-125.095
X279.4Y-65.405
X279.4Y-74.295
X279.4Y-83.185
X279.4Y-92.075
X279.4Y-100.965
X279.4Y-109.855
X279.4Y-118.745
X279.4Y-127.635
X280.67Y-62.865
X280.67Y-71.755
X280.67Y-80.645
X280.67Y-89.535
X280.67Y-98.425
X280.67Y-107.315
X280.67Y-116.205
X280.67Y-125.095
X281.94Y-65.405
X281.94Y-74.295
X281.94Y-83.185
X281.94Y-92.075
X281.94Y-100.965
X281.94Y-109.855
X281.94Y-118.745
X281.94Y-127.635
T3
X310.3Y-61.039
X311.023Y-58.801
X317.92Y-61.039
X318.643Y-58.801
X353.949Y-84.455
X353.949Y-86.719
X361.569Y-84.455
X361.569Y-86.719
T4
X70.665Y-73.025
X75.565Y-73.025
X84.8Y-127.0
X85.09Y-135.89
X85.09Y-142.875
X87.34Y-127.0
X87.63Y-135.89
X87.63Y-142.875
X88.773Y-79.375
X88.773Y-81.915
X88.773Y-84.455
X88.773Y-86.995
X88.773Y-89.535
X88.773Y-92.075
X88.773Y-94.615
X88.773Y-97.155
X88.773Y-99.695
X89.88Y-127.0
X90.17Y-135.89
X90.17Y-142.875
X92.075Y-99.695
X92.075Y-102.235
X92.075Y-104.775
X92.075Y-107.315
X92.075Y-109.855
X92.075Y-112.395
X92.075Y-114.935
X92.075Y-117.475
X92.075Y-120.015
X92.42Y-127.0
X92.71Y-135.89
X92.71Y-142.875
X94.615Y-65.405
X94.615Y-73.025
X94.96Y-127.0
X95.25Y-135.89
X95.25Y-142.875
X97.155Y-65.405
X97.155Y-73.025
X97.5Y-127.0
X97.79Y-135.89
X97.79Y-142.875
X99.695Y-65.405
X99.695Y-73.025
X100.04Y-127.0
X100.33Y-135.89
X100.33Y-142.875
X102.235Y-65.405
X102.235Y-73.025
X102.58Y-127.0
X102.87Y-135.89
X102.87Y-142.875
X105.12Y-127.0
X105.41Y-135.89
X105.41Y-142.875
X107.569Y-64.643
X108.585Y-118.11
X108.585Y-125.73
X109.527Y-59.69
X110.069Y-64.643
X111.125Y-118.11
X111.125Y-125.73
X113.665Y-118.11
X113.665Y-125.73
X113.959Y-64.643
X114.427Y-59.69
X116.205Y-118.11
X116.205Y-125.73
X116.459Y-64.643
X168.275Y-134.112
X168.275Y-137.795
X168.275Y-142.621
X170.815Y-134.112
X170.815Y-137.795
X170.815Y-142.621
X173.355Y-134.112
X173.355Y-137.795
X173.355Y-142.621
X175.895Y-134.112
X175.895Y-137.795
X175.895Y-142.621
X178.435Y-134.112
X178.435Y-137.795
X178.435Y-142.621
X180.975Y-134.112
X180.975Y-137.795
X180.975Y-142.621
X183.515Y-134.112
X183.515Y-137.795
X183.515Y-142.621
X186.055Y-134.112
X186.055Y-137.795
X186.055Y-142.621
X188.595Y-134.112
X188.595Y-137.795
X188.595Y-142.621
X357.632Y-91.948
X357.632Y-96.848
T5
X72.874Y-96.806
X72.874Y-99.346
X72.874Y-117.126
X72.874Y-122.206
X81.915Y-69.215
X86.995Y-69.215
X296.037Y-99.949
X296.037Y-102.489
X296.037Y-105.029
X296.037Y-107.569
X296.037Y-110.109
X296.037Y-112.649
X296.037Y-115.189
X296.037Y-117.729
X296.037Y-120.269
X296.037Y-122.809
X296.037Y-125.349
X298.577Y-97.409
X298.577Y-99.949
X298.577Y-102.489
X298.577Y-105.029
X298.577Y-107.569
X298.577Y-110.109
X298.577Y-112.649
X298.577Y-115.189
X298.577Y-117.729
X298.577Y-120.269
X298.577Y-122.809
X298.577Y-125.349
X298.577Y-127.889
X301.117Y-97.409
X301.117Y-99.949
X301.117Y-125.349
X301.117Y-127.889
X303.657Y-97.409
X303.657Y-99.949
X303.657Y-125.349
X303.657Y-127.889
X306.197Y-97.409
X306.197Y-99.949
X306.197Y-125.349
X306.197Y-127.889
X308.737Y-97.409
X308.737Y-99.949
X308.737Y-125.349
X308.737Y-127.889
X311.277Y-97.409
X311.277Y-99.949
X311.277Y-125.349
X311.277Y-127.889
X313.817Y-97.409
X313.817Y-99.949
X313.817Y-125.349
X313.817Y-127.889
X316.357Y-97.409
X316.357Y-99.949
X316.357Y-125.349
X316.357Y-127.889
X318.897Y-97.409
X318.897Y-99.949
X318.897Y-125.349
X318.897Y-127.889
X321.437Y-97.409
X321.437Y-99.949
X321.437Y-125.349
X321.437Y-127.889
X323.977Y-97.409
X323.977Y-99.949
X323.977Y-102.489
X323.977Y-105.029
X323.977Y-107.569
X323.977Y-110.109
X323.977Y-112.649
X323.977Y-115.189
X323.977Y-117.729
X323.977Y-120.269
X323.977Y-122.809
X323.977Y-125.349
X323.977Y-127.889
X326.517Y-99.949
X326.517Y-102.489
X326.517Y-105.029
X326.517Y-107.569
X326.517Y-110.109
X326.517Y-112.649
X326.517Y-115.189
X326.517Y-117.729
X326.517Y-120.269
X326.517Y-122.809
X326.517Y-125.349
X330.835Y-104.775
X330.835Y-107.315
X330.835Y-109.855
X330.835Y-112.395
X330.835Y-114.935
X330.835Y-117.475
X330.835Y-120.015
X330.835Y-122.555
X330.835Y-125.095
X333.375Y-102.235
X333.375Y-104.775
X333.375Y-107.315
X333.375Y-109.855
X333.375Y-112.395
X333.375Y-114.935
X333.375Y-117.475
X333.375Y-120.015
X333.375Y-122.555
X333.375Y-125.095
X333.375Y-127.635
X335.915Y-102.235
X335.915Y-104.775
X335.915Y-125.095
X335.915Y-127.635
X338.455Y-102.235
X338.455Y-104.775
X338.455Y-125.095
X338.455Y-127.635
X340.995Y-102.235
X340.995Y-104.775
X340.995Y-125.095
X340.995Y-127.635
X343.535Y-102.235
X343.535Y-104.775
X343.535Y-125.095
X343.535Y-127.635
X346.075Y-102.235
X346.075Y-104.775
X346.075Y-125.095
X346.075Y-127.635
X348.615Y-102.235
X348.615Y-104.775
X348.615Y-125.095
X348.615Y-127.635
X351.155Y-102.235
X351.155Y-104.775
X351.155Y-125.095
X351.155Y-127.635
X353.695Y-102.235
X353.695Y-104.775
X353.695Y-107.315
X353.695Y-109.855
X353.695Y-112.395
X353.695Y-114.935
X353.695Y-117.475
X353.695Y-120.015
X353.695Y-122.555
X353.695Y-125.095
X353.695Y-127.635
X356.235Y-104.775
X356.235Y-107.315
X356.235Y-109.855
X356.235Y-112.395
X356.235Y-114.935
X356.235Y-117.475
X356.235Y-120.015
X356.235Y-122.555
X356.235Y-125.095
T6
X89.535Y-75.565
X92.075Y-75.565
T7
X67.899Y-134.45
X67.899Y-137.22
X67.899Y-139.99
X67.899Y-142.76
X70.739Y-133.065
X70.739Y-135.835
X70.739Y-138.605
X70.739Y-141.375
X70.739Y-144.145
X82.423Y-57.912
X88.9Y-147.955
X89.535Y-59.055
X89.535Y-63.5
X91.44Y-147.955
X93.345Y-61.595
X95.885Y-61.595
X98.425Y-61.595
X100.965Y-61.595
X103.505Y-61.595
X105.664Y-67.818
X105.664Y-70.358
X109.22Y-142.875
X109.22Y-145.415
X114.3Y-74.93
T8
X59.055Y-81.915
X59.055Y-93.345
X59.055Y-104.775
X59.055Y-116.205
T9
X56.515Y-79.375
X56.515Y-84.455
X56.515Y-90.805
X56.515Y-95.885
X56.515Y-102.235
X56.515Y-107.315
X56.515Y-113.665
X56.515Y-118.745
X61.595Y-79.375
X61.595Y-84.455
X61.595Y-90.805
X61.595Y-95.885
X61.595Y-102.235
X61.595Y-107.315
X61.595Y-113.665
X61.595Y-118.745
T10
X178.435Y-64.135
X178.435Y-73.025
X178.435Y-81.915
X178.435Y-90.805
X178.435Y-99.695
X178.435Y-108.585
X178.435Y-117.475
X178.435Y-126.365
X290.195Y-64.135
X290.195Y-73.025
X290.195Y-81.915
X290.195Y-90.805
X290.195Y-99.695
X290.195Y-108.585
X290.195Y-117.475
X290.195Y-126.365
T11
X69.319Y-126.105
X69.319Y-151.105
M30
